<mxfile host="app.diagrams.net" modified="2022-09-01T00:27:38.954Z" agent="5.0 (Macintosh; Intel Mac OS X 10_15_7) AppleWebKit/537.36 (KHTML, like Gecko) Chrome/104.0.0.0 Safari/537.36" etag="X0vIzdPaD2npz3E26N39" version="20.2.7" type="github" pages="2">
  <diagram id="Gc7l7-gy1XUnMGawxhDr" name="페이지-1">
    <mxGraphModel dx="1351" dy="887" grid="1" gridSize="10" guides="1" tooltips="1" connect="1" arrows="1" fold="1" page="1" pageScale="1" pageWidth="827" pageHeight="1169" math="0" shadow="0">
      <root>
        <mxCell id="0" />
        <mxCell id="1" parent="0" />
        <mxCell id="JlAwPcuOS6jkdKTEwvYF-3" value="" style="shape=ext;double=1;rounded=1;whiteSpace=wrap;html=1;strokeColor=#CCCCCC;" parent="1" vertex="1">
          <mxGeometry x="605.93" y="822.35" width="394.07" height="197.65" as="geometry" />
        </mxCell>
        <mxCell id="V_rxERyLcr9hmnywlNJD-26" value="" style="sketch=0;points=[[0,0,0],[0.25,0,0],[0.5,0,0],[0.75,0,0],[1,0,0],[1,0.25,0],[1,0.5,0],[1,0.75,0],[1,1,0],[0.75,1,0],[0.5,1,0],[0.25,1,0],[0,1,0],[0,0.75,0],[0,0.5,0],[0,0.25,0]];rounded=0;absoluteArcSize=1;arcSize=2;html=1;shadow=0;dashed=0;fontSize=12;align=left;verticalAlign=top;spacing=10;spacingTop=-4;" parent="1" vertex="1">
          <mxGeometry x="530" y="545" width="550" height="195" as="geometry" />
        </mxCell>
        <mxCell id="RmK6DByKgA-kRegOImkC-1" value="" style="rounded=0;whiteSpace=wrap;html=1;" parent="1" vertex="1">
          <mxGeometry x="64.59" y="430" width="360" height="360" as="geometry" />
        </mxCell>
        <mxCell id="-czxyIKFuqTJFSKeoeac-6" style="edgeStyle=orthogonalEdgeStyle;orthogonalLoop=1;jettySize=auto;html=1;exitX=1;exitY=0.5;exitDx=0;exitDy=0;rounded=0;" parent="1" source="GZmUXPdcQSyBrFpp-1HJ-18" target="GZmUXPdcQSyBrFpp-1HJ-6" edge="1">
          <mxGeometry relative="1" as="geometry">
            <Array as="points">
              <mxPoint x="430" y="728" />
              <mxPoint x="430" y="728" />
            </Array>
          </mxGeometry>
        </mxCell>
        <mxCell id="GZmUXPdcQSyBrFpp-1HJ-18" value="" style="rounded=0;whiteSpace=wrap;html=1;" parent="1" vertex="1">
          <mxGeometry x="89.59" y="692.92" width="310" height="70" as="geometry" />
        </mxCell>
        <mxCell id="-czxyIKFuqTJFSKeoeac-23" style="edgeStyle=orthogonalEdgeStyle;rounded=1;orthogonalLoop=1;jettySize=auto;html=1;strokeColor=#000000;" parent="1" source="GZmUXPdcQSyBrFpp-1HJ-42" target="2OWrzpq9qns1jQRnAUNJ-1" edge="1">
          <mxGeometry relative="1" as="geometry">
            <Array as="points">
              <mxPoint x="882" y="520" />
              <mxPoint x="794" y="520" />
            </Array>
          </mxGeometry>
        </mxCell>
        <mxCell id="GZmUXPdcQSyBrFpp-1HJ-42" value="Database Subnets" style="shape=mxgraph.ibm.box;prType=subnet;fontStyle=0;verticalAlign=top;align=left;spacingLeft=32;spacingTop=4;fillColor=#E6F0E2;rounded=0;whiteSpace=wrap;html=1;strokeColor=#00882B;strokeWidth=1;dashed=0;container=1;spacing=-4;collapsible=0;expand=0;recursiveResize=0;" parent="1" vertex="1">
          <mxGeometry x="707" y="570" width="350" height="134.46" as="geometry" />
        </mxCell>
        <mxCell id="Q9xnJySd4TzFd6jFLzlh-12" value="RDS" style="outlineConnect=0;dashed=0;verticalLabelPosition=bottom;verticalAlign=top;align=center;html=1;shape=mxgraph.aws3.rds;fillColor=#2E73B8;gradientColor=none;rounded=0;" parent="GZmUXPdcQSyBrFpp-1HJ-42" vertex="1">
          <mxGeometry x="200" y="36.230000000000004" width="50" height="55" as="geometry" />
        </mxCell>
        <mxCell id="usIRA-kO4V7hB5ve2QcD-1" value="S3" style="outlineConnect=0;dashed=0;verticalLabelPosition=bottom;verticalAlign=top;align=center;html=1;shape=mxgraph.aws3.s3;fillColor=#E05243;gradientColor=none;rounded=0;" parent="GZmUXPdcQSyBrFpp-1HJ-42" vertex="1">
          <mxGeometry x="70" y="36.230000000000004" width="50" height="62" as="geometry" />
        </mxCell>
        <mxCell id="-czxyIKFuqTJFSKeoeac-18" style="edgeStyle=orthogonalEdgeStyle;rounded=1;orthogonalLoop=1;jettySize=auto;html=1;exitX=0.5;exitY=1;exitDx=0;exitDy=0;exitPerimeter=0;strokeColor=#000000;" parent="GZmUXPdcQSyBrFpp-1HJ-42" source="usIRA-kO4V7hB5ve2QcD-1" target="usIRA-kO4V7hB5ve2QcD-1" edge="1">
          <mxGeometry relative="1" as="geometry" />
        </mxCell>
        <mxCell id="Q9xnJySd4TzFd6jFLzlh-39" value="" style="rounded=0;whiteSpace=wrap;html=1;fillColor=#dae8fc;strokeColor=none;" parent="1" vertex="1">
          <mxGeometry x="97.46000000000001" y="697.17" width="294.27" height="61.5" as="geometry" />
        </mxCell>
        <mxCell id="-czxyIKFuqTJFSKeoeac-3" style="edgeStyle=orthogonalEdgeStyle;orthogonalLoop=1;jettySize=auto;html=1;exitX=1;exitY=0.5;exitDx=0;exitDy=0;entryX=0;entryY=0.5;entryDx=0;entryDy=0;entryPerimeter=0;" parent="1" source="GZmUXPdcQSyBrFpp-1HJ-16" target="Q9xnJySd4TzFd6jFLzlh-4" edge="1">
          <mxGeometry relative="1" as="geometry" />
        </mxCell>
        <mxCell id="GZmUXPdcQSyBrFpp-1HJ-16" value="" style="rounded=0;whiteSpace=wrap;html=1;" parent="1" vertex="1">
          <mxGeometry x="89.6" y="474.46" width="310" height="210" as="geometry" />
        </mxCell>
        <mxCell id="Q9xnJySd4TzFd6jFLzlh-38" value="" style="rounded=0;whiteSpace=wrap;html=1;fillColor=#dae8fc;strokeColor=none;" parent="1" vertex="1">
          <mxGeometry x="97.46000000000001" y="617.71" width="294.27" height="61.5" as="geometry" />
        </mxCell>
        <mxCell id="Q9xnJySd4TzFd6jFLzlh-37" value="" style="rounded=0;whiteSpace=wrap;html=1;fillColor=#dae8fc;strokeColor=none;" parent="1" vertex="1">
          <mxGeometry x="97.46000000000001" y="550.75" width="294.27" height="61.5" as="geometry" />
        </mxCell>
        <mxCell id="Q9xnJySd4TzFd6jFLzlh-34" value="" style="rounded=0;whiteSpace=wrap;html=1;fillColor=#dae8fc;strokeColor=none;" parent="1" vertex="1">
          <mxGeometry x="97.46000000000001" y="483.5" width="294.27" height="61.5" as="geometry" />
        </mxCell>
        <mxCell id="GZmUXPdcQSyBrFpp-1HJ-67" value="" style="rounded=0;whiteSpace=wrap;html=1;" parent="1" vertex="1">
          <mxGeometry x="1120.5700000000002" y="1234.5" width="150.85" height="90" as="geometry" />
        </mxCell>
        <mxCell id="RmK6DByKgA-kRegOImkC-3" value="Financial Company" style="text;html=1;strokeColor=none;fillColor=none;align=left;verticalAlign=middle;whiteSpace=wrap;rounded=0;" parent="1" vertex="1">
          <mxGeometry x="84.66999999999999" y="430" width="110" height="30" as="geometry" />
        </mxCell>
        <mxCell id="RmK6DByKgA-kRegOImkC-6" value="" style="editableCssRules=.*;shape=image;verticalLabelPosition=bottom;labelBackgroundColor=#ffffff;verticalAlign=top;aspect=fixed;imageAspect=0;image=data:image/svg+xml,PHN2ZyB4bWxucz0iaHR0cDovL3d3dy53My5vcmcvMjAwMC9zdmciIHhtbG5zOnY9Imh0dHBzOi8vdmVjdGEuaW8vbmFubyIgd2lkdGg9IjIwIiBoZWlnaHQ9IjIwIiB2aWV3Qm94PSIwIDAgMjAgMjAiPiYjeGE7CTxzdHlsZSB0eXBlPSJ0ZXh0L2NzcyI+JiN4YTsJLnN0MHtmaWxsOiM0Mjg1ZjQ7fSYjeGE7CS5zdDF7ZmlsbDojNjY5ZGY2O30mI3hhOwkuc3Qye2ZpbGw6I2FlY2JmYTt9JiN4YTsJPC9zdHlsZT4mI3hhOwk8cGF0aCBjbGFzcz0ic3QyIiBkPSJNNyA3aDZ2Nkg3eiIvPiYjeGE7CTxwYXRoIGNsYXNzPSJzdDEiIGQ9Ik05IDBoMnY0SDl6TTUgMGgydjRINXptOCAwaDJ2NGgtMnoiLz4mI3hhOwk8cGF0aCBjbGFzcz0ic3QwIiBkPSJNOSAxNmgydjRIOXptLTQgMGgydjRINXptOCAwaDJ2NGgtMnptMy01VjloNHYyem0wIDR2LTJoNHYyem0wLThWNWg0djJ6Ii8+JiN4YTsJPHBhdGggY2xhc3M9InN0MSIgZD0iTTAgMTFWOWg0djJ6bTAgNHYtMmg0djJ6bTAtOFY1aDR2MnoiLz4mI3hhOwk8cGF0aCBjbGFzcz0ic3QyIiBkPSJNMyAzdjE0aDE0VjN6bTEyIDEySDVWNWgxMHoiLz4mI3hhOwk8cGF0aCBjbGFzcz0ic3QxIiBkPSJNMTAgMTBsLTMgM2g2eiIvPiYjeGE7CTxwYXRoIGNsYXNzPSJzdDAiIGQ9Ik0xMyA3bC0zIDMgMyAzeiIvPiYjeGE7PC9zdmc+;rounded=0;" parent="1" vertex="1">
          <mxGeometry x="190.2" y="556" width="51" height="51" as="geometry" />
        </mxCell>
        <mxCell id="RmK6DByKgA-kRegOImkC-10" value="" style="sketch=0;aspect=fixed;html=1;points=[];align=center;image;fontSize=12;image=img/lib/mscae/VM_Linux.svg;rounded=0;" parent="1" vertex="1">
          <mxGeometry x="191.2" y="625.46" width="50" height="46" as="geometry" />
        </mxCell>
        <mxCell id="RmK6DByKgA-kRegOImkC-12" value="GCP Compute Engine&lt;br&gt;CentOS" style="text;html=1;strokeColor=none;fillColor=none;align=left;verticalAlign=middle;whiteSpace=wrap;rounded=0;" parent="1" vertex="1">
          <mxGeometry x="259.2" y="566.5" width="126.4" height="30" as="geometry" />
        </mxCell>
        <mxCell id="GZmUXPdcQSyBrFpp-1HJ-1" value="Naver Cloud Platform&lt;br&gt;CentOS" style="text;html=1;strokeColor=none;fillColor=none;align=left;verticalAlign=middle;whiteSpace=wrap;rounded=0;" parent="1" vertex="1">
          <mxGeometry x="259.2" y="499.46" width="126.4" height="30" as="geometry" />
        </mxCell>
        <mxCell id="GZmUXPdcQSyBrFpp-1HJ-2" value="Openstack&lt;br&gt;CentOS" style="text;html=1;strokeColor=none;fillColor=none;align=left;verticalAlign=middle;whiteSpace=wrap;rounded=0;" parent="1" vertex="1">
          <mxGeometry x="259.2" y="631.63" width="126.4" height="30" as="geometry" />
        </mxCell>
        <mxCell id="-czxyIKFuqTJFSKeoeac-7" style="edgeStyle=orthogonalEdgeStyle;rounded=1;orthogonalLoop=1;jettySize=auto;html=1;exitX=1;exitY=0.5;exitDx=0;exitDy=0;exitPerimeter=0;" parent="1" source="GZmUXPdcQSyBrFpp-1HJ-6" target="usIRA-kO4V7hB5ve2QcD-1" edge="1">
          <mxGeometry relative="1" as="geometry">
            <Array as="points">
              <mxPoint x="740" y="726" />
              <mxPoint x="740" y="650" />
            </Array>
          </mxGeometry>
        </mxCell>
        <mxCell id="GZmUXPdcQSyBrFpp-1HJ-6" value="Storage Gateway" style="sketch=0;points=[[0,0,0],[0.25,0,0],[0.5,0,0],[0.75,0,0],[1,0,0],[0,1,0],[0.25,1,0],[0.5,1,0],[0.75,1,0],[1,1,0],[0,0.25,0],[0,0.5,0],[0,0.75,0],[1,0.25,0],[1,0.5,0],[1,0.75,0]];outlineConnect=0;fontColor=#232F3E;gradientColor=#60A337;gradientDirection=north;fillColor=#277116;strokeColor=#ffffff;dashed=0;verticalLabelPosition=bottom;verticalAlign=top;align=center;html=1;fontSize=12;fontStyle=0;aspect=fixed;shape=mxgraph.aws4.resourceIcon;resIcon=mxgraph.aws4.storage_gateway;rounded=0;" parent="1" vertex="1">
          <mxGeometry x="449" y="700.5500000000001" width="51" height="51" as="geometry" />
        </mxCell>
        <mxCell id="GZmUXPdcQSyBrFpp-1HJ-32" value="IAM" style="outlineConnect=0;dashed=0;verticalLabelPosition=bottom;verticalAlign=top;align=center;html=1;shape=mxgraph.aws3.iam;fillColor=#759C3E;gradientColor=none;rounded=0;" parent="1" vertex="1">
          <mxGeometry x="580" y="510" width="25.93" height="39.46" as="geometry" />
        </mxCell>
        <mxCell id="GZmUXPdcQSyBrFpp-1HJ-34" value="" style="rounded=0;whiteSpace=wrap;html=1;" parent="1" vertex="1">
          <mxGeometry x="109.13" y="837.0799999999999" width="100" height="117.38" as="geometry" />
        </mxCell>
        <mxCell id="GZmUXPdcQSyBrFpp-1HJ-38" value="" style="fillColor=#28A8E0;verticalLabelPosition=bottom;sketch=0;html=1;strokeColor=#ffffff;verticalAlign=top;align=center;points=[[0.145,0.145,0],[0.5,0,0],[0.855,0.145,0],[1,0.5,0],[0.855,0.855,0],[0.5,1,0],[0.145,0.855,0],[0,0.5,0]];pointerEvents=1;shape=mxgraph.cisco_safe.compositeIcon;bgIcon=ellipse;resIcon=mxgraph.cisco_safe.capability.monitoring;rounded=0;" parent="1" vertex="1">
          <mxGeometry x="84.6" y="815.0799999999999" width="43" height="43" as="geometry" />
        </mxCell>
        <mxCell id="GZmUXPdcQSyBrFpp-1HJ-40" value="" style="outlineConnect=0;dashed=0;verticalLabelPosition=bottom;verticalAlign=top;align=center;html=1;shape=mxgraph.aws3.cloudwatch;fillColor=#759C3E;gradientColor=none;rounded=0;" parent="1" vertex="1">
          <mxGeometry x="136.95000000000005" y="856.0799999999999" width="44.35" height="50" as="geometry" />
        </mxCell>
        <mxCell id="GZmUXPdcQSyBrFpp-1HJ-41" value="Cloudwatch" style="text;html=1;strokeColor=none;fillColor=none;align=center;verticalAlign=middle;whiteSpace=wrap;rounded=0;" parent="1" vertex="1">
          <mxGeometry x="127.61000000000001" y="906.0799999999999" width="60" height="30" as="geometry" />
        </mxCell>
        <mxCell id="GZmUXPdcQSyBrFpp-1HJ-79" value="Auto Scaling Group" style="text;html=1;strokeColor=none;fillColor=none;align=center;verticalAlign=middle;whiteSpace=wrap;rounded=0;" parent="1" vertex="1">
          <mxGeometry x="1121.62" y="1332.5" width="150" height="40.92" as="geometry" />
        </mxCell>
        <mxCell id="Q9xnJySd4TzFd6jFLzlh-6" value="" style="sketch=0;aspect=fixed;html=1;points=[];align=center;image;fontSize=12;image=img/lib/mscae/VM_Linux_Non_Azure.svg;rounded=0;" parent="1" vertex="1">
          <mxGeometry x="191.20000000000002" y="710.3599999999999" width="50" height="46" as="geometry" />
        </mxCell>
        <mxCell id="Q9xnJySd4TzFd6jFLzlh-7" value="ESXi&lt;br&gt;CentOS" style="text;html=1;strokeColor=none;fillColor=none;align=left;verticalAlign=middle;whiteSpace=wrap;rounded=0;" parent="1" vertex="1">
          <mxGeometry x="259.2" y="714.46" width="115.4" height="30" as="geometry" />
        </mxCell>
        <mxCell id="Q9xnJySd4TzFd6jFLzlh-28" value="" style="editableCssRules=.*;shape=image;verticalLabelPosition=bottom;labelBackgroundColor=#ffffff;verticalAlign=top;aspect=fixed;imageAspect=0;image=data:image/svg+xml,PHN2ZyB4bWxucz0iaHR0cDovL3d3dy53My5vcmcvMjAwMC9zdmciIHhtbG5zOnY9Imh0dHBzOi8vdmVjdGEuaW8vbmFubyIgd2lkdGg9IjE0LjY1OTk5OTg0NzQxMjExIiBoZWlnaHQ9IjIwIiB2aWV3Qm94PSIwIDAgMTQuNjU5OTk5ODQ3NDEyMTEgMjAiPiYjeGE7CTxzdHlsZSB0eXBlPSJ0ZXh0L2NzcyI+JiN4YTsJLnN0MHtmaWxsOiM0Mjg1ZjQ7fSYjeGE7CS5zdDF7ZmlsbDojNjY5ZGY2O30mI3hhOwkuc3Qye2ZpbGw6I2FlY2JmYTt9JiN4YTsJPC9zdHlsZT4mI3hhOwk8c3R5bGU+JiN4YTsJCS5Ee2ZpbGwtcnVsZTpldmVub2RkfSYjeGE7CTwvc3R5bGU+JiN4YTsJPHBhdGggZD0iTTcuMzMgMTUuMzV2LTMuMDFMMCA4LjQ0djMuMDF6bTAgNC42NXYtMy4wMUwwIDEzLjA5djMuMDF6IiBjbGFzcz0ic3QyIEQiLz4mI3hhOwk8cGF0aCBkPSJNMTQuNjYgOC40NGwtNy4zMyAzLjl2My4wMWw3LjMzLTMuOXptMCA0LjY1bC03LjMzIDMuOVYyMGw3LjMzLTMuOXoiIGNsYXNzPSJzdDEgRCIvPiYjeGE7CTxwYXRoIGQ9Ik03LjMzIDB2My4wMWw3LjMzIDMuOVYzLjl6IiBjbGFzcz0ic3QwIEQiLz4mI3hhOwk8cGF0aCBkPSJNMCA2LjkxbDcuMzMtMy45VjBMMCAzLjl6IiBjbGFzcz0iRCBzdDEiLz4mI3hhOwk8cGF0aCBkPSJNNy4zMyAxMC43OVY3Ljc3TDAgMy44N3YzLjAyeiIgY2xhc3M9IkQgc3QyIi8+JiN4YTsJPHBhdGggZD0iTTE0LjY2IDMuODdsLTcuMzMgMy45djMuMDJsNy4zMy0zLjl6IiBjbGFzcz0iRCBzdDEiLz4mI3hhOzwvc3ZnPg==;rounded=0;" parent="1" vertex="1">
          <mxGeometry x="122.1" y="556" width="40" height="53.33" as="geometry" />
        </mxCell>
        <mxCell id="Q9xnJySd4TzFd6jFLzlh-29" value="" style="sketch=0;aspect=fixed;html=1;points=[];align=center;image;fontSize=12;image=img/lib/mscae/Azure_Database_for_MySQL_servers.svg;rounded=0;" parent="1" vertex="1">
          <mxGeometry x="122.1" y="491.46" width="38" height="50" as="geometry" />
        </mxCell>
        <mxCell id="Q9xnJySd4TzFd6jFLzlh-31" value="" style="aspect=fixed;html=1;points=[];align=center;image;fontSize=12;image=img/lib/azure2/databases/SQL_Managed_Instance.svg;rounded=0;" parent="1" vertex="1">
          <mxGeometry x="119.66999999999999" y="624.55" width="44.86" height="44.17" as="geometry" />
        </mxCell>
        <mxCell id="Q9xnJySd4TzFd6jFLzlh-32" value="" style="aspect=fixed;html=1;points=[];align=center;image;fontSize=12;image=img/lib/azure2/databases/SQL_Managed_Instance.svg;rounded=0;" parent="1" vertex="1">
          <mxGeometry x="117.23999999999998" y="707.3799999999999" width="44.86" height="44.17" as="geometry" />
        </mxCell>
        <mxCell id="Q9xnJySd4TzFd6jFLzlh-40" value="" style="shape=mxgraph.cisco.buildings.generic_building;html=1;pointerEvents=1;dashed=0;fillColor=#036897;strokeColor=#ffffff;strokeWidth=2;verticalLabelPosition=bottom;verticalAlign=top;align=center;outlineConnect=0;rounded=0;" parent="1" vertex="1">
          <mxGeometry x="44.67" y="412.48" width="40" height="43" as="geometry" />
        </mxCell>
        <mxCell id="-czxyIKFuqTJFSKeoeac-22" style="edgeStyle=orthogonalEdgeStyle;rounded=1;orthogonalLoop=1;jettySize=auto;html=1;strokeColor=#B3B3B3;" parent="1" edge="1">
          <mxGeometry relative="1" as="geometry">
            <mxPoint x="897" y="930" as="sourcePoint" />
            <mxPoint x="897" y="910" as="targetPoint" />
            <Array as="points">
              <mxPoint x="897" y="924" />
            </Array>
          </mxGeometry>
        </mxCell>
        <mxCell id="Q9xnJySd4TzFd6jFLzlh-49" value="" style="shape=image;verticalLabelPosition=bottom;labelBackgroundColor=default;verticalAlign=top;aspect=fixed;imageAspect=0;image=https://upload.wikimedia.org/wikipedia/commons/thumb/0/05/Scikit_learn_logo_small.svg/1200px-Scikit_learn_logo_small.svg.png;rounded=0;" parent="1" vertex="1">
          <mxGeometry x="836" y="931.1299999999999" width="115.46" height="62.17" as="geometry" />
        </mxCell>
        <mxCell id="-czxyIKFuqTJFSKeoeac-24" style="edgeStyle=orthogonalEdgeStyle;rounded=1;orthogonalLoop=1;jettySize=auto;html=1;entryX=0.626;entryY=-0.019;entryDx=0;entryDy=0;entryPerimeter=0;strokeColor=#000000;" parent="1" source="2OWrzpq9qns1jQRnAUNJ-1" target="GZmUXPdcQSyBrFpp-1HJ-42" edge="1">
          <mxGeometry relative="1" as="geometry">
            <Array as="points">
              <mxPoint x="820" y="490" />
              <mxPoint x="926" y="490" />
            </Array>
          </mxGeometry>
        </mxCell>
        <mxCell id="2OWrzpq9qns1jQRnAUNJ-1" value="" style="shape=image;verticalLabelPosition=bottom;labelBackgroundColor=default;verticalAlign=top;aspect=fixed;imageAspect=0;image=https://s3.cn-north-1.amazonaws.com.cn/aws-dam-prod/re19/Sagemaker/Product-Page-Diagram_SageMaker-Flintstone.6505ea48b82d1438a14901938b35b7871087a488.png;rounded=0;" parent="1" vertex="1">
          <mxGeometry x="488.3" y="301.48" width="611.3" height="154" as="geometry" />
        </mxCell>
        <mxCell id="V_rxERyLcr9hmnywlNJD-1" style="edgeStyle=orthogonalEdgeStyle;rounded=0;orthogonalLoop=1;jettySize=auto;html=1;endArrow=classic;endFill=1;" parent="1" source="V_rxERyLcr9hmnywlNJD-2" target="V_rxERyLcr9hmnywlNJD-4" edge="1">
          <mxGeometry relative="1" as="geometry" />
        </mxCell>
        <mxCell id="V_rxERyLcr9hmnywlNJD-2" value="Route53" style="outlineConnect=0;dashed=0;verticalLabelPosition=bottom;verticalAlign=top;align=center;html=1;shape=mxgraph.aws3.route_53;fillColor=#F58536;gradientColor=none;rounded=0;" parent="1" vertex="1">
          <mxGeometry x="1296" y="1085.88" width="50.5" height="61.25" as="geometry" />
        </mxCell>
        <mxCell id="V_rxERyLcr9hmnywlNJD-3" style="edgeStyle=orthogonalEdgeStyle;rounded=0;orthogonalLoop=1;jettySize=auto;html=1;entryX=0.5;entryY=0;entryDx=0;entryDy=0;endArrow=classic;endFill=1;" parent="1" source="V_rxERyLcr9hmnywlNJD-4" edge="1">
          <mxGeometry relative="1" as="geometry">
            <mxPoint x="1195.9950000000003" y="1234.5" as="targetPoint" />
          </mxGeometry>
        </mxCell>
        <mxCell id="V_rxERyLcr9hmnywlNJD-4" value="&lt;span style=&quot;text-align: left; background-color: rgb(248, 249, 250);&quot;&gt;Application Load Balancer&lt;/span&gt;" style="sketch=0;aspect=fixed;html=1;points=[];align=center;image;fontSize=12;image=img/lib/mscae/Load_Balancer_feature.svg;shadow=0;rounded=0;" parent="1" vertex="1">
          <mxGeometry x="1150" y="1091.51" width="50" height="50" as="geometry" />
        </mxCell>
        <mxCell id="V_rxERyLcr9hmnywlNJD-7" value="" style="outlineConnect=0;dashed=0;verticalLabelPosition=bottom;verticalAlign=top;align=center;html=1;shape=mxgraph.aws3.ec2;fillColor=#F58534;gradientColor=none;rounded=0;" parent="1" vertex="1">
          <mxGeometry x="1133.5" y="1258.5" width="43.5" height="52.88" as="geometry" />
        </mxCell>
        <mxCell id="V_rxERyLcr9hmnywlNJD-8" value="" style="outlineConnect=0;dashed=0;verticalLabelPosition=bottom;verticalAlign=top;align=center;html=1;shape=mxgraph.aws3.ec2;fillColor=#F58534;gradientColor=none;rounded=0;" parent="1" vertex="1">
          <mxGeometry x="1217" y="1257.5" width="43.5" height="52.88" as="geometry" />
        </mxCell>
        <mxCell id="V_rxERyLcr9hmnywlNJD-9" value="EC2" style="text;html=1;strokeColor=none;fillColor=none;align=center;verticalAlign=middle;whiteSpace=wrap;rounded=0;" parent="1" vertex="1">
          <mxGeometry x="1171" y="1241.8600000000001" width="50" height="13.64" as="geometry" />
        </mxCell>
        <mxCell id="V_rxERyLcr9hmnywlNJD-12" value="" style="outlineConnect=0;dashed=0;verticalLabelPosition=bottom;verticalAlign=top;align=center;html=1;shape=mxgraph.aws3.auto_scaling;fillColor=#F58534;gradientColor=none;rounded=0;" parent="1" vertex="1">
          <mxGeometry x="1177.58" y="1305.5" width="38.07" height="36.63" as="geometry" />
        </mxCell>
        <mxCell id="V_rxERyLcr9hmnywlNJD-13" value="Cloud Front" style="outlineConnect=0;dashed=0;verticalLabelPosition=bottom;verticalAlign=top;align=center;html=1;shape=mxgraph.aws3.cloudfront;fillColor=#F58536;gradientColor=none;rounded=0;" parent="1" vertex="1">
          <mxGeometry x="1300" y="969" width="46.5" height="56.53" as="geometry" />
        </mxCell>
        <mxCell id="-czxyIKFuqTJFSKeoeac-8" style="edgeStyle=orthogonalEdgeStyle;rounded=0;orthogonalLoop=1;jettySize=auto;html=1;" parent="1" source="V_rxERyLcr9hmnywlNJD-14" target="usIRA-kO4V7hB5ve2QcD-1" edge="1">
          <mxGeometry relative="1" as="geometry">
            <Array as="points">
              <mxPoint x="760" y="640" />
              <mxPoint x="760" y="640" />
            </Array>
          </mxGeometry>
        </mxCell>
        <mxCell id="V_rxERyLcr9hmnywlNJD-14" value="MoaZone" style="sketch=0;outlineConnect=0;gradientColor=none;html=1;whiteSpace=wrap;fontSize=12;fontStyle=0;shape=mxgraph.aws4.group;grIcon=mxgraph.aws4.group_subnet;strokeColor=#879196;fillColor=none;verticalAlign=top;align=left;spacingLeft=30;fontColor=#879196;dashed=0;rounded=0;" parent="1" vertex="1">
          <mxGeometry x="557" y="570" width="130" height="140" as="geometry" />
        </mxCell>
        <mxCell id="V_rxERyLcr9hmnywlNJD-15" value="EFS" style="outlineConnect=0;dashed=0;verticalLabelPosition=bottom;verticalAlign=top;align=center;html=1;shape=mxgraph.aws3.efs;fillColor=#E05243;gradientColor=none;rounded=0;" parent="1" vertex="1">
          <mxGeometry x="595.38" y="612.25" width="53.25" height="54.27" as="geometry" />
        </mxCell>
        <mxCell id="-czxyIKFuqTJFSKeoeac-4" style="edgeStyle=orthogonalEdgeStyle;orthogonalLoop=1;jettySize=auto;html=1;exitX=1;exitY=0.5;exitDx=0;exitDy=0;exitPerimeter=0;" parent="1" source="Q9xnJySd4TzFd6jFLzlh-4" target="V_rxERyLcr9hmnywlNJD-14" edge="1">
          <mxGeometry relative="1" as="geometry" />
        </mxCell>
        <mxCell id="Q9xnJySd4TzFd6jFLzlh-4" value="Site to site VPN" style="sketch=0;points=[[0,0,0],[0.25,0,0],[0.5,0,0],[0.75,0,0],[1,0,0],[0,1,0],[0.25,1,0],[0.5,1,0],[0.75,1,0],[1,1,0],[0,0.25,0],[0,0.5,0],[0,0.75,0],[1,0.25,0],[1,0.5,0],[1,0.75,0]];outlineConnect=0;fontColor=#232F3E;gradientColor=#945DF2;gradientDirection=north;fillColor=#5A30B5;strokeColor=#ffffff;dashed=0;verticalLabelPosition=bottom;verticalAlign=top;align=center;html=1;fontSize=12;fontStyle=0;aspect=fixed;shape=mxgraph.aws4.resourceIcon;resIcon=mxgraph.aws4.site_to_site_vpn;rounded=0;" parent="1" vertex="1">
          <mxGeometry x="449" y="566.71" width="51" height="51" as="geometry" />
        </mxCell>
        <mxCell id="V_rxERyLcr9hmnywlNJD-22" value="Amazon SageMaker" style="sketch=0;outlineConnect=0;fontColor=#232F3E;gradientColor=none;strokeColor=#ffffff;fillColor=#232F3E;dashed=0;verticalLabelPosition=middle;verticalAlign=bottom;align=center;html=1;whiteSpace=wrap;fontSize=10;fontStyle=1;spacing=3;shape=mxgraph.aws4.productIcon;prIcon=mxgraph.aws4.sagemaker;rounded=0;" parent="1" vertex="1">
          <mxGeometry x="480" y="270" width="40" height="70" as="geometry" />
        </mxCell>
        <mxCell id="Q9xnJySd4TzFd6jFLzlh-15" value="" style="shape=image;verticalLabelPosition=bottom;labelBackgroundColor=default;verticalAlign=top;aspect=fixed;imageAspect=0;image=https://www.mlflow.org/docs/latest/_static/MLflow-logo-final-black.png;rounded=0;" parent="1" vertex="1">
          <mxGeometry x="742.95" y="286.27" width="101.99" height="37.46" as="geometry" />
        </mxCell>
        <mxCell id="-czxyIKFuqTJFSKeoeac-19" style="edgeStyle=orthogonalEdgeStyle;rounded=1;orthogonalLoop=1;jettySize=auto;html=1;strokeColor=#B3B3B3;" parent="1" edge="1">
          <mxGeometry relative="1" as="geometry">
            <mxPoint x="705" y="910" as="sourcePoint" />
            <mxPoint x="705" y="940" as="targetPoint" />
          </mxGeometry>
        </mxCell>
        <mxCell id="V_rxERyLcr9hmnywlNJD-25" value="" style="shape=image;verticalLabelPosition=bottom;labelBackgroundColor=default;verticalAlign=top;aspect=fixed;imageAspect=0;image=data:image/png,iVBORw0KGgoAAAANSUhEUgAAAicAAADdCAYAAABgxtKLAAAAAXNSR0IArs4c6QAAAARnQU1BAACxjwv8YQUAAAAJcEhZcwAAEnQAABJ0Ad5mH3gAAFqOSURBVHhe7Z0HfFxXlf/P9KouS5bcYztx4vTeSUKADQkEWFhgqQt/yi69/SH0DruwlF3IsuwfFlhgWdpCSCEN0nvsJI6dYsdNliVZVpeml//5vRlhWZp5796Z96Qn+3zzmVgzGr1333333fu75557jqfzqquLJAiCIAiC4BK85X8FQRAEQRBcgYgTQRAEQRBchYgTQRAEQRBchYgTQRAEQRBchYgTQRAEQRBchYgTQRAEQRBchYgTQRAEQRBchYgTQRAEQRBchYgTQRAEQRBchYgTQRAEQRBchYgTQRAEQRBchYgTQRAEQRBchYgTQRAEQRBchYgTQRAEQRBchYgTQRAEQRBchYgTQRAEQRBchYgTQRAEQRBchYgTQRAEQRBchYgTQRAEQRBchYgTQRAEQRBchYgTQRAEQRBchYgTQRAEQRBchYgTQRAEQRBchYgTQRAEQRBchYgTQRAEQRBchYgTQRAEQRBchYgTQRAEQRBchYgTQRAEQRBchYgTQRAEQRBchYgTQRAEQRBchYgTQRAEQRBchYgTQRAEQRBchYgTQRAEQRBchYgTQRAEQRBchYgTQRAEQRBchYgTQRAEQRBchYgTQRAEQRBchYgTQRAEQRBchYgTQRAEQRBchYgTQRAEQRBchYgTQRAEQRBchYgTQRAEQRBchYgTQRAEQRBchYgTQRAEQRBchYgTQRAEQRBchYgTQRAEQRBchYgTQRAEQRBchYgTQRAEQRBchYgTQRAEQRBchYgTQRAEQRBchYgTQRAEQRBchYgTQRAEQRBchYgTQRAEQRBchYgTQRAEQRBchYgTQRAEQRBchYgTQRAEQRBchYgTQRAEQRBchYgTQRAEQRBchYgTQRAEQRBchYgTQRAEQRBchYgTQRAEQRBchYgTQRAEQRBchafzqquL5Z8FwVaCVKBjfSnq8ObI56nczDxUpJinQEu9WRot+Gmi6KX0LM1c4D/tLQSpJx+kKfKVP62f43xJWunLlN8dAufblIvRSNFf/qQ+YpSn0wIJivB1TpMvemiAr3d7PkyZGuYIqLfjuG5XzCh/jsud498MKxw3ymU6KZCkRk/eeI9rzvPf+vi4Xo/xUVUSfI96+V6MFX00yT9n52GOg3Kd7E9QO7el2WS4Lh/MxinlcDnaPVk63p+i0/xTdArfzyauu9Csdp3lsmzKRenBTJyeK4SoPx+ghI1tVhCOFkScCI7x6tAQvSEyxEOePfRxR/+bdAvdmmnkQbi+gWgjC5MvxPfNGVymuZcHl68mulhe1V/6a6K9dGFwqvzucG5MN9K1yU4eevXOc45/kj4e20/+Cn+GK/peYgldn2kpfTALL3/jfZF+ujw0Uf6kNqYKXhpgAfdcLky/zzTTLhZETnFZYIzeFx2oeL3ghnQT/VuyQ7serSlSmydHrw0P0SXBCRaYet1lL7fZ/+U2e0umyRB/giCo4fyURzhquSA4aWt33OXL0rujB+h7DXtovS9V/rQ2/oaFUzVhAlD28wOT5Xf1sdaXLv80lxeFxmmFd671xopT/ImqAzU+3sAz/Go08Iz/7EBlsaRDzFugY3wZegFfw7807KWPRvdTMw/kJXlkJ0V6eWik6vWCS1k41FKPZsA6dR63gR827aIr+Bp1hQlYVm6zn4r1UqNRN4IgqCDiRHCMOM8VnWApd/hfj++lFwXHyp/oAcvBSr/1QHZRoD7LwjTpYvXHDAb/V4SGS280mDI5JkgXq4/kAb7+YA0DrRkozUU8kP+ocSddGRwtfWgTsFxgkDcDS2YX2nS/pnkeH+/j0T6yY3HvTBaT32FRjeU0QRCsEXEiLDow7GIW/c7IAK306ltQOr3Z8gzfnBP8SWqyYbYLPxAzMOt/seaAnrY4ppmVAVj8uiY8fNAAv94RGaSrgiPlT+sHFqyAhZjC9VzM9WjXdcGv5L3RAUv/G1VQN23ePH29occQx4IgmCPiRFi0BLnD/0J8v+Fwqk6R/iY0bPytFS08mFxs82y8EhASrwoPU5vH3DqgAxwzFwofn/otkYOGw7EdnBuYUuqolrHohKioFzhyvyF80HTZr1bggH1NrI9FlAgUQTBDxIngCH7u4O1eOqgEdm+c5FcfBLGMoupvgeH98uB46Y3DLOHreDMPiHaBHSwLCQb2V7EItMNKsNLEZ2cmsHK8sMalvplgOWe94jl1wV052z9Jy232jxGEIw0RJ4IjoBOuZXjEUFbUHM9O1XDubPHkKFbePqvCcp7pzsdAgrq6MDhJG30J/sm6Amqp2/nm9ECCTqjTegIn1+ntzips1BCqlSnSi0Jjti3nVAKWpTdHDvI9dF68C8JiRcSJ4AiGyCj9WBH87qOTy+nK0WMPe13Fr1eMraN/TyyhPbkg5RX671N5QFKboReNJQIdB0dYAC4zrCcqx68PWJreFT3A5bM+V3RGzJRK1DO2Tha89PqxNXT16Hr6WaqVHs9GaFsufNhrqOCzFJGou1eH9Z19p8Hg/bZI9e3DlWhmIVMSeLXRzuLVatcPYsL05f3002QrvWZsLbfb9fTm8TX0P6kW2pUPWlqt8Fu0Q/g+CYJQGREngiMgDolZJw03U8QtqQSCh12XaaF3Ta6iryeWGoOBGd2+jBHozYoQD3avCQ8Zzomq4Kt2bSlWAT4JbzKWd8wv2kqcRL3mvzcjw1c9WvQbjrw/T7XTx6dW0EcmVx72esv4MfRgNmYpUNb5Upo+QYeAz8/JmpYQWDzeFTlgCJtaOC84aVp3OOqmbJT+fmI1/Xe6nSaKWCj00GAhQD9JLaF38+efnepWEtXH17kdXhCOZEScCI7go4LpDgtYL2ZGTK0EAmrdnW2gJ3OR8ieVwfBwksJsGb4LGPB0WYqlBb6e+QBi6CWhMWqxWMpw8sHFsa30G4TLN1g49vKgbAbuMZbGagHRhWvZxguxilgutYDgfGZ1e7Dgp28kl5pGxX0iF6WfptoshdvJgQTXYm0iShCOdEScCI6AhmXWuDD4WQ2AAF33fySXUNaiD29TsJzAlF4LWFZ4dXiIf5qfgQSiDkHHnALLRwgHXy9IJfCbVGv5XWUgHLtqXL64PDCm1khmgXNuqNEqYdWObks3GmH7zYCoviHdzALGvPCdnqwt90EQjkREnAgLhtXSRAkP7SmEjHwuZlgdC9tDT69xmymGGPidROfJegJeyuLkWBNn0nAdZTGGzBoG/Uo8no9QxmR8xRJat0UAtUpgKeiUQLKmYuKcrwzXtlPI6i/6i7AUWZcKm5/35IPld5WBEEJAPEEQ5iLiRJmiEZBrPQ8YK7xpI4hXYB4HqyMR1VkjcpJMWcxWkYDODGzVXWWyvAC/FrPSNHoLFZMEOgWCmf01C5RqdVTLoO0EIwU/HTRZ2kE5sUNKl3X+lKnghD9TtfuFc57Af99dwy4rs2i+AA6zanjoT5lGU3+pvfmQpXVFEI5WRJyYgNkp/A0uDIzTeyPIj7GfPhLtp/dEB+g9kQF6N79eFzpomJ+RMRWdIUQL/u5oX0vGmnzSxCEWtaPaMaMurWKmWIVzX8WC0iyoVk8hSImCeXnsCmevylmBKVpTJd6GuWfE/IF7aGUh0Pf/KNLp/DxVA74cWF4xczrFnTzN5BjVsGpHV4ZGaSW3JRX+mGkyklTCgXbzrNetXP5/TXYYjuOCIMzliHwy/F4Phf1eigV81Bj0U1PIT82hgPHCzw38GX4X9nnJN2PrBszAEZ6nr/MljQBSyPr61XgP/Z/IoGEj+XW6hT4yuYI+NbmcvpvspN+kW0up9Xl+i9khdibAAx+ObkjMtsabMqJ+Hq0WFrOMvpj5YoeDChigrcLI9xRC5Z8qUTRiiFQDY9wf0030eD5W+qAKl4ewtKPvaFlrpFH83d+Gh4x2ORurQdQMbFW268GHf8W4hVWrSVOcYFcVYqRUA4tEt2YbDUFpBnZZIRigDv3cJs3uVqs3T1/mPuEM/2TF+zIT7Dr7l+RS+tTUcvrkrNe3+PPxoh1ZewThyMTTedXVtfWcLuPYlhid091Kpy5ppGUNYWqNBKmZRUg04KeI30e+clSlbL5AyVyeJrN5GktnaSiZod6RURrs3UuRkT5aXpyiZT5spiyBWQ5SsfdadITCXP6zcWfVLb6wqrxp/BjL5RpYTT4X66UzTAYrCJ23jK+hkSqdPaxZ/9m0i4JVBhMkyXvj2DHUzGX9t4Y9pgG4PjqxnJ7MR8vv1Phew25aUeOSEIbWf5zqonuyDaUPyrwrMkAvDlWPhnpDqpmuTXWU3x3OBhbf/9zQU343l5GCj97I98ZMXM7k77ksV5mUZXsuRO+fXFV+Zw2sXP/auMdwbK3EKJfvzVw+WLI+EO2ver/Qxv5hfDUdMPxE1MCk4nOxfcaymhX9eT9dw5OVQW53EGmCINjHorWctEcC9OoN3fTdy0+iO15zAf3u5WfTp88/ll5xbBedyyLl2JY4dcTCFGeBMi1MQMDnpbjfQ03JYWrre4qW77iXTt7xZ7p04mk61ztibHuc2c2gs/pafC99JNpHJ/HPtTjZHY3AAhU3mbViB0wlp07UbwOLCUQWfUt40BALZiZ+8HQuTKMmIgdp76sJE7A3HyTMg/ezAMXAZ8aZNez4CSk5/lYGD+g7Igfm+G3AwdeMKZPBMmZRHogSVWHiBBcGJ6oKEwDrBpaTNuWipo7SYU+RNvj1du1g2/qevJkV7hBLfTn6QeMu+imL8I9G91O7jbmRBOFoZ1GJEyzDXL6qnb5x6Ub6/SvOoc9fsIFefEwnrW6KGhaSgNdLHpMIW/lshvoevYt23fprGtz6MGUTE9S4fC01LlvDPXLlDhu6pslbMPJtfDK2nz7Ns/hWiyUGoWTSNsucC+P5T5p20Q3Nzx72+kPzdvpF0076Gs/s/zo8YlgcrIKm3ZZpNJ25QpyY8SQPcrDRoAU8mIuZyk8cK6y5tGNWfJwTEVjNwFLCNdz2ZvoxmUsooqzJoG0VX0Z34crOTiTuydMLTPLjoAZuzjQZPyNQ3ICFMy5y7ej4f8H5Gku2YxYidRr0D81IEBmcpB+yUPlWfA+9JjRU9hVSP68gCIezKMQJfET++tgu+tGLT6NvXnYSvfzYbloWj1DI7zMVIzPJpRLUv+lu1iB56jrzUlp+zuXUzf+2rttIHSeeQ4HY4Wbz2eA0ce7UzwokDCuKnRlkj0TQyVuF8bYDLEE8lK3uKwIfEbMkbjkePw79vYf+mGk2zeiLbbG6SeHMwtHjTEZMDItxDAHJzrCwIM0kauLnYbVLSrdT0BUzZqz1pln8Vz8iLFt3Z+Lld0S/47ozC3aGXDu6uZGezYfp24lOY7lPB+TMWe9P0+sjQ/TP8b386qHzeVITsrByCYIwF1eLE1hKrljTQT+84lT60sXHG8s1ECq6Q15qfJgOPPkQRZd0U9fpF1O0vZP8kRh5vKXLD0TjhlCxnKKXOTmQpA/F+sWCYgGsJ04CYfHVqS6aMIkj+rzgBDWYRIXdmQ/R1vwhywXeDxSqHw9XdL6Jc20lrFrV/mKQbmRRZAZ8IODboergmarDYdZCJ80haXEuq9/PBEkcMchXA9FXkzPsRndlG+igiWMpAtqdqiHqpnkwFzfaFvIM6YLiw5kZS0qfiPXRNxv20kuCIyJSBEGD2nswB8HDfVxrjL5+6Ub65mUn0llLW1ioqJlZZ5MYGqCx3c9Q27GnUMsxx5O3ynFiHcuobd1J5XfWnMIzso9xx6OTMfVow8oaUA/JgseIHPvkDGFRiUuC46bi4DEe7GDlmQa+FqVlouqc45+sOV9MJRAL47p0s2EVMKPTm6MLjCUq64o1GwYRet4Mq1xGs8lbWBjUD1e03P6LpIMzwVZcbNWtBkpWi58QeIgFygcmV9JOxQSU1UB8nXdGB42luTiXWBAEa1wnTrAN+E0nrqAfX3E6XbV2KYX9tYmSYrFIUwd6KZeYoCUbz6JQY0v5N5WBFaXj5PMo2GA+g50JTMZfbeozHO+E+QEmfPgDfGZqGV2fwT2tPjBCQHSbhE7HILypwpLQbZkm0xlzuy9nOErbBVyw+wtB+s9ku+lADsMeshYj864VKZNH28qqotuavTa1f4S5X22yqwmWMmzdn80D2bhpmU/i5xSh4msBTtLvnVxFX5jqNsSjrnCbCZaE/2+sn++2PfUlCEcyrhInLaEAff2SjXTNOcdSZ/zwGZIOxWKBsskpCsQaqWH5WvL61OIJeHw+WnnBFVAq5U+sWUkJ+mF7HzW4qibdgZl5vhbQpd/EwgHbhrcqbOdFYDwzyxZ2feysEB8FuVN2mezYgFyudTZuBrYLD5osKQHstEHcHSeb20xLkgpWYimsuFvpquCosQxTjS25KIuFuQ6wj/PnZlYnLLG8JDRafqcPnK0fzsWN7dX/mOiiHTm13TyVwM6z90cG+CcRKIJghmuG1OPb4vTzl5xBL1m7lEJ+r2b3OBsPBcJRCsYalB1mAb4bamrV+xt+NWYn6fsdA7QuVpuV50ilHlP4NDgE4lU8kwvT+8dX0rXJDlOrwEz+KjRmbFmuBraiVgpmhsFom8VyEaxm9bXRueC6vjTZZTk7R3yPY/n8bsFMUACVu4Ut5KeaxLIBd2bgtD631tP81/dlDznJVuIEG+oLog0C8oOTK+mt46vpD+kmwyHbKvvwTNC1YKmxWuRfQRBKuCII23ndLfSVi0+gVY0RLWHgFFt/eS2PUPrVMhltNZzoNo/JTh7wr/HddIy/spkec+3/SrZVzWUC0YDgWePc+ePn4SJcQdXbBr79s8adFPdWn7UjwN7eKsH1lnkzdKZZlFJuHm8fX6MU4Otnjc8Z200rgVb2Nh7o+srlgMn/Q5F+uiQ0YXq1+Duz3/8g2U6/TVfOGHyGf4o+H+8tv5tLbz5Ab59YU35njVVAOJUgbF2ejBF4LVJF6OAu3pOJVw20h8BtpwaqC5CD3I7ewfWcstyErUPRyP+zzJOlswOT9LLwCL+37jfwjYezMfrcVDf/tPD9nSC4kQW3nFy6so2+dslGI1aJG4RJEfFOahAmIJ4Ypmvi/XRWi3pEylo5ElKt380z4esyLRVft2ebDDM+MhIfZAGgGxTsXB6AYybCBJzG4uPq0GjFl5kwAdg9c3HQ/lw7sNp8x4izYf5oumlIs1q0sd5SXqQXsLgx891CbSCWSKV7hZeZMAFY3jNL/FgbHkoUfbS9EKafpdtZ/KyhX6VaaELh3iFDtjjTC0J1FlScXLy8jb544fG0vMHchD6f5LP1mVtjU0P0ocYROqHV3MxcLxEeEloNJ7/FKVIgNpzKyIolghfxYOf0AA4LhBNgeQfCbbHcWauIsyrLcAhy6OT9gph8fmCcfzKr1SK9NDhC323YTd9v3GW8vtewiz4T20d/GzpoZCM3A9a9H6WW0PsnV9K+vHmOHiw3SigCQajOgomTMzub6QsXbqBlLhImIJeqf226YaKfPrexmVY01O7Ua8Uk+Yybd6I/uSgTCyIwmVWk0lrBsLDepxe2vBZW8ky8Ugh+O/gJD3LI3eJ2IATbq+RPmsYqMWADt4MWk1g0dgDhc05g0lQAIVgbnI2xY2iZN2u8VviwZJOg10WG6WvxHmpR2PWDnVfY3WNlgK221CcIwgKJk9WNEfrK846nVU3WOy6qgR05TpBP2+BoWChQ2/6t9PVLTqBowLkqxnLHIM/Qrg6NlKOQLpa5dmmwcKpmkAXXajZvBzDLwzzvRL0ji9P3kh2OxoqxAwhM+HtUA8U334FUpHNZNJjbGewBAmiFSbRYhM43a5MNXlyr2tKQkafJJDgcQBZzQRAqM+/iBCf88kUn0Lpm8/T0ZmSmJiifsXv9uETODnHCJIcP0AaapA+csZb8DvrSDLBA+VOmkf4hMmDa8S4EVpYRp9bcXxUednxJByCvyhsjQ46d69FcjB6x2IWy0GBpwkwIQnIMm4gT2FSuQP6bebhhuF/wT6kWZ6SvELAMrdflU3N2x+X4LZxjG+dBQAvCYmVexQk6h4+es57O7Gqu2fl1rOc5ymdT5A85s2SST9k0mykW6cBj99CbN66gq9YtdbSih1mg/Feq3TBJY5upEzP5WjC7ZgwCWKO3G8R7fT6iws7DYAc6vFnD/8cJ4Bz7o1RbTSHU54uXBEdN49lgW3S1HVEAOYDW+lLzIiZxjrNMrDTj3B6tQu2fHkhUFTczQQBAqyjCe/LV60UQjnbmtdc7r7uVXrdxOQV9+qeFRWPwqU2GKIk0tZc/tRkWFFMDPeU39ZOZGKXkgR760JnH0DF1WIpUwBbLbyaW0qWBMTrPr5f7ZSFAyPOUZmI1FRBlFEG35gssp6nOpmthHw/s/8UCxY2c4psytjybgdggB0wyB2OZxCwWjd1gaadaUDiIwREL/5gz/VOWjtAQL1eFRy07190mgf4E4Whn3sRJazhAHztnPcU0w9EjDH16fIT6HrmDIi3tFOvo5qffmd4sn8vSRN+e8jt72P/Qn2hZxE9/f+pqitQYil8VrHEjpPtZQWd2kdgJArQheJbdINmaGdjmeX26if6QblZ64buDJo6puILzFfPd1IaHbsk08Szb+e3p02A5rsFkyQ2WoleGho3cUla+PVjSGaqyrINB/AqT+CgAf1vpvlR73cj3ywzcL2R4rsYzOXMH/SAL3/dED5R9jSpRNHYFvYrrx6ybQmDBStFuBUEoMS9B2LCc885TVtOHz17HP6sLi2IhTxO9u2nwqUep85TzKN65nD91bpo13ruLeu65sfzOPpaf9yIKda+h996+hW7ZPVj+1Bninhx9Nb6P3jOxypgJLiRmQdgSLBLeOLGGO2k7BVuRvhTbVzXmBRr6vZk4fTXRpVE3RXoNDzSvDw9VHWwQk+St48dQsorY0gnCVo0NviT9U7xHOSVAPUHY7AJLOj9KtdNvqpSjkdvq9xt2G46mlcBul2sTHXRjVj3fFQTPV7j9I59ONXbng/T+iZWUrXC/zvJP0idi+42tx2bgvm3PhenBbIwnBT4jmWKURdspgQSdE5gybV24rtuyjfStxNLyJ4IgzMb+qWsF1jRF6Q0bV2gJk0IuQwe2PUp9m+6ipadd5LgwgRDq33xP+Z299G++iwKFHP3diSuN/EFOMln0U5w7SZXkcE4DUVoNdO6l/9lHOw92CCtfFT7f/UaSOJ12hJDl5k6pTTy4rnY4HPmzeR4IczFjYFPB7GtOLKdVApYB5EKqBrbumkXwxQblu3N6DsG4t99jQWOWOmG5L1M1ISQSC8Ix1grU4LH+FL0hMmRYUj4QHaB3RAfpXAthAnDF16fVBZcgHI04Lk6aeMB47fHLqUshkR+WcPDKTI3T3nv+SCPbt9CKC19MsSWYYTjboWLpKMvndQLEThnv3Ulnd7XQZasc8peZARLXrXTBzh0zR1EE5rI7CNtJgaTpjBfne8wkvX41ELdiwsLCUwr6pq+28BfVQvjPBEHrvjG1lFQy+uCYkyaJ8OYDiKjfp1uMCKrVWMeCzuxqpvhva7Gs9fD9mjT5OywyHVdFxMJH5r9T7XVlH7YClhazxJKCIMyDOPle0166JPkcJYeRiXMu+WzW2HY7tudZGnjifuq55ybadftvDcfU6JJu/n2GCjnnrQAjO58q/+QMg08+ZFgSXsdCrTFo/y6VmWAXzCqXJxbDQG6nNMHxLvSbO2ci3saoMTTpAZM9nFLNxiv4IMRr2BqaLnqMlwpYNvqZwsCJX1dbYpovHsrG6I8mVhOkX0BiRjN6WWTUEkMVvcW2vPlk6ALDT6gy93LZH8k548COUP6fmFxuiCBBEKrjeA/WyN1LevdTtOfO66nnvptpeMeTNHWg17BUYPfNztt+RfseuJUOPvMYJYdYwHi91LjsGGrfcDr/dZEOsGDZ8cf/Nr4DAZEaHSrlv7GRbDLBx95WfucMhXypm93Y3kDndrcYPzvF3nyQ1lk4hi40cLq0M0IsAmgdYyHIsKRTKw/w35rliGnh82OZQhdINPVJuoduSDfRgMsdKXflgvQvyU7D2lMNJFa0istzSxpZiGvjDiODcXVO8Seoq8r5EYrtu4kO6nPACfmWTCP1FMRqIghWOCpOmkOHZqn5TIrGe3ZQ36N3Us+9N7FYuY6Gt2+hjo1n0coLX8yvK2jFBVfQ8nMvp64zLjIcYJef+wLjs2XnPJ8irZ0sXvrowJMP0v6H/2ws/djF5P7dVCyLB6fwhUq7AEJ+n7HM5eT2SZiMEYK7lmUGu0BYc7MgVIg1US0DbS0c50tRm0kYdURafbAOcQJTvFkYdljFzqswG0c9BEyuM8hDuFWwrpnAifPaZIep3wh+U4oYXBmnZu2w6NzOouCjUysso6MilLyZTxJ2s9yfg8Copawe2pyNGceoBpb/zKwniL786all9HTWnnhKkOG3pRvpB8klpQ8EQTDFUXHyvBXt5PHN7dDzmTR5vD5DiDStXE+hxhYKRBuMGCZen59/ny19h/82GGug2JJuajv2ZOo+81LqOvMSCje30f5H7qTJgR7DR6UeYIUZ2bm1/M45/GVxAk7paKTVTc7FPXmOxQlmptXiOcwHGJTNhhUMkLn6bt1hIJeO2U4WbEnFLo1agRVgWy5iMuQTnVDBjwEiDHVRDQzQQdOjzgVOm0i5b4bf5N6jLhIKfi6qQJQgD9B/pNrpG4mlhq+IFVZWLsQAUTlONabIR8/kzIWFVSI/hKD/+NRyQ3DV40Q8VPDRT5Lt9O1kJ2Wc7XIF4YjB0SflspXthvioRMdJ51CsY1n53eEc2HI/7b3nRmMZqG/T3XTw6c2USUzwhMhDgXCU2o47lZYcf5rhxzG8/Qkq5GoPgpU42Gf4vDiNPxz5y2DdHArQRcudC6yFtXoMTestOl8nyXHTQlj92Z06BAmG4ruycRri2ald7DQGs8rN+SAPDr9Mt1LCCJZeO99JdND2XKiilEjwdd7O1zsbxHKBxQZbp/F3GMhn+oxsy0YMq4wuP+QZeE952QH6HJah6cOizntMHC6Hin66iWfxM4qhDfxknuO6uIWP8/mpbmPr+nXGlmG1QXxHPlxxmQx108vX9RMbAs99P9lBAxVi1OC6R7lNPKzgV4L7B8H1kckVxrUOsLBTmQ/hO8hM/JNkG72X6+ZXXDdmy1yCIByOY3FOGgI+uvGV59JSf9HwK8klDwUtCja00NoXvJK8gbkz2Sx/b8eNP5sjOMLN7bTioispGD1kmsdSUd+me4wlGVhUaglp3/vg7TS6++nyO+doXXcidZ1+sSGwwOaBMXrV7x/mwdqR6qfvNOymO9MN9KuMO6OLOgUkwMxdQnAMdd+gUDRiYrR4c8bs3C7XYEjSJd4si7GAUoA7fB87mOx1TdbDz2WYKfeQ8HAhy6MC4rNcEpigFb65PisQyHsKIXokE6WJGpyvBUEo4Ysfu+Gz5Z9t5ZIV7fTy9V0UDofJxyJkYv/u8m+Ilp19GYWbeNCsEPdk6JnHK4aQz6USlBjspYauNcbxAJaAGpatoezkGBUKeWN5SAeIm/2P3mXEOHGaeNfKkqWofM1NIT/9bkcfjWec8XWBwx98MO7Ozp3NH8lgYINfxvTLnQNdqYwThl+GfeXDUhmOqepTUvrewtYPhOPM+7XQ5VEBwu+ZfIQezsXnvB7LxYwlKVm+EYT6cOwJOqe7lSKBkrm6efVxPDAjiFqJSFvnXwbp2Ri/q0Jq5CD13HsjZacObRlFAsG2DadRemyoZEvVADuHCtn5WfowfE5mXHPQ56N1LbU7aFqBnCwINOX+rl4QBEEQDscxcbKhNUbTEWHh/Lr09IuMn33hCPmC1Zdf4p3LyB+pHigL/iE9999MmZkChY8Pq0Q2ZRIdtAJje7eXf3Ie7wyHWADnzdM6GpXDkeuyPx+gDl/JdiAIgiAIiwnHxMnqpsMFBpZcsJ02vnRVVasJgNBoXrXB+LcaiIey7/5bDtupE2lbSt4KO4OqAUdYxFqZL6aXoqaBxeeMzmYKeJ25BbCcYKuu24OxCYIgCMJsHBkZW0J+ag4fvhOjmMtSPp2ixu7VlksNS048m5aedgEP6NV3HCSH+ikziQiTJYGCwd4XVAtuBFFzYMuD2stA9QD/mNmc0N5IAZ8z4qQnHzQuzyq9uyAIgiC4DUdGxhWNUfLNso7kWJggqANC0ptZTgAsIK3rTqJl515O/nD1JR4sy9SiL7C7JzEP24dn4qkgTlpYwIUcEifYNosw9qf6E+VPBEEQBGFx4MjI2BkNzREn+XSSNYmXvH717XUN3avpmBe+mlqPO4U8/rkxMTxer7bDJ6wmiEwLS8784SFfhfKDoEPiBCAmR4dJ1FRBEARBcCOOjIyt4cCc0NTJ4UEj4quZL0klApEoLT3lAjrm8r+mplXH/cXq0rzmeGrfcJqlFWY2xVyODjz5cPnd/LDkhDMo2Fg5RXrALIZ3nTybj1CjB5lC5m/5ShAEQRDqxRFx0hDyGz4gM5ka3Eex9qXaYgLgWIiL0n3WJbTqeS81REnX6Rfx5/rFT40epGJh/qwJ4ZYlxlbnamX1OyhO+goBinkK1MwCRRAEQRAWC46Ik4j/8OWWYrHA4mQ/NXSvqSvuBpxK453LjdD33irLJGYgj86BrQ+V3zkPQtYjqeHsnTozmS3i7OAYb4peExqivwsPGlrwWJ/eFmtBEARBWEgcESc85B426OZSSSqk0xTvXl2T5WQ2uktD02B3z9TAvvI7Z0EZO0+7kPwR8/wddkmTuCdPZ/qn6GPR/fSZeC+9ITJES305mip46clcdadiQRAEQXAbjogTOJ3OjEGSmRw38ujAkuA0sNIU8pWXbcZ6dpR/cp6WdSdS88pjLS0jtew2mgZp8bu8Gbo6OEKfi/XSZ/h1UXCS2r2HlnE2szCZrDPhnSAIgiDMJ44k/vu7E1fQp84/7i8RYkd3P0OD2x6h9Vf8rS2WEyuwhBTDluUZII/O9ht/buwachoEhFv9vJdUTGw4m8t+cS/tHNPZ7lukML/W+VN0WXCczvJPUesMMTKTNN/Zd46voQM2Zv+tjaKhgqdT3CHVnBX4XtBTpIinQGF+IQsuUuhn+d9qf13K0+JRzi2jR9EQg9hrpupg7OPyB/jVyOVHqSe5/MjEi2uoRo6/mTHK78Q1mIMy4h7BT2mZL0NLPFkKcfnNUhMm+Td78iHqzQcpzT87WXafUb75S+NYusse/o/vO9dDnu+bbiLJAH87UD7SNNPHxb9IUVlL8sVKx51NqS05ZByfQbX7gmuavkaUpZSOU/U6i8aUqvJxDz3rzrSGUpvH8z6T0rvSdUzfNyfaOmoNyTCxmQHPYasnZzyHuN+VzoZyJYpe2lUIUn/5OXSqbPOJI+LkFeu76J8uOYH85ein/ZvvptTEGK2++CrjvdMkhgYo0rLE2Go8Dawm++67ufzOORAFd83zX0Ghhsq7c2Zz8c/vob0TKoKJBw1+JC4KTtALWJSs96UsQ98/lInR5xLLyu8WiiK18cN1RWjMKHs7/xzmB81u0FkMF3z050wjPZiNGTuVSpKt/gcUncUJviRdGRqlk/1JamQx6IQtKsvVspMH+pszTfQYX8OB4nT36HQnU6Qm7gghdK8Mj3LbQvemR4YLui0XoT9nG+mZXJh6uaPUG4zMCfPRXhkeppeHRhxpP5VIshjBoBplsYb7neL3P0q20018f3KWg36RxV2O3hk9QGcFpg5rL6irFP99kgcUiLq7sw3cbht4QFETEu0sGt8SGaQLg9Vtoqj7rdkwfWmq29HsyDF+yl4VHqGX8b2ZOQWC7RrXByHelw/QE/koXZdupnEj2aU1OO6rw0P0En7mgjOaEO48BD6ejfu5zm5PN9I+Y/Jl1zNSpDXeDL09OkAn8QRw5lFx/yG+x7ifQZDL29HX5OL8F3acu9Sm0VeeG5g0rnu5ryQxdEAZN3PfcU82bjyH/Vw3pSPbVT/zhyNZiTujQbpqXRf5yjtRDmx9xMh9Y2TlnQewtJMcHqBQvInvSakM/Y/dQ9nJceNnJ+k+61KKKwSam+b7j++myaz1bpqzeeD4fLyXLuKG2+HjrlHh8P88tZSGFthqghnA26KD/LCN8QBY4Blo+Rc2g8NGedA6gTuUS1kEncf1NFAI0CC/6p1dreDO6ssNvbTOnzZSAjg1F4XYxJLc2TyYvYDra6k3ZwxeE45IIVCkFhYl6Ajfz53xJRCPfP5aagtlh4/TuSg7i+fj+T7s57oftqn9neWfpP8TOThvwgQE+JowY52+32i7x/GkAJ3+QNHcKhrhVveJ2H46jcXs7GcVdYXjxvl56OIBCBnE+1nM7S5YR7iG5PsA36vzuZ7N+gD8qp3bT5b7oSdZNDoxOMGC+FoWEK9kwTj7uUad4RrxvKC/OpHrAVL78VyU/29eFj9f42tZ7Pw1t8vZx8VbfIa+ZCMf8wSuu00sEGBVtQNMnj7G920DP+uzS4nz4pqavAVDOJweKJ17RFFwVadInd4svYrr8X3le9vM55h9fhVQxhW+DB9j0uhD1vBEo4cnPGNG/dRyxIXDkX62bypN+RnOFLGObkoM7i+/cx5ElT3w5EOGSAG5dJLP32f87CTYMty0Yi23AfVGkM6XymjGOdzQPhjrpzbM2BUP/Wg2Ss8WqidYnC+W8kOHGfl8PRY4D5aD1nLngsHhw9E+ngml+NPaBjVYTU7jDjBat8RRB+eJ8TW8iDuXL8X3cSc9TA3cadoJJNvFgQn6p3gPvZEHGLQtFcFrBQ4BAQFrwae5/l/OZYfVo17QyeK+LjQYnJq5rqxAfa7HAKdQp6ivkxUjObey4DhG8bi4n8eymHJKTOOZOB7HVygLvnJiIGk47luBpVzUh8o1ruKB+DTuX+xiOR+vSyGbO34PS/aJPty32tslno0rg6P0VX7OXxkeoQYWJbY8h3wMTNbgg/h5PjZcAKZtmYsFR9ptz0SSsoVDFdG4Yn0pvkhZLMwEO2iQaXimA229YMsx8vIUcqUOHUn+ELLeScLN7dS+4XStnUS9kynKWIgTCJP3RgZ4cNJrWH9IN1vOUOaDNu5M4/zALQTo9PFwfia+n17Gs5JaHk6sp6PDWoiqxCmX8KzzTeGD9CnM5owt4fU/J1HKGzNeWEu6kbnaoWtr4QH6DVz2f+D221KnuMKxFr41l2pfxdgOq4KqbxKOhnamgo7PE44Ly2XJ88N+vPx8wRdHFZ9iHz9tdVEBloLn88CL5RA7gH+b6gQQqJazEk1c5rdFDhgWQUTy1jitMjjmEn523sXnQT9i9yTHSRwRJ4lcgQ5MHcqGG25qpVC8mSb79/LTfehm5rMZ6nv0Ttpz9w20967rjfd2gSSA02LIaasJHF+Xn/cC8of0LBVbBsdYxFVv3Gf6J+k93LGrzNRm8mwuRI+5ZPswnEKdmrmpsoQf/DfwYPwqnsWrDgLT4OGGOdqJjkMVdJZYrvpotI9O4JlqfTO1PL2ChRpM8fV0rKrAXwDLbLBgLfHg+a7tnHCIdgMoB3wOrJgqeulwjwVzDvdKqU6Cz5/iY6uCxQmnWm+ay1FaLlADzsQ5hfsIP5WhgvpSCfzvrgiOKos2M8b4vPBpUQV+YrUAnxpYLLEEOh8WQUzUsHz7jsggNS8SgeLYuLFr7JCTJxxT2084gw488cBhzWfkua0sWHoon0oYwmXg8fuqbgPWBTl8EHQNwEHWMTxe6jr9Ygo2tJQ/UAOWoof7R6tYTop0sm+KPhjtN2aMuvw63arsXHe0gIfz5eFReh53BvUM7gsFuktYUd4Da4e3trxQGKbgVwLHUp3ZYb3AMnOKP2lYauDjUgt2+RTUC+w3KjtgYF3JaogIVTJ8TNUdOGjlzszHS+BOQqDYDRZQdRaj4BsEh3s7lnfg8Kpjo4t69aUfnsOrwyP0/ODYvD6HOBeWct/GAgWTFLdjf8sq8+TBccrPsAogjHtmaoJb3qFKSY8OlX8qAbEyvu85jNzlT2oHEWSxfRgiID0+XP7UfqJtndS8+jjSjfSa47rZOjhRYZgs0gaeCXwytt9wvNJlOO+jR7Pmgd+OVrCW/ebwQVruweC+OAXKSl+GXs8zLjhc6rLSm6ZXhoaNzny+weNxaiBJf2Ps6tAvOywRbgCl0LW+LSTYMbP4Wro+sC5j2QJLJfMJdsfo1W/RcKq+OjS6IM8hBMoFLFBexud3arnPLhx74u/rHaKp7KGGUshlDUdVsvDJGHpqky1VBmtMPp0y/FkKmUNLTHbTuGJd+Sc94Ai7fWSy/O4QaLhfjO8znJlq4d9THVqzDqeZHStgoWnlmfubooOWMSKmQf+BmAdu4jz/BJ0VmNt2zMAQ9dLyDqCF5AWBMWM7ti5NNVgQBaIGbu8LMAYuCHCOhW/ZfE08cJYRY/lJvYbhA/RqniDAmXahgJ8OHNVXee1zo3ACx0axzQPj1Dd5SBTA8RUWhpk0rlp/WCwSkBobpjS/6iGbmKTxvr1GskBHg67xdLBpZW3i5P7eYRpJH26e3+hLGDscsP1O0xBjgIdlU9ZdoeoX8iGsBOr1ZF+SlikujaB1YsunmwhyoeDHoePgi47obBY0tbQrO4l4i3QVz9rs2MEjmINb7Z5pivNg0MXyznqvc5PR2ej6QmHyeVpgakGfQ5wauwEh5GqxYs4XjrXdXLFI9/cdEhnIadO8egPflEN3Jb50BXWeekH53SEMx9k6OPj0ZmroWkXeYIgCiHXiEIFoA/k0nWBBrlCg657rp5m+sCexMPlwrF/b+XUmiBLoJqsJgEOs24h5C3QGdxAqwPTpc5k4AWu5kzN2ESlyYWDCNdmpsf1S1/LjFuCTgKWSxQKWMo+OhZ0ScR5ssRNtOgSjm8Bk4pLguLHjaqHBMHx+cNLYau5WHH3KbtszSGNl60ByaID8kcNn9R6Pl1qO2Wg4y85karCXavU7SY+P0OieZ6jzlPMMIQQBYdwJBwg3t3FXNffYlbZMz+RgMkMP9cP8WOJEf4LeF+03tpPVA8KOw4zrJhBd007s6GZxxxAUSsXyAGdOxB6wC5TfjmtASPx1ijNExJa4IDhR05bhPBcWkXf35QPUwy/8e7DgN2aMtV4HnAj/Kjhm7FhYTOB6d+WDdEBjJ8lC43a/ArtBV386TzwQhLGWay/tzFP/O52t1Eu8WSPAYi3DUY5PcyDv/8tz2MuvIX4uEW24VjBevIifw5BLrSeORIidpn8yRRctb6OlAaKxvdupde3G8m8OgWWdaPtSYykmw8ICoqR5zQlzcuOoMrj1EcO/ZcmG04yW6uXjDz/7OBXz9neESzaeacQ3mc1ffF2yPM/y+oy4KzO54bkB+v2OfuPnDd4kfTA6QF0+e3wB7sw02BCx0D6OYxFwRkAtwBQGwjuzDXRTupkeysbo4QovhKZ/IhcxthqG+OHCdliYc3WBKr+Hz5Ww2MIJ35RLebYzM5miGegwfp1qNY5dqfx44dqezoeNLZPYRojOQVc4wLENIuGRXLz8STVKDnhXhca06gmd4bZcmH6TbqVfptvoN6kWuinTTLdkm+iBbJy25SNGWHJYoSB+dHcdYKlsO9fB/oJ1/imAKKoQlCpMcb3+NNVO93E5K9W/zmtzNkrPcDl350K0hdvddekWGrSIDgvQNq/kOscSrQo4x6M5a0d2+D9dHhpX3sWHNnJ7polbWA0PiQWwyJzHg+1qRQveIJfljkyj5U5CCITzeFYP5+9aQFtc5ssa0WhVw+VPg8iv2NGmur33CT4H2rEKECZYjtW5E5gEICzEr7hP+e9UG/2On0c8h7fyPX2Q2/dT/Bz2FwJG+glMBHX7EWy6eITb+aiLxoxpHBUnGGzCfh+dHcejUaR45/Lybw4HAqVh2WojH06kvYu/t6LkPKtBgcXH6N5n6eBTm6nz5HMNq8Y0I7ueMnbu2IqxhfhC8lVI7oedQoizMtXfQ0M7tlB6bIhycNDNpGkqk6HvbdpBQ1NJI6nTx+N9Rthvu8CsbmvePX4ny7wZOj+otoSCOAj/luygB3INxgNf6bWDX0/zA4mcFrfwAzpYDFC3J2MEqdOZkWDGg4fSKikipMsZPDCi01IBZcM1PMP/Vio/XriGrdzh3JFtpHszEBceWs71pBt3BNtK72IRZObyiGHghTyYYSuvav0gdgMGka8nu4zODx0XcsngPBhY0OH3FEL0eD5miEl0a+t8aS2BgvqHM+FmhQEZ6IgTJFj8TrKTnuTnoFL967xwH7fwvYJweIxfqp24iJO5zJc4AXCgRoLUzXzvdFyCV3nTRg4wFSGPO/sI3zO0Eytgpb0qOGZErlYFO4F+zxO173Jb3lGIGNnlsTV8+jkc47a4h59DtMs7+DmE1XyV5nOIoHMo/06Fa5hvHF3WATfvOkDbe/fPcYadDZZ4GrrXUNv6kw4TFipAmCBGSt/Dd1DLMcfPcVL1Be2v+FBjCwuo6p0JItS2rN1IXadeYIiVsZ7nqPeB26jn1l/SWxNP0NfjPfSl2L66l3Jmc5mhzPUGOSfR8YHBM6XTIBHvATOILyaWERLN6YC4J8fwg2wFDJ46PgbYZqozDEBc/TC1hP6TZ/q6AZ2WsmBCqG0zYPk5HekDFAsFPyjMODG4qwT7QvyRn/OM7hYedHSKjyOj/o+2ZQdhfkBzRwI9hGXQAaJZx0entOvP+vuwLq71q5cFzyEEB6wl1kkmiSZYqPy/5BLDmqLjEYEjI4idG59D9V63RgaTGdrW0+uYYyry5uy990Ya3rGFOk4+jzpPOZ8/Pbwn1o3cqkKkpV1pEPJHYtR23Km04rwXUvcLXk0/DJ3IM+tOwxzeaKMvwzSYgdcbKtxOkH9DFST8woxTl95CwDB76gzuuHeYifssyocHBGuzqiD+iG64MBQby3F46YCZ0nqLDg8WJZ2gbaMsNn5qdIiKaoZJcy0h8N9AXs80jMR0Ou1DEHRA2owXhsa0dqToDohRPofKk9LKfTKyVKuCpJn/m2qxtDLNJMU9zy+4H8Qyjw5reZLgNl9F4Lg4Aelkip4att87Hzlzdt3+W0oND9JyHvxhdakUDM3jtz8zb3TJMj6wWgeOMmHp6ta9w/THwYxhir820eGIVkWRkEXXLeiugWp+vYyn7Iuit5zV4cuymDC/C5hR+GsQTLrAwnR9ppmQpl8VzPKQzdSMdv69qlMyauLxbNRYdtJluOCn2zJNWrO2CHeIjYrLE1EXdp4LAe55LTmijkbwJJ3pn6JzAuqRY9HOdCYXqk8r4gvpTHLgL6VrDQZ7CyG6Q3OS08F9hI5wmi8cFyctniztTRfpO5t2UTpX/0NVLOSNWCgjO7fR3ntu4g+KtPKiF1Pj8rWGAJhNNjFBUwd6y+/sI9LaUf5JDezQ+fHWvZQqh6tH1uB6PK3NQB4Wt6A7qNQmTshYj72bRZ9OlSIgUsDCJwDiSifOCcpf2zV4jNTmj3G7UL0GtHYr4YEstqrlMZxg85Br+leAdfDHc3obOOETsMSI1muNqu/GkQ6WEXQCG4b4VtbWHo8MYKF+aXCEGklt8DVGEAcqDAJAdaKGceFJfpZqeQ5hx8EzrGNFRh9STwgLp3BcnMBZarLopWTfbtry+KN0YNujNN67sxTKXgGEn8fSDbYiDz61iQXJjUaSwL5H76JANM7C5CojhHy18PH7H7nTiBZrJ9ieHGxoLr9T44dP7KEtg4euGc6fz/EM1YkuF8G2SvPghUfn8cLDi7gMtbIvH9R6KOEfYrm+zL/WqUl4+QdrvAbkY9nFAkXnhGYPMKw+qoM/QJ6UPk2T8Eyw82ZCY95pWH4UnMFxn3RmnUcy8JWyEtQzwZKG/hB35IBrX+9PG07hC4XxHGr4FiaKPhqs4zmEE/SERi4q9CFuTMnguDh5jjvb431J+lBoH0V2PESDWx6gnntuYoHxBzr49Caoj/I3DwdJ+6YG+2jgsXsNMdJz/y00snMr/8ZDTauOpeXnXs7C5EoKNUIkzH38IGrG9j1nJBa0m2hHt7FFWZX79w/TL5/ZT/nDrtVjLO3MDMRmF/AId0vALZ0MqriL9TwkyJCqkyAOvhJW6e8xJOrkdcHRzI9YHZwLDrKqoKbMyobfwHKiCtzidLLBzgZBAPfk1IP9417XmghQEFTBhOHy4JhS3h0HumPD0tWs8RxiMo9nqVawxLqHJ2qq4PsH6hBDTlF7DSiCbYelbX2RUuCm8t3HTpemleu5Jy915chGjFgoE/t3Gz8Pbd9C/ZvvpnwuS81rjqdlLEbWXPYKWnXxVcZWYeS0CUSq75ZBrJP9D/0ZKqf8iX3EOpb/pdxWIL/QVx541ljWmc2uQpgOKm5N1CHP9azrlOkUOunH0TTqmefhTuvc7TSfELFGzIBpFRYF1U5Ltwz1AGFr5qMyPfgrNlVD2I1riLvZQOhhp0+V+cYcUKxaHKAFdXBPVNtuLTh7dPvArrbLFTKSo+9Ubb+qwNKlE8gRkyydSd1sJnlYvznTbDioTxa8htip9trNk4n/SrXRnhr8W5zGcXECsB/7s5PL6ItT3XRtsoN6m1ZQy7oTyR/BtqciZZMJ2vfAbTS6+xmKtHSwKLmHslPjhmVk2VmXUit/N9beZSpGZoJj9m+6mwpZZ3IsIGePCul8nj5x91OHLefMBhmE7X68f5lqpSEHRE8tjPCDpvpYYrDVzVUxk3aeGWF3iiopLpuVRwbmOzoCEkKm1lT5mGFhW59Fkf4C2o2ZpQjipFVjLRkdWT0zNpQHlhfV9oxlvMYj1HKCeagbTOUJvqdOlQItz4mkmBA8qok5VUHckr8Kjlpa6uC7phMXRQXUkU405FF+hpAmoXY8hv/dWyaOoVePr6NXj1V/vWtyNd2ZRRgAe6/ZDuZFnACY0DflYnQjK7oP74/Rpt09NLz9CRrc9ijtueP3NLHvOQo2NNGBrQ9T44q1tPTUC5TFyGwSB/tZ6DxdfmcviFmCclqR55H2B0/speu295s+Zv/NQkLHumAFZtI3ZZzLJ6QLGpjq1SFuCR7MWkAXfLI/oRzZEeyFj4pF6fBbOM6qglkPonfUAgJHnYWYJOX3VmBteg98VKqAum/UWtZBoLX6gOVF5xiI/3AkgsFVxzfEKRJ8T53yOoH4Cnntv0YEEUPoNLvBjpkXh0aNvqIa6D/Vn5iSE7lVDUCcwFdIFSyv2i2QFiPzJk5mMp4t0Gf3eozoi4ga233WpbT+ytfTkuPPMJZs4h3LK+68UQFRWPc//KfyO/uJLV1hCBQrrn+un/7tsV2WVoPhYqAua8Fs/iPZ4apQxDop23NcD3gwawGOn+drJJPDfekxTJnm58PsELN71VJhmaiWwQAd/YX+CWrXiBY8UfSa5nmBUFPf+1PyGbGnU1Q7Br51pDq6wiladfaPb6kOxSFui6q2KXwLljX1FqAHHJoR10cVWEZVS666s0UHLG++MDhuZOiuBq5Hp/csWS7NC4ulS0RiVWWy4Aab28KzIOIE7JnM0KefOEhbsyEjt04w3mSErEfYd6MV1cjBZx+jzMRo+Z39NC47xrLrvWFnP33x/mdpIqPW5ejM9s1Agra7jHDo7kHn2tDZ6cwwAEzACJH/pshBWqUR7hqhoXsUnMYwy0IwJ1XQCakvZJWWcjpZWF0dGqFXh4cVh/US2B2DoGnVQM6emIZlomRFqv3ZqwWVDgj3QGcmDUF8TayPvhDbV/fr07Fe+lS01/j5Q9E+WqcYcRTDi2pNosWrLqfhW6rdI3wn4LtgT+8yF5RF5+gIeagifiEOnBCtOHObN0evCx+s6hyLPkjVjwbfGi9Y3zfsQAxr9AlO+wktFtSeCIfYMTpF19z1FD3cdyhDbz0gKNvwM4+X39kPor3Gu1ZW7R3g6/KHHf30+XufNSLjqoCoqHas2yKP0TcTS40OwE3odDLo6BBUrJvFRrUXcl/AL+Ns/yQP6MP0nsgAfY4HkIuDk1qzrQFk9lRwAsMhdbJ2IucJMqKeF5iY87ooME4v4zK/gl9vDg/Su7nsH+EB7wvxffQWFlc6EYNxv5/IIq5I9UfY6BQ1xJ7OTqf5RidfSIC/e5I/SacHEnW/EMDr3OCU8TNSQ7wuNKQ00KDdqxYZd6hgo/V0GhwXTo/qLUCP0nKFeptV/6YeCB+geo2o5bP4nr6MJwOVIsfqJM/DORESwgq0BZ1JWume2d8eFhsLKk4ABMoH/7yV7usdmrXVVo9CLkcDWx40duk4AguSFRf8FflDkfIHh5PJF+jn2/bRZ+97mgYS6o64SH1vRztECHdkr3QbOl7nUX6AP84z3v9o3F31dW3jHvpWw176THw/vZ0H9BeFxqnLZ+U5cjhoZZu4rsysDtOg+0JnoQryxVwT66dP8nXMfn2MP38bl/mt/HpVeISuCI3RhSyqkEFVtwkMF/2W9xviRMfvwWrnklDKZ2T3rB7dnsogB3CHVO8S7jySILoF5KhSsZzA6qTjEIts0RMKFoxpSs6xY3S6f278K536BSoWLwgenbugE7L+SMYVtdAzkaS/v+UJ+tXTvZTK1eYIBefahAORYKdB4sJIa2f53eEksjn68gPP0hf4NZTUE0crvfXvKIJT1j9OdfNAqvNYzQ92+tPYgdFhc0f2J4RaV6gv1KnbLAoYzB7MxIyMpFbo1L7OEpBdqAxBMPPr5EdxEszS7Z7+wBCrGnywNNCp1Jr7wDWqlB1LKzqienc+RPfn4lq1AislrCdxjeXC2eDZUokeDaufjqdCKaq21dWU0hjEKUcx/hfWvFpfbl1Eco1EG8vk6GN3PUWfv/cZmuSfdUC0WSOgm0MEYo207KzLuIHNbWH7J1P0ThZWP36yh4WVXgfa4cnSh3k2Xe9NQE6Z3QoD1UIw7rJlJjyH92Qbys6w1uCO6lhO5oPBop/+kGkxuhU7CWkMCNXQPYJKgDsYuVVS2M8HEKoZhTLHNbZw49JULw8DiUuqwnD0hLVTFafKDWvMLekm7W3wG/wpel5QLVJ5NdQ3zqtjFbgev9voS9KX4vvoF8076ZfNO+g3Nb5+3LSTLgwgk737cFevy/zimV567fWP0N37hsqfWNP3yJ+NXTpO4PH5adk5z+cfDr99WMb5FZf1lb97yCirbhNd4s3SV+I9dec0wNa37yWXlN8JZuAeYXfL/6RalczLbgSz9t9y+bGMZzc6Ia8rU7Iy6Uh0+7t2Z8FWabstJ6gD7FQ70lGxBwBs3dfZBQSL3858iP6smfAO1pkXBseoYYZzLMSG6p3AtegvyFqDXXhm9XSSL2E4fCOHWr1nh+XnjeEhY1OB23CdOMF2MwQte9/tW+hTdz9F+8aThqNpNRDPZHJgX/md/bQdd4oRAG4mjx8Yo/fctoU+fc/TtH8qrfTAzaTdk6VPxXqp06uTmL4yf8408kDlTqsJwK3TrR+nGC/46P+xkIPlQRWUHULGDdeAhGA3pJrpFr7n4jC3MJTagr11b/icOCBOcMSFWKqrhqrPCeaBOssgADGSbs400Qg/46rgFCt9GXp+4FDeHSSY1Dm1Ez49pRJUL8VpgSlbE/VhB9MKG9wL7MZ14mSa4VSWfvbUPnrt9Y/Svz++h/qnUnNESjY5Sf2P3Vd6uh0g0r6U2jecbjwpOPf2kUn6/H3P0Ntvfpxu2X2AkjVkWW5mlf7BaD+t5YdC9wGcDQZbWAHcDBxi9Rbp7AetA8mw/oOFyX05zK7UKx4dBaJGLjRTBS/f6zb6UardCGioAsqu82TUEx32aAEiQv+pNwf3yG7BM42bLDJ219s0ybJAQEDCX6daDB88VbCL5sWhMWPCCFBbqjWG06hckxHfRaNMVpsI8Fs77yrqYInPbntg/bi6N8JNhbPsPz64nf6WRcq1m3fTDhYIuUKBioU8DTx+H+XTyfK37cUXilDX6RdT3uunJwbHjLglb7pxE/3nlr3GbhyNtvYXEH/hPdEBOiVgT5lvyzTQQY1EcQuBzsPuBOg8EAn2O4kO+nO2sfShBhjedUzMdoNnYH8+YAir/0m3kY4nP5yRdcJg2xGp2Kc581xslGb+9l4hfIdgVbAblBJbfd1yPxDRuJZ+04rpXWa4N7dkmmhrDl4b6iDvzuvDQ4aDqQ6we6sIenxH58iIwWRG/cuvh4OzLfz0ay6uFifToKHtHE3Q1x7eQW+4YRN97M5t9OjWrTS2Z3vpCzYTbOmg4OnPp9uG8vSu256gN92wmX7AomT/ZG2iBGCAe1dkwIibYBcqnuILTdirF3HRTjDLRVC6L01108O52oLT4cFdiJ0iaGdwxP0TC1DkpLo1i91FehjDkuIf4Wv1LzIWjWi6OpE1dGLIuAHde6ACjumexRfnmI/lUYTr/0O6WWuXIOKaPC84Tqdz36xTQtVvooXrXLfVE2H3DkiUzen7UguLQpzMZGAqRft3PUvJJ+8rf2IfWY+Pdi/ZQF/Lr6W/vWsPvff2LXTr7kEaSddv8np3tN+IaWFns+p3YZrr2cCsjNn/fILz7csH6J8TS+nriS5SCbZWDdgBEvM4r0BVofy7ckH65lQnfSvZpbRluBJwl1O1nOBbduw8gAjX6VSC9vazjoLlgj6NVPRuYBFVr0146JFcjB7OxrT6HQTue21o2AiiaDewiulYJeufJOiBgI52W2PsYNGJk9eGhuhj0T6tbKsqPFeI0AcmVtC7txfolr1D1F+Do6sZCPhjZ5Pbko3Qb9It5XfuBSpfxQnODnC/EMPkhkwTvW9yFd2fReyD+s6NY85HZ1Equ4e2ZcP0s3Qb/d/JlfSAZuyGerEjQ7AbFhFGuQ3cz4PTfXz/7Xrdy6+fp9ro5oz+0uBC0sj95MLfkfkFS58/TrVTn8bkDXWEAIqIPL3QzHembkxgRmpMuOoki0actHmzdE10P/1NeFgrlLUVGMz+K9lGHx3vNmarTgwGCLtu5xIM1jC/lejkQXOR3D7F+4UaUnE4xD1K8kDemw/QtlyYHs1G6YZUE31psov+YWI1fT/ZUXYqWxzdMtaYr0100N9PrKFPTi2nX6RayxFD6ys/1uJ1TMB2ZNFF3JL57Vrnsisfoq9OdRvLeXa9vswv+Py4LT2EGfU63C9mIEyuSzcbQfNUwfLOUo3Em6qk+ZnQmeAg0N58gtQJbowOvQhGt6KRbOuLsX1G1lk7gzE9xQPb56aW0a/SGAyc63SQa8WujgJe399mYdJfXFzmZRXwgPw7C4uPTKygD1u8PjK5gq6ZXE6f4Nen+R5em+qk+3MNNFREtqKFe9ASfA2IU6ADgp8h3wdEJ7ZE2iWq0MXpCFg7wrKXxoKFq3+cfz58GxYD6CuSPPk6OuvCYwRbfDpfOd3IfAKxrvNklfIyVb9rdt9PjE06ecnmC1eLEzgivig4bmQGXeHL2laB2Jb5y1QLfYFnQ9u48Tpt+ETAtWdZCD1jw+v2TKOxXHEkggcYO1PQoTxl8sLvdxXCLEQCtg7mdoDtjIg9o9OBoPSn+BN0ZQjZtO3tenSOhoif8z2UqVh20C7yGjM7BIKb36uYS05ToKoCsak60KEO4EvgVF2g39TZtqsKfCDssL6N8kTlj+km2x1Ia0GnmrBryKzE8EHr4X4S9WQH8DVDGHu34VpxAi/+N4cP0tsjB6jNpnVTOEjtzgcNM+1PUu00phGMqx5+kmw3Zvd2vK5NdjgupuwENaw6j8Uj6UTExXpA2UMaXSWWY27iDrEnp+esDOvJ1aEROs5IyW9Pr4OBTKdjxqJmveIE16F6DHwrpdAFwSSu6tgLa0HauGsLi9V20FrBcVWff9TBhIMWYTi762xVVwV9AJZC7AAJPp/ILaz1BPWU1bieqNdcnGzha/rs5DL6TrLTiA4++/Xv/HowGyt/W5WFfmLm4lpxAr1/ZmBKK+W7GfCWvo1ntJ/hm/p4PspHd6bzqAR2eyCSoB0v1QBcbsHD90+1pvE9t63oo/QZjVJh1jNQCNCPUku0Byg4eUOQo3XaAWa1Ol74cU9eKxtsJZBITfWqcSa0abtJF+bv2XYzqN9S7qKjtz7GeQJ6Q7rZ8GVbKNBn68SxCfOds7J3YVkfMV3+kG6Z87qerxexnVSB+LdLDNqJa0c6DOiwbthhbBoq+OjfEh307eRS1wctO9KAH4mqDwi8RbC04DZ0hmtYH3C12M74v6kWLdMr/u5Ef5JexwLFDmM8ZMJwQX2DcJxnbPX4naAzWe7LKC+/wsox7kCneDQ7ggpzeSwXpZvTTVpRWu0E1ksdEd7qzRkWyFqB5bJR4znGhATxqNyGa8UJwF71njp30GzORumjkyvolhqigwqCLnigvNyxQBhgq/c2zWiVGFivCI3ROf76g/WhDPuxnVKxAFH+C+TZqBUsxZ4RUN8yj/LZvYUR9YedcaJPhGmwtfi3/CzuKzizG9MKLDMOaYgTbCWuJzghrrLdqx6bC3WCHTtuw9XiBM6O30521qR4sYzz/5Lt9JWpLuozgnBJd7UQIMOoqg8Ctoi7Leotyt5A6gM28lRMd4HwP8H672BefQBGK8Ws6a2RQVrthf9J7aAmBzUGf5wXs7ZaQUwNnU4RZ3IikCDSRMjTLsxkuOinn6baFmTLLJZNkNtLFbTfhjrieKEPXarxHGKsRDRqt+FqcQK258Pas8+nc9gi3E2/Y7U85TovhqMLvxfrp+rUoEMdBw+JapdW2mkw/W2Psavof9Kt2v4nnb4svSlykJrqCMiEBSYs66gCUbW65tTpRVrjTRvr5arAURDJK+0EtQxBOf9DkOBm0CIeysbo8axdHl06QJyoi3BkRu7w1D5JWMp9R5vG38Oyg7xHbsP14gQG2n9MdNE3pjrpnxVf2I3zWC4mXdQiwxisXPiQ6DDJUmy2EMHW4jszDVrhtHEERBW+KjhiDLa1Msidoqq8geXqlEDCWN7RBRayCxDPp/xeBWz5PThPO+YEATuLfskT1lGbBbEKsBCqBoRDMESEFqjF7wx/c7p/isI8KVQFTsNO+H7Vi+vFCYBJ7k/ZJuUXvi8sPkpe44tbUGIb5OyFKXjrI9AfIpfqgICDSOd+Zh3+J8MsAHT8Oo71pejS4ET5nSpFOpE70/ORO0rj9o1y2ZzYrSMIlfHQU/ko6SYGtIMD/AzqhK44PzBBa42wAnoc60vSxZrPL6yrmCi4jUUhToSjA1gWYD1ZzGBNu5LFDn5PP0+1UkJzm2uzN28s73TVuNyCqLM7CuqLLfA7eUV4mNZ7k/xO5a+KtJLL9qbwQe1t/8M8g9UJ6y0I9YIW+jsWJ4/M8/IOAsIh3YYq7b48vTQ0avifqNLqyXFfMUSdmn5j/SxOnIhXUy8iTgTXYFhOFnmTxIys2l6RR3Nxujmjv6VxlS9DfxcZJF8NHvzwf0HuIZ0lpaXcuX0y1ken+uHSiz+cfoFD77H8c2Fgkq6J7ae1fj3xhBgsz+XD5Xf2gZLhmqdLezSDVoigfhcHxmt6YRZ+JNZkmp+kO7KN82o9QbyZZzTaO0r2vOAEvTU8aMQOOvT8zQafF438be+J9huhCHRAv7Ajh8mL+8SJL37shs+WfxYE21nGA+slimZGJOu7jQdvN6Xvxhou8t6s86fLn5izJx+ke7MN5XeHA9HSw78/1Z/QSs2ObgPe9xmun6eNDk6vI0lxfV4aHNeKnRDxFOgivm/nBSeNRGTtXN5OLsNaX5pOCyTpteEhY5aG47bUECMBidl+lGpXWtbBPbiMy6I6I8QgYEdG6nro4Lq6nOtGZZkLovxBLi/CkluBrd5YdlO5l4g3s57b7YV8D2t5oZ0+zIK62vOImDi4/02K9x9pJzbnovyTeaUgGOAL+LiqMXeezEXoiTyOq84Bbn9dfI/WaIrqmWAJF5MN+GxYgbaIaReWXFSnX6ilNfy84RmE4MZz0MB10sz1AyvJMhYkJ7AYeSM/i3it5r5WN8YPrCa/SrXShBHL212I5UQQ5pFB7sh+kFqiPWsL8NdfHh6hY7xqIukQHsMZryRq1EEnh23R67hzfGvkIH0s1kefje/nf/vp7ZFBFmwlgVVLIk7saLqLBZwT24gxE4TDo7oME6rRxPe3nt1ibgYW2v9Nt1C/xjb/etmZD9HOHFzH1YHARF65d0UO0Jfi++ir8R7j9RX++QvxXvpwbIDOCU5RDCHvNZ9FlAMTKbcmkRVxIrgGzCAXe1dYChduhsfIjYGgUDpJ09DvYMYEYdDmUY9hAFCvt/EMzy3OxrCa3JGBdcmZ8iBfz+ITJ2p1Ab+e+ZJeaDeIgWEXTpW61uPuLoSMcO/19Dk61jlYoO6AVbWGAkN4YItxA4sQvBDNGZOHWu8OioAYSEjp4taoQCJOBNeAGfVid4hVedDR6f861WqY8rW2F/OhNwaS9JrwsHYW0cdZEOnuFnICCDLkBOk1AiPaD2q/ybXdbWXQHqxFbQlkal+snfZkwX7RiOMlaqwRLLPeyWLh6WxtiQGxzKqTswfnu59FuU5gRKdAv4OcQ049h3Yg4kRwlMXuUIeuB0sqdpPiIyNiJbYY6oCiwJfhRaExLfsAZm1uSB+/Ix824r445Q8CAYfomgt7lXpgh5dqnAlYTuar00bOFTtzXZVCPNh7Z/AE1BMbaYT/9tfpFuUYJDOBhU43YR7i+tyQadaymtoNHPIxUcEkoZrzvhsQcSI4SqPGDN/PHS9ebgIPSIOG4Vc9cZ6H9hZC9Jt0q7bpHObcvwkN00ZNz/x7cw30SBbBCecfnHOCZ84QZE7GIUJNYvvlYlzYUQHPx3wJfrR9tDW7cCLxHg5ZnxT1GIkB7882zEtiQIgBTBIQ+Xw+zjcbnHKMBRmc0d0YeG0mIk4E1wD3yIVJzWUfmNnqDB5Y88XOEl3grPjm8EFq1ghTjZgnEAc66dTtAgLsx9whYiBwmtI9WFicEkfzuekTCSzNdgWhHE6VZT4HJsT4+Fmqdd4Ga0SR/kGyXSsZoF0k8BzyuVV2TS00Ik4E14BZIbawLmaw7VbHYRHJLf+HO0adAE0A3cp6X4reET5AEQ3Lzt5CkL6d6KR+zfPVw3jBa3TGRoyXGjpECNawRruAMFjobhdOi6qgrKodsV54rfpAptq0SdBA3BO0d1VUraIIj6baplG6oIZ1tjIeI2PxdWm95RajnSle02ywrfq7/BwOzWMofexi+36ig24zMvQv9BNijYgTwVF0BhU/P+w6sTjmA3RAca/64I+OUre7gWBAeHtdfxDkwjk3OElXhkbLn6jgoWfzYfpqooueQvAlB6sbd35nPkjfSCylGzPNhkm7FgLchiKKAxAuB7FT1O+Y/cByhkFb9Wp1RDmcZ+frCUFCOLOYQ3i2dSQu4peoYBxXcWTC19SXUs3w0B+5jeoEBsSmYPRZtQD5/HAuRt/kZ2OH5vZiXVA7z/I5vs7n+hMLEzf7mcxExIngKLAMqD54SNuNkOZuAg8yyqV6Dft4MNYNBY2O6u5MA/1ec+YGgnyqMwOJ8js1cD6seX9hqtsIqd+X92vtGrIChxrj+3hrupG+zOdAIK96bBk6f4vrQDyJheyAcf2wOqhWKb6neo123icrYDWB02c1MOjpyALVe2IcV/E6jbqzqU4QYh7PoGqKCZSz3na9mQXKl6e66HepFjqI+Dw23l8cC9YS7Mr5SqLbONdiESZAIsQKjpLkgR3J5Bp51oSZ/kyMjqX0o9EZPZCN059Z2btprwXmejnuoBEWGssLCIo0k5nXMFbw0m/TrbRPIdLnbDAjfrYcRrrLl6l4rtmgzqa4bKg3ZOHWBYGotuSjxgwOW1mxyyXIs1AEVtO9AygLgp0j8iZCg/8s1WZYSyZscH7FPVjuyxoRYrFkhnqpVD5sRYfo+lFyCdfLQopcDyESzQn+lGERQUmwiwjtBAMayj5dfnwGHyAMIMhDawX+bgMfF341mLXrBt5SBXWJdnUX30u0zUogQuoyvi/tnpxRlun2Whq0D79GtC8EPUP7sALnW+bNGlFQcb9xjTjWtBCaWRqI4Otw3KI9y5QIDNjE9wyRWaf7K5QfL/CXa+IPsDRza6Z+SwTa6qZclDZnY8ZkDn0lHJFxft0j4zmEb9lAwW/0pfDzwq4cNyb2s8LTedXV0/UuCI4Q507mXP8ULeWObCZoeNhGiRThUzyw384Pkx2Dmf0UaYU3Q2cHpuaY39GJo3NC5/wMd1aPcidTz2wK52rnQfg8/yS18L84VrUHFOH+EQ7/ERYXdgg62BtO8yfoeBZiK1ggIQQ7TOYQStVKkeBOD5YKLE09w+IK8VTQwdoNzr+K7wGyH6Pzni3cUP8YqO7kNuSWrORhviuoz+Vcl1iuxMABQYh6RjtC9FXE6Lgr00DbNMKvI8bNRj7uGj6uzrKpDohJAmftSa5ZM/xcFuTvwQQEUUrRTLBNHkMhlrawcwq36nG+Plyn6kCO4x7Px4RfVYSPi7+CUzWOi2uGIzg+hYP1PdkGWyc08He5cEa6BDzjWb5PEb4W45r4zCPcxm7n+kEgN7tBzqozua9Bna7ke7yEy4FrRrupBsTHDn4O0R9s435oay5ilHkxI+JEEARBEARXIT4ngiAIgiC4ChEngiAIgiC4ChEngiAIgiC4ChEngiAIgiC4ChEngiAIgiC4ChEngiAIgiC4ChEngiAIgiC4ChEngiAIgiC4ChEngiAIgiC4ChEngiAIgiC4ChEngiAIgiC4ChEngiAIgiC4ChEngiAIgiC4ChEngiAIgiC4ChEngiAIgiC4ChEngiAIgiC4ChEngiAIgiC4ChEngiAIgiC4ChEngiAIgiC4ChEngiAIgiC4ChEngiAIgiC4ChEngiAIgiC4ChEngiAIgiC4ChEngiAIgiC4ChEngiAIgiC4ChEngiAIgiC4ChEngiAIgiC4ChEngiAIgiC4ChEngiAIgiC4ChEngiAIgiC4ChEngiAIgiC4ChEngiAIgiC4ChEngiAIgiC4ChEngiAIgiC4ChEngiAIgiC4ChEngiAIgiC4ChEngiAIgiC4ChEngiAIgiC4ChEngiAIgiC4ChEngiAIgiC4ChEngiAIgiC4CKL/D+IfQFHUQk+uAAAAAElFTkSuQmCC;rounded=0;" parent="1" vertex="1">
          <mxGeometry x="638.63" y="848.73" width="133.68" height="53.62" as="geometry" />
        </mxCell>
        <mxCell id="V_rxERyLcr9hmnywlNJD-28" value="" style="shape=image;verticalLabelPosition=bottom;labelBackgroundColor=default;verticalAlign=top;aspect=fixed;imageAspect=0;image=https://miro.medium.com/max/1400/0*pfnMxVaNmlH0uz_t.png;rounded=0;" parent="1" vertex="1">
          <mxGeometry x="500" y="505.54" width="85.95" height="64.46" as="geometry" />
        </mxCell>
        <mxCell id="-czxyIKFuqTJFSKeoeac-21" style="edgeStyle=orthogonalEdgeStyle;rounded=1;orthogonalLoop=1;jettySize=auto;html=1;exitX=1;exitY=0.75;exitDx=0;exitDy=0;strokeColor=#B3B3B3;" parent="1" source="V_rxERyLcr9hmnywlNJD-29" edge="1">
          <mxGeometry relative="1" as="geometry">
            <mxPoint x="830" y="970" as="targetPoint" />
          </mxGeometry>
        </mxCell>
        <mxCell id="V_rxERyLcr9hmnywlNJD-29" value="" style="shape=image;verticalLabelPosition=bottom;labelBackgroundColor=default;verticalAlign=top;aspect=fixed;imageAspect=0;image=https://raw.githubusercontent.com/pycaret/pycaret/master/docs/images/logo.png;rounded=0;" parent="1" vertex="1">
          <mxGeometry x="638.63" y="952.29" width="165.77" height="23.59" as="geometry" />
        </mxCell>
        <mxCell id="-czxyIKFuqTJFSKeoeac-12" style="edgeStyle=orthogonalEdgeStyle;rounded=1;orthogonalLoop=1;jettySize=auto;html=1;exitX=0.5;exitY=0;exitDx=0;exitDy=0;entryX=1;entryY=0.5;entryDx=0;entryDy=0;entryPerimeter=0;" parent="1" source="V_rxERyLcr9hmnywlNJD-33" target="usIRA-kO4V7hB5ve2QcD-1" edge="1">
          <mxGeometry relative="1" as="geometry" />
        </mxCell>
        <mxCell id="V_rxERyLcr9hmnywlNJD-33" value="model&lt;br&gt;metric" style="text;html=1;align=center;verticalAlign=middle;whiteSpace=wrap;rounded=0;strokeColor=#999999;" parent="1" vertex="1">
          <mxGeometry x="817" y="845.94" width="80" height="60.06" as="geometry" />
        </mxCell>
        <mxCell id="-czxyIKFuqTJFSKeoeac-17" style="edgeStyle=orthogonalEdgeStyle;rounded=1;orthogonalLoop=1;jettySize=auto;html=1;exitX=0.5;exitY=0;exitDx=0;exitDy=0;entryX=1;entryY=0.5;entryDx=0;entryDy=0;entryPerimeter=0;strokeColor=#000000;" parent="1" source="V_rxERyLcr9hmnywlNJD-34" target="Q9xnJySd4TzFd6jFLzlh-12" edge="1">
          <mxGeometry relative="1" as="geometry">
            <Array as="points">
              <mxPoint x="937" y="810" />
              <mxPoint x="977" y="810" />
              <mxPoint x="977" y="634" />
            </Array>
          </mxGeometry>
        </mxCell>
        <mxCell id="V_rxERyLcr9hmnywlNJD-34" value="predicted value" style="text;html=1;align=center;verticalAlign=middle;whiteSpace=wrap;rounded=0;strokeColor=#808080;" parent="1" vertex="1">
          <mxGeometry x="897" y="845.94" width="80" height="60.06" as="geometry" />
        </mxCell>
        <mxCell id="-czxyIKFuqTJFSKeoeac-1" value="" style="shape=image;verticalLabelPosition=bottom;labelBackgroundColor=default;verticalAlign=top;aspect=fixed;imageAspect=0;image=https://cdn-images-1.medium.com/max/1200/1*r5KdIfHXaz7UQM4FmZ0D5A.png;" parent="1" vertex="1">
          <mxGeometry x="190.2" y="492.96" width="47" height="47" as="geometry" />
        </mxCell>
        <mxCell id="-czxyIKFuqTJFSKeoeac-2" value="" style="shape=image;verticalLabelPosition=bottom;labelBackgroundColor=default;verticalAlign=top;aspect=fixed;imageAspect=0;image=https://www.mlflow.org/docs/latest/_static/MLflow-logo-final-black.png;rounded=0;" parent="1" vertex="1">
          <mxGeometry x="749.96" y="902.35" width="101.99" height="37.46" as="geometry" />
        </mxCell>
        <mxCell id="-czxyIKFuqTJFSKeoeac-14" style="edgeStyle=orthogonalEdgeStyle;rounded=1;orthogonalLoop=1;jettySize=auto;html=1;exitX=0.5;exitY=1;exitDx=0;exitDy=0;exitPerimeter=0;entryX=0.332;entryY=0.014;entryDx=0;entryDy=0;entryPerimeter=0;" parent="1" source="usIRA-kO4V7hB5ve2QcD-1" target="V_rxERyLcr9hmnywlNJD-25" edge="1">
          <mxGeometry relative="1" as="geometry">
            <Array as="points">
              <mxPoint x="790" y="668" />
              <mxPoint x="790" y="759" />
              <mxPoint x="683" y="759" />
            </Array>
          </mxGeometry>
        </mxCell>
        <mxCell id="-czxyIKFuqTJFSKeoeac-16" style="edgeStyle=orthogonalEdgeStyle;rounded=1;orthogonalLoop=1;jettySize=auto;html=1;exitX=0;exitY=0.5;exitDx=0;exitDy=0;exitPerimeter=0;strokeColor=#000000;" parent="1" source="Q9xnJySd4TzFd6jFLzlh-12" edge="1">
          <mxGeometry relative="1" as="geometry">
            <mxPoint x="722" y="850" as="targetPoint" />
            <Array as="points">
              <mxPoint x="880" y="634" />
              <mxPoint x="880" y="770" />
              <mxPoint x="722" y="770" />
            </Array>
          </mxGeometry>
        </mxCell>
        <mxCell id="-czxyIKFuqTJFSKeoeac-25" value="" style="sketch=0;points=[[0,0,0],[0.25,0,0],[0.5,0,0],[0.75,0,0],[1,0,0],[0,1,0],[0.25,1,0],[0.5,1,0],[0.75,1,0],[1,1,0],[0,0.25,0],[0,0.5,0],[0,0.75,0],[1,0.25,0],[1,0.5,0],[1,0.75,0]];outlineConnect=0;fontColor=#232F3E;gradientColor=#F54749;gradientDirection=north;fillColor=#C7131F;strokeColor=#ffffff;dashed=0;verticalLabelPosition=bottom;verticalAlign=top;align=center;html=1;fontSize=12;fontStyle=0;aspect=fixed;shape=mxgraph.aws4.resourceIcon;resIcon=mxgraph.aws4.waf;" parent="1" vertex="1">
          <mxGeometry x="1430" y="1050.6299999999999" width="60.19" height="60.19" as="geometry" />
        </mxCell>
        <mxCell id="-czxyIKFuqTJFSKeoeac-28" value="Client" style="sketch=0;points=[[0,0,0],[0.25,0,0],[0.5,0,0],[0.75,0,0],[1,0,0],[1,0.25,0],[1,0.5,0],[1,0.75,0],[1,1,0],[0.75,1,0],[0.5,1,0],[0.25,1,0],[0,1,0],[0,0.75,0],[0,0.5,0],[0,0.25,0]];rounded=1;absoluteArcSize=1;arcSize=2;html=1;strokeColor=none;gradientColor=none;shadow=0;dashed=0;fontSize=12;fontColor=#9E9E9E;align=left;verticalAlign=top;spacing=10;spacingTop=-4;fillColor=#E1F5FE;" parent="1" vertex="1">
          <mxGeometry x="1160" y="447.38" width="360" height="245.54" as="geometry" />
        </mxCell>
        <mxCell id="-czxyIKFuqTJFSKeoeac-29" value="Server" style="sketch=0;points=[[0,0,0],[0.25,0,0],[0.5,0,0],[0.75,0,0],[1,0,0],[1,0.25,0],[1,0.5,0],[1,0.75,0],[1,1,0],[0.75,1,0],[0.5,1,0],[0.25,1,0],[0,1,0],[0,0.75,0],[0,0.5,0],[0,0.25,0]];rounded=1;absoluteArcSize=1;arcSize=2;html=1;strokeColor=none;gradientColor=none;shadow=0;dashed=0;fontSize=12;fontColor=#9E9E9E;align=left;verticalAlign=top;spacing=10;spacingTop=-4;fillColor=#E0F2F1;fillStyle=solid;" parent="1" vertex="1">
          <mxGeometry x="1160" y="714.46" width="360" height="129.64" as="geometry" />
        </mxCell>
        <mxCell id="-czxyIKFuqTJFSKeoeac-31" value="" style="shape=image;imageAspect=0;aspect=fixed;verticalLabelPosition=bottom;verticalAlign=top;fillStyle=solid;strokeColor=default;image=data:image/png,iVBORw0KGgoAAAANSUhEUgAADwAAAAhwAgMAAADt0CPhAAAADFBMVEVHcEwAAAAAAAAAAAALttw0AAAAA3RSTlMAS7e8/nQ/AABaUUlEQVR42uzdPXIbyRUAYAIugQGDjaRACHgEHME4glxlbqC9gRTgCMQREGiDzVeBoCozdwIfgYEPgEAKtJECB6ZKYnutXa8liuBPY4Dp1/19uVQEeh7fz7wZHhwAAAAAAAAAAAAAAAAAAAAAAAAAAAAAAAAAAAAAAAAAAPRk8PBkuVz+LX329+Xy1clfpr4ViODk2TJdY/lKEEPhqfdkuUobXS5PxDCU6uGzG6L39xh+9VffExTo+9fpTn750XcFpYXvWbqzD0IYooavEIaiPHid7u0XvTCUYPA0ZXk59d1B3x6dpUwfXvj2oN/0+yxt4ZUkDD16eJa28uGJ7xD68nSVtvXStwj9lM/PUwfeKaOhBw/OUieU0bB/o1VKIhhietRZ/KZ06X4S7NXj1KmffaOwP09TxwyjYW9+SJ1761uFsPErgiFy/IpgiBy/Ihgix68Ihp17nHbI3STYqUdpp2x0QNz4FcGwQ6PVrgP4cuFbht14sPP4/TWCn/ieYRcGs7QHF1PfNOzA87QX73zT0L1x2pM3vmvo2qO0N0bR0LF9DLAMsmA3Bmdpjz5MfePQoedprwyyoEOP057ZiobOjFb7DmAbWdBZAzxLe2efAzryQ+qBh4OhmwI69UIRDV0U0Kt+AvhSEQ3bm6WeXPjuYVuPU2/cS4KgBbQiGiIX0Ipo2No49UoRDUELaEU0RC6gFdGwlVHq3cIpQMwCWhENWxinAnhDFkQtoBXRkGtWRgCbY0HUAvq//uks4L5KmGCZY0H0BGyOBfc2SgVZOA+4l1lJAWyOBXETsBQMQSdYv/lkjgUhJ1jmWBA8AbuVBJETsBQMgROwFAx3NkkFcisJ7mSUirRwMnAHszIDWAqGuAlYCobACVgKhsgJWAqGwAlYCobICVgKhsAJWAqGyAlYCobACVgKhsgJWAqGwAlYCobICVgKhsAJWAqGyAlYCobACVgKhsgJWAqGwAlYCoZrDVMQU2cF3ziOEsD/clZwVYmvopSC4Y7GYeLXO6IhcAL2jmgInIClYLjqNFIAf3Je8KVRCmXhxOALs1gBbJkD4iZgKRi+NIkWwJY54A+R7iG5kwRXjFM47iTB/6ziBfClU4PfHKaAzp0bfDaLGMDuJMFnwxTS3MnBQaAHgd1Jgm8MVjED2J0k+NVRCmrt7CDWc0ieSYKvjFJYC6dH8yZxA/jfTg8jrLgBbIxF88YpMAvRGGEFZoyFEVZkxli07Th2ANvGwggrGWNBSEcpuLUzpGGz6AHsoUIaNkzhzZ0izRrHD2BjLNq1ih/A3o1Fsw5TBc6dI42a1BDAnmigUYNUhamTpElHdQTw2knSpFkdAeyJBpo0TJWYO0saNK4lgD0VTItWtQSwW8E0aJSqsXCaNOe4ngC2TklzBqt6AthTwTTnMCU1NEQ1qSmArVOigrZOCSpojyTBzs3qCmBv1qGtCrqu+DWHpi1HlQWwR5JQQauhQQVtDg0qaDU0tFJBe6wfFbQaGlTQamhQQZtDQzsVtBoaFbQaGlTQamhQQauhoZkKWg2NCloNDSpozxSCCtp7OeCqSb0B7N121F9Br5IaGqI6TEkNDSpoNTTs3armAPZ3CqncKCU1NER1XHcA+zuFqKDV0FCmYarc3BlTsXHtAfzGGVOx09oD2MspqdggVW/qlKnWUf0BvHbKVGtSfwBbxqLeCnqV1NAQ1WED8WsZi2odtxDAlrGoVQsVtGUsajVMTZg7aao0biOALWNRp9M2AtgyFlUapEZMnTUVOmwlgM+dNRWatBLAlrGo0aqVAHYjiQoNUzPmTpvqjNsJYDeSqM9pOwHsRhLVGaSGTJ03lTlsKYDPnTeVOW4pgD2RRG1WLQWwG0lUZpiaMnfiVOWorQBeO3GqMmsrgC+cODUZrNoK4MupM6cih6kx586cihy3FsBuJFGT09YC2DYlNbXAqTmaYLTAmmDQAmuCYRur9gLYNiXVGKYGzZ07lThqMYDXzp1KTFoMYO+mRAusCQYtsCYYtMCaYLTAmmCIZLBqM4A1wVRhlBq1cPZUYNxqAPsDDdRg1moAe68OWuDITfDU6aMF1gSDFlgTDFpgTTBaYE0waIE1waAF1gSDFlgTTIVWLQewdWiCG6amzV0BhHbUdgCvXQGENmk7gD0TjBZYEwxaYE0waIE1wWiBNcGgBdYEgxZYEwxaYE0wlTkWwP5OMHGdCuBPrgKiGojflKauA4I6FL4pnbsO0ALH5aF+tMCaYNh7C7wSvt5sR1gj0WuVg7iscVjlILCJ4PU8A3FpgT3PQFyeZNAEE5g1DqscBGaNw/MMBGaNwyoHcXmSwfMMaIE1wdAHaxxWOQjMGodVDgKzxmGVg7iscVjlwAzLFAv6YI3DKgeBWeOwykFc3sbx1RRr6orADMsUC/bDGodVDgKzxmGVAzMsUyzoY4YlZj2QRFzWOKxyYIZligVmWKZYcC/WODyQhBmWKRaYYZliwX14FMkDSZhhmWKBGZYpFphhmWJhhmWKBWZYplhghmWKBWZYpliYYZligRmWKRaYYZliYYaFKRZmWKZYYIZligVmWKZY1O07oXq9964NzLBMscAMyxQLzLBMsTDDasXC1UHxvNN9o7WrAzMsUyzYnVOBuom/UYgZlikW7M5QmG42d31ghmWKBbtyLEw380gwZlimWLAzFiktU2KGZYoFPbBIeaNzVwhF+06QmmIRV84i5eXyp5+WZ6F62eXJyckyo923TEl1Q+h3Tz7/y5PXYcL35fTzT/xgZgxNXXIWKf8Y7HwfY4L9+y+cX/3JMiWG0P+/ph9EqKNfbvVp/+EaoWAZi5Rf3hsdPC++fH6xXb2xdo1QsIxFyq/bwsIj+HLx1U97/5rfGJrKZlgfD+JE8JX4zQhgUyxK1sGdlVnBAfxi699XlikpWM4Q+mpROSg3gn+++nkz7npPXSUUK2eR8v03vwVKvZv0touW/9xVQrFynub/9ooelRm/F98mz4zF0bWrhGJNOgngg3GRA6xpJ7+wLFNSrowh9LVP2JXYBr/opmUwhqZcOYFx3VSnwDb47XWfd9hNIociDLsK4PLa4OvjbthRxQElyBlCb7gxWto+x+LanzLnttm564RCZdxV2dQTFlZEv93wiTN+SsuUlCpnCP1xw/81Kr+AzpvaGUNTqpwh9MbreVZ8AZ33iY2hKVTWn0XaWFEWVERfdFpzTF0pFClrCP1+439XzjrHk067/rkrhSJlvVJ2vfn/KyUFv+l2bHfuSqFIOVfzTZdzIXOsm1YvjrpsGqBXOQ3hjS+JmpWegLMC2BiaMuUMoW/sCItIwRdddw3G0BQpawh980z2uIAAXnQ+t5u6VijQsPsALuBW0kX3n3nuWqFAWUPoW94RNS47AedVHeeuFQqUVe/e0hD2noIvbvnQne6uQI8mOwjg3lPw4pafL+cXjDE0JcoaQn+8bTK2KjoBZ31oY2gKlDeEvjUbjYtOwAd/NoamDnlD6Fv7wV5T8K0JOK9vmLtaKE7WEDq9v/X/HZecgDtfH4We5C1drG8vzVcFJ+C8T20MTXmyism7JKNxwQn44D/s3T+WY8UVgPGWGlCgQE4ggEBL0BJaiXN8DkPg3MkQeAnSEghmCwRAMEt4WoKWoIDEJFZAMMBMy8d4sAH3zKir6r369/vy0fSrc79XVffeqrcaZeMPTM5uLIGzTcFXTMBBpxmkoVEgYZodrvjlT8qdgAN3/qIFpRGWhL4qIZtpCr5mAg4UeC9eUBhhkXxdSfSTYifgwPfWUbygMJYjCjzL4e91G9UwgU/iBYUReHR31B+P4jrJwt4t6kgojbAk9P11P57hao4rP0I2G3F2B6ZjGDWS/z65wN+N+dz34gVlMbuMKvAHhU7AoS+urYhBUdyGefLy2t+fegq+epcatnU4iBgURWAS+sXIvx/MflyBTyIGRbEeeaKbuJnjx6sf/G7c5wYmYTOywBM3c3w58oM7zoCyCFtJXs5jZ8kCU1hjLz3UkVAUoXo9Yi8YMtX9/PO3wz9HrCGF7x22YgYFMR9f4EdVkr7/5m9P/vyn1//yvb88+fybb8eoId0EHgh2nAFlEXiU4VFd/ddWkr7/+slD//y9J0+fj5BiWo7/4MDYLCcQ+Kr/46evPnvLT3x4ncNfjv/kJzGDggg9bXB4zD773ZWkb56881eevHst/eNjnjxw7aGOhJIITEI/biv4jkrS/VefXvUzHz5NubwNFFgaGiUxTCHwWzNl919/evUPvf80VQoruIfUcQYURHCR9lGuvC2N9Qh9f1H42yQ1pJvw/PtW1KAY5tMI/Mbl6k+fPfpP/vx5mgrPfIq1BzAqoVWkx17POLxh8xsync2eJkhhhS8+jqIGxRDYzfDoneCDaayfPg38qz98nsCsUIHPogbFsJlI4IdsCZp+X//cF7EprJuwT3w7zoCiCK0iPbqY8n9prPtnUX/4R0N0gXaY6NGB0RimEniRavn8K+8/j00uDepIqJzgKtLLyFfFP7bxf/sXMSmsiJfXVtygEObTCfy7NNZXSf76L+J6lHfqSKic4CrSi6h3xbNEf/5fI1JY4QIfxQ0KYTWdwP9LY90/S/b3fxxzxuBOHQmVE1pFCvFlmd7fm5uPQg4SRj68OhJKYTehwK8PFd5/mfQJXpeTXk349lJHQikMEwr8H2ES+/vrHPzdhAKrI6EQwi+MDNkHfjCGv68N3gb8w9C7DNSRUAjBVaSwi2V2Y/j7i8E/3kwp8F7koAgW0wr8yeXZKI/xcVhlJ1jgo8hBEaymFXj2bKTn+Hg76dOfRQ6KILiK1MQkNGURHBiBXdcCB3838aXIQREMBFZHQrVEfHbs0LPA6kgognnfAofn4PdiB1VHcBMhvLioI6HPNWTnAp/EDgpgTWDfR0K9bPoW+PaiEIyaCS8DN5GHDRfYgUKUwNC3wBFJeLGD/ESUgXsXeCt6UPESsnuBD6IH2VkSWB0J9bK69L0JjNhCnEUPsrMhsDoS6mVHYHUk1EtEFem+c4EdKETN8du9wOpIyM6cwH23kqJuFgQO5yh+kJll7wLfXBSCUS9rAofjQCFysyGwQjDqJaYM/Kp3gRWCkZuh+/gdFIJRLTE5WAIrBCMzcwIPCsGolgWBB4VgVMuSwINCMKplTeBBIRjVsiHwoBCMatkRWCENfUYvgRWCkZeoMjCBFYKRlzmB4wTeiyFkZEHgOIGPYggZWRI4TuCTGEJGVgSOE/gshpCRNYHjBNbJgZzcEThO4JdiCBnZEVgpHJ0Grxs5fCMYWYnr43Anlk4OZGVO4FiB96II2VgQOFbgoyhCNpYEjhX4JIqQjTWBY/MACsHIx4bAsQI70o987AgcK7BCMPIxEFgpDb3mb9roYpgZA1TKnMDxAu/FETJxS+D4txiBkYtFrMBbAuvkQDaWBI4X+CSOkIk1geMF1smBXGwIHC+wTg7kYneRwInO5OnkQC4GAscLrJMDubgQOEEqXhwhDzMC36ilodv0zeVyILBODlQbugTWyYF8RPdxNBG70aNwEknIwprAKQTWyYE8bAicQmCdHMjD3cXqMfb7br6ugmzsCJxiI6EVC3kYCJxCYK1YyEJ8H8flTGCdHMhEfB9HEwnY+FTeXiwhAwsCpxH4KJaQgSWB0wh8EkuoU+AWSqB3MgHoNHvThMA76xB0unZsoodh5zWGTiO3iR6GwSig08glsE4OZONC4DTDQGBkIEEjVguhm2IYtqIJkzMncCqB96IJk5OgEauFuSfFe+womjA5SwKnEvgkmjA5KwL/m9sEo3AWTZic9cXuL9FOQisWpmeTQuADgbViIQu7i/RNolSAViwQmMDAIxgu8q+JUgFasTA5KRoYCKwVC5mYJxG4/vzrRjIeNXJL4HQCH8QTJiZJJ2UDBRS5PFRJkk7KBq7k2EkFoNvkTQMFlMFOAgSuF6kA9Ju8qb8COpMKQL97v8uFwFqxUO3er/4WhrmFCPrd+9XfwnBrIYJ+l471C7ywEEG/S8f6WxiW3mPoeOlYfQvDKs0wHEQUalw6Vi/w2kIEHS8dq29h2HiPoeOZh8BasVCzwLX3IO0IjI5nnup7kAbvMXQ881Tfg+Q9hp5nntoFnhkGdC1w5T1IcwKj55mn9h6kW+8x9Dzz1N6DtPAeQ98CH6sehyWB0fXMQ2C9lKg4cCufepK9yE5iCjUKrIxEYExPqk5KrZR6KZGBjZkn7ZtMLyWqFLj25M2SwOh45ehWSs3QyMAgbtOOhF5K1Ciwz4sSGNOjepI8i7UVVahu59dAB+HCSKBbge/rn3fccI9+p50Wcq+J0gFHUYXqBG6h/2hDYNTGUg7rv3xiKFAbaxu/1KsRzdCoTuAmip8zAqPTfV8b/YNpsliaoTEdd2ad1G+zl6IKk7GTuEm9n3CaAbWtGhtpXljIB6Ay9P/+hkRtaaIKUzGTw0q/HtmKK9Q157SSeL2zn0CPAp8aGY41gdFh2qaZ9t+l0UCPArey65sTGB1OOc0UTmY2FKiKld6j35Gkr+UsrlBV1qad9v2N4UB3AdvQmnGlqIaaSFP4PDQzHgs7CnS352uo9ShJGtppBkzFIAn9e4wHuhO4pT3fjsDobMJpKuuaJKsnrjANGhf+yEpOAJ3lbBpKQidKQ+9FFibhVhJ6jFfaQWShnvmmqZxNkk3FUWShHoHb6lvYERjVsJSE/iMbWT1Uw0oS+o+kON5xFlmoJlobWzAurUnQ1XqxsaJJijS040ioSOC2hmRGYFRDitOErZ29GeTlUQs7080YY+I8IaqZbZrL2CTYVjiOhHoEPjU2JisCo6OETXONvym607ZiC7UI3Fqwzo0JOorV5paLKd5qe7GFSgRuL+M6EBj9bPfaa1pIUEc6ii1UInB7fb8bAqMOlqpID7AyKOhH4KNRITDysJZwfYBb+wr0I/C2uVGZERjdpGta7BqUmkc3Ard48GZHYHQSqU2G6sZrDb0I3OJub01gVMGgYPIQS5kB9CLwscFhWRAYVaAM/CAJCsFiC+OT4uDc1rg4EIxqA7XNtSKBUQMJjgO3mW7d2Vmgj73eCwJ3cVEYSiTBceA2m343kvPoQ+BTkwOzJjAqIMHB16OBcSAY9QrcZrJmQWB0sVJstFwSn54/iy7UIHCbAzOT3EMXArfa8zsQGOXj3OubiC4EO9GP8bnTxzHWyPjENyqYZ5pdKW4sTdCDwCfZAQKj2lRNsw1HS9k9ELheFgRG+WjEehPx57REF8bGxRNvZG5k0IHA94aGwKh3mmk31zrYXIDA9bIjMNrP1LTbMBjdinUQXxiZ+FOv7bbsbxTY0L7A52bHZk1glI6LY97MytCgfYGPxobAqHaWaTjVurC7QPP7vIYFnsvvoX2BtwQmMHIRXSpp+MhNdC+lO3VA4IwMBEbhRHcbvSKwS7GQDVcvjjg4BAaBK95fuBQLxQv8A4EJjGq3eU13G60l+EDgelkRGIWjFfotRDdDiy+MS/y9T4eGRye6GXorwlC4wPuGR+eWwGhd4JZjdG5w0HiINr3Nm1meoHGB7wlMYNS7y2u7UjLI8KFoovOsrwjsVjvUK3Db/fo7AqNtgds+8npHYBRNdK9R27fGxJ5mOIkwEDgfawKjaKJvlT0T2L2yqDZCG59jVtYnaFvgttM0SwKDwPWyIDCKJvpW2QOB3SuLegXeNz08twRG2wJvmx6eOYFRNHcEHlNgF0NjXKJvlW17eGLPE7pXFmULfE9gAoPApTIQGA0HaPMROni/oWWBW8/S7AiMlgV+QWACIx/O87+dO0l6FMyMwG8nttFlK8ZQssA/EJjAIHCprAmMgom+1/1EYDe7g8AEBgicnBWBUTDRX1Y5Nj5AsXfqHMQYCExg4CGiP8xwMEA+zYB6Bd4bIAKDwK3uMQiMkrd4BPZtFdQs8LbxAZoTGAQmMDAG0d82a32AYpvFz2IMBCYw8BCxrb73BPZxJBC4XAiMhgV+RWACg8DlMhAY5bIh8LgC+7oZCExgYBSB2//63o7AaFfgFwQmMPJxR+BxBfaBYBC44hEiMAqeXwgsy4eaBW6/zLkhMAhMYIDABAZ+y0DgcQX2gWCULPC5+RFaExgEJjBQoMAnAhMY/2LvjnHcSo4ADC858DBgQEcKPAGPwCPM+AYb2Mkq8BHmCOQRHPgKTjbZI5BH4BEm2MQZAwXahTTPgAEDwsLWipzu113V3x9LwTTqZ1dVV/drh2+bVRZ4EmMgMIEBAt/ChsDolgWBawv8JMrQr8BnAhMYBO6XNYFBYAIDBCYw8AVLAtcW+CDKQGACAwQmMAhMYAIjicAnAhMYzbgj8O+xskIgMIEBAhMYKBidBNbmA4EJDDQR+GCJpNAgsB0YIDCBQWACExgEtkQERmXWBK4t8IsoA4EJDBCYwCAwgQkMAhMYIDCBQWACExgEJjCBMScbAtcW+CLKQGACAwQmMAjsQj+B0QdbAtcW+IMoA4EJDBCYwCAwgQkMAhMYIHDvAl9EGQjcjrUdGASWQgMdCny2AxMYBCYwQGACg8AEJjAITGACo3eBTwQmMOzABAauZ0fg2gJ/FGWwA9uBATuwHRgEHkvgDYGRV+AXAhMYBCYwQGACg8AE/pItgUFgAgMEJjBAYAKDwAQmMKILfCEwgUFgAgME7nCJCIyOBf5giQgMAhMYIDCBQWACExgx2BK4tsBe5IAduCGPdmDk3YE/EtgOjLg7MIGtEOzAHbO3A8MOPK7AdmDYge3AQA2BPxGYwCAwgYEGAn9Ov0RHAoPABAYITGCAwAQGgf/Da/olMi0OAhMYIHADFgQGgQkM9CjwRGACg8AEBloI/JR8hZYERr9sCFxb4IsoA4EJDBD4eu4IjMwCHwhMYBC4V1YERr+sCVxb4BdRho4FPhGYwCBw2hUiMHoW+GyFCAwCExggcHE2BEZmgV8ITGC0YkXg32ErRQGBCQx0KfCFwARGXIGzX3fdERgEJjBAYAIDZQXO/oHgRwKDwHHZExj98ubr6uk/EPxmgU+iDARuxpHAyCzwZwITGK1YEri2wAdRho4Fzv5xJG8OgcBxWRAYBCYw0KfAE4EJjLjxmfzTDEvrAwITGOhU4Nwp4h2BQeC4rAiM3AKfCExgxBX4nHqB1rr06BkCExgETsuGwOiZN8/qJ39X9s2PUr6KMRCYwEAdgS8EJjDiCpz7WcodgdEzewJ/lTc/SvlZjKFrgT9aHwIjrsCfrA+BEVfg3BF6tDwg8MACfxJj6LlJk7zNqsIAgeOy0OND17z5nDP3sC+BkV7gp8TLsyQwCExgoA7btwt8SLw8PoAOAhMY6Ffgc+LlWRMYBCYwUIe3PxmT+kb/25fnIsZA4LgJyosYQ9c5YuokcUdgEJjAQLcCZx5VeCQwumZF4K+x16NHdoEzXwg+EhgEJjBQh7d//zb1hWAfb0R6gRNfCPb1VXTOsoDAT1ZnzKseIDCBgcYC543RlcVB+iovcZm3kp4gv8DntKuzJjDyC/ySdnU2BEbnEPgrbJ2xIb/Aea8jvf0yks8Doy5HAhMYQwuc9zrSnsBIH6OJv9/l240YQOC8QXq0NsgvcN400Y8beudxclTy/1goLzCCwE9J12apwYfeKfB5wrQD+3cEBoHj4sU/dE+BacG0txk8mo0hBH5JujYbAoPAQ68NgdH9LpM2Sgv0By4iDL3XeWk7NY+SExA4LnsCYwSBs84LHjXo0TsFzjrTDkM7YcMQAicdhvbgH/qnxLdVkg5Dl3gz+yTC0H2UJp2lXFkZjCHwicAERlyBc1Z6a8UFhujUJD3t3BIYYwicc5ZyR2D0D4FrCiy+UJkC40ZJZym994dBBP5sZQiMsPtMzjhd+GXDIAJPBCYwAgv8lHBhlgRGAEo8DJ1y4KjEIJZ33VGbEoclKUexPHWAYQR+SbgwWwJjkDhNOcmxtS4g8NjNAQKjNiXelU3ZrCnRnr+ILwTo1aQ8LjnqDWAUgROOYrlniRAUedUu4SSHlw4wkMCHdOtyR2AME6gJI7VIaXESX4iQKiYs9jYSE4wj8CXdumwJjAgU6bYmnFjY6e1hHIHzDf26ZokYFBE43yRHiTkOb9ohSKSmm+RYWBUMJHC6ZHFJYAxU7KXrt64UFhhJ4HOyVXHHA0Eo8ihWukmOIsfAnsRCfYoceKY7CN45XMNIAmeL1b1fNQyULKYr944ExkgCJzsxKTOfdhFdqE6Rfmu2g2B3tDCYwIdUi7IiMIaK1WQHwWtrgrEEzrXbbAmMIJR5UydZx7XM2dpJdCFIvybZQbABcQwmcK6DYFe0EIUyR565Lq8vHK0hDJNzpEp9AbGFMOliqpZrmVMk9/kRSOCXREtivBRx2DtH+i07fT2MJvBHS+I+Pxrw6BypTlXhPj/i5IuZeq4LOQlG69hkOkcyXYoBBT6nWZE1gRGHzeQcqcpP2ovYQpz9JtGGsyMw4lDoQnCiNvReTYHxBE4zeLTQFEAgCvVc81y+WWrLY8B4TfMAxYrAGDBjTNO02chIMKLAWdrQRtMQilICZxkd3GvqIRJHbegaP2gERqgdJ0vRV6qp5zowggl8SLEcpZrQrgMjVtMmSRt6oyWAMQX+YDkIjNkpdZ8wSdK493OGIXPGHH3XYsfiF5GFWSh1nzBHG3qpI4BRBT5bDZeRMDeryaZToSNAYMxDsfuEKRqvTsUxatWXYvjoSGDEoljfdXp9shhuEyJszCbYdco1BAQWomWNCbpYxXpYLiMhnsDxp492+gGIxl4Xq/yPGYExF4+TvLF4P8BtQoRLG+N3scr1sFxGQrjGTfwu1oN2AEYWOHrYlktGLuIKM1HuNkP41o0TNQwtcPAuVsGZlrO4QrjOTfQu1orAiMfdpItVvBtwEFeYiWVBgWOfnjwTGENXfsG7WOV6WC4jYT4KChw6cEumIqIKETee0M0b7XiEZF9Q4J/1sNxlQFyBP1oHdxkwLwVvM0TOHRd+xzC8wIHPT0oOtLjLgJC1X+RRji2BEZL1JHks3Ap4EVWIKXDYIrhkCWwUGkGLv7hF8D2BEZO7SRFc8jUOo9CYlWVRgaP2b54JDNVf2CJ4UXKg1F0GzElRgYMG770fMUTlqAguWwITGHOyLypwzJPgoiWwuwyYk0dF8MJvGMKyK1sEHwIuwYrACMt2Gr4ILrsERqExJ5tp+P1nr4+HsKyn0YvghRwEcSlbAE7T30dfgbOYwozcFRY4XgmojYfALAsLHO8Y9EhgxKVwBRhvmvJ+8L8fwSktcLQmzsPwXTyEpnAGGe4gaT96CYHYFA7g6TVWDrmYCIzI7Ern0OdQf/568AQEBA59kLQb+q9HfLalBQ7VxlkcCYzQlM4hY52ErkZvwoPAkTehwTsAiE/xPShSI7Z4Bj2dRBRmZTkNnEOvhq4fkIFFeYHjfOm7eAfPJCXmZho4hy6eQU/iCeGDOEweeV/8LzcKjbnZj5tD70Zu4CEJj8Pm0OV70CYpkWAbipJDl+9BG8TC7GynUXPoHYERn3UFgUP0cipk0CYpkSGRjPE4ZY1frrN4QgaBIzRzniv83SfxhJlZ1hA4wLscVf7ug3jC3KVgjUAOUAw+1Pizn8QT5qaKwL90/2cfR23eIRnHacRkskrpbxAL87OvInDvJ6LPBEYOdtOAbaw6lb9JSszPdhqwjfUwZNqBjGym8dpYi+OAP1rIybqOwF1PY60mAiMJlYK564Lwuc6ffBZNmJ1lJYE7nmq4r/QXH0QT5q8Hawnc76XC5+F+skDgPCdJ1XIOwYQGHEfbgre1frHEEhqwn8YK6EWtXyyDWGjBrpbAnR6rPNT6cw1iIVNG2ekwR7UN2CAWmrCpJnCXB6MPgyUcyM56GmkLrrcBm+NAE1bTSFvww0RgpGJZUeDuGrMVN2CDWGgT0xUF7q4urLgBG8RCG2oK3Nk4Vs0N2BwH2nCsaXBf41h/G6lcwCDsh9mC72v+pZ9EEprwraNYrz/+eIy9BT/XFNggFtrwbaNY//z+uz/++bu//hT4aY6qG7BBLDTiWyY5Xv/y33/9Q9hpjkXVYt8gFhrxDZMcr19soz9E3YIfqvprjgONuLuykH0fs4+1rOuvOQ50G9m/UfA5ZB/rubLATyIJbWrDa/szVxeTPSTRlRNoD+qgGcdrBbxWhl/a706VO1gGsdCO/dXZYbwkunYCbRALzdhdHZv30TrR1RNocxxoxvb62Lx2Q/u1bRL9h2N1gc1xoBWb62Pz6i34X00L4OoJtDkOtGN1w+ZytRL/aPgHvq/vrzkOhBL46i34tV0Z/G4Gf6eTOEIjlreUd1dvwc3K4BkKYHMcaFki3iLw9W/hNbrVsPhpDn/NcaAdxxsEvmEyos1p8PMs/prjQDv2txxx3nC02qKR9X4Wf81xoCG7Wx6LueV2z/yNrD/N4685DjRke9PuckNu+vr9zH/Zu5n8NceBhqxvatDc8k2WmQ2ezV9zHGjI73WUn/7n/7rpRfhf5zT43XE2gc+iCM24uy06d50bPKO/3uNAQxa35Ye3fddwNoPn9NccB1ryb/bOHrmNJInCaCjENsqgsysHBo7QR1AfYTdipYjl3GDX4BG6j0BjdIORIY7BIzSP0MYeoA2tIVkwaAwVJLAzszMRM5IoFOo3s+r7fCmA6PdYmS+zGm4JjeOvKiXqg18ktC9jYMjK5DbkdNyR2KeYB1+k9C9jYMjK4FYguv42eAIHf5fUv/yuCmSlc4to3H+Z9G3kpv7faf3LGBiysnVLsTx+F+1DzNTn+U1i/x52aAgycqwWfmpR0ONVU5/+UUj7yx4HZKd1DFm9fu0gUhmdvHzmOj/k5qgRn2iC/X4cPMoh/HrK4F/2OCArjWuJ2Pnp/m3oTvh5juOXPQ7IzbFj696x9j56CL8J+nfoYsrjX/Y4IC/H4uSnfmGw8db+x3B19OubQybY44C8HC2FZ0fnW/AujIVf/XjIBtf5IS/HBsFPbipsQ+g/gIVfZ7QvexyQG+Pa5bUyesizQ1YWFARZOe7DOVYTHKQEjf7roVznB8msnavEQcYJ1mU18IiCICvHD9KncuggTXAfvwdgDAwlM7mWiSGa4ABTmHVO/zIGhtwcr4Tv4zXBd0n+AjEGhnLpnOvEQUYGlLMJZgwMubFoZd9Ha4JDZEA5m2DGwJAb49zpGRktZM4meEE/kJnWudJdy6hAc06CZ/QDmbGx4X2k+CjMATbkM/CIfiAzVmHyVZz4KIz+t/kM3KMfyM3kHNZsZOi/zeZfxsCQH5sK9OvbWL7OCTRFzZdiMQaG/HTOaY3vKkeoIUy2FIsxMORn6y5Vz/hoCfQNLnMZeId6IDtW49yv19CeKdaY8k8QY2AoE7tOdnb2fvwMN1uKdYt6IDtr9361lREBZUuxetQD+XF3WyMjAsq2i4V2QACDe8M6yIiAMu1iMUUCCbx0D2y8Uqw52DfIdKOQKRJIYOuuVq9drDHYN8h0o5DLhCABO/nvg6dY4SKgTDH0gnZAAK37gdnI6CAzxdAz2gEBrD3Om0lGB5knhh7RDgig8TDcpYwOMk8M3aMdkMDk3gRvZRSgWWJoLhOCDAb3itHIKECzbEMzBgYZdO5H5lpGAZolhmaKBDLYugu2kVGAZomhdygHRNB6lIyDiAK0yWHgGeWACJ55FL3O8VHYPcQcc6QR5YAIbM+vq5DxUdgCNMccqUc5IAPL82sJGR+FLUAzzJGYIoEUBveq1zk+us2RwzFFghLp3CXbyChAM9xH4jIhSGHrYbpJRAGaYRDMGBikYDxSrJciCtAMg+AZ3YAQbOdIS7ju8yHsN8gwCB7RDQih8Wj7jIwCNP0guEc3IIXJve517D53gb9B8kEwUySQw+B+6jgWr0vgb5B8EMwUCeRgK//bYMXrbeBvkHwQzBQJ5LD1ODcHERFQ8kHwDtWAGIxH9NSJiICSD4JnVANiWHs0fkZEBPQstYFHVANiaDx814qIgJJvcvSoBuQwuZ87TtZ5yPUniCkSlMjg0fm5xNB32f4EMUWCArFNonYe5o9r4MSbHFxlAEmce0w/XUawS/Bv8DKtgRc0A4JoPSpHlxh6zlZDMEWCAll7hK9nAhaxkq9ijWgGBNF4CLcRof/Eq1g9mgFJTB6l4yBB/2lXsQihQRadR/p6evsZYYqa1sBcZQBZbD2UayQYOO0qFlMkkIXxsF4roQJNu4q1oBgQRevRvZ7unYcI3yCpgW9RDIjCJ4Y+fY0xRguZdJeyRzEgC58YupPQQqbcpeQqA0hj8PDeySnWTrmBmSKBNDqP6reVkAGl3KVkigTSOPc4fE5OseYIXyDlLuWCXkAYPjH0yeXrrXIDz+gFhGG9CDEGMM+YsYTgKgOUSONz+pyaYvURvkDK2wzIBcQxePR/awEGTrgMTQgN8vCJoU/doljpNjAhNMhj63P8nDbDibIHkfA2A1cZQB4+1xlObEAflRt4Ri0gDp+36pzonigGTngdaUQtIA5rA9x6N8EPUb4AVxmgamw9uHg3wT9l/fyE0FAkPm/VOa0JvtNtYEJokIjPW3VOa4LjGDjZdSRCaJCI8aogTzn/droNvKAVEIjtIbr3KsDjOSDZfcIRrYBAGq8Qtq3HwD1aAYnYVsG3XvaPtgiR6j4h79MBmXReB+hQi4EJoUEmW68UdpP3Pn+6C8GE0CAT43UErXOnQKkuBC8oBURia8FHvxZau4FHlAIiafxSnG3mGDfVheAepYBMJi8Jn9VhYDahQSqdXxFpXUOvNBuYEBqkYlsEz37/PNIg9RkhNNSN7Rm28wvBIhk40Ss5ZnQCQll7VpFDDQYe0QkIpfHMcTZZY6BE79Tp0QlIxfMIbSowMCE0yKXzPIUuyzcwITTI5dyzD7QbBT9E+vRJDLxDJSCW1jeJtRoFv4/06ZO8FGtGJSAW2yB3WXnEWPtes4FHVAJysfTAk8sMjcV/8J+VYgNzmx8kM/gmOceP4PvcH54QGopl6yvjo0fw/kq1gVmkBMkY70JykynBSmTgBY2AYGwvBPSuR/B9r9vAMxoBwTT+WewmUwG9Wr1kkRJqxzLJvXX8L35Y6TYwITTIpvOvJL+xjvVBwmdnkRLKxTKG3n3r//guRwOcxsCE0CCbNoCQm5uv/6NPkRvIjgwLamcdopQ8+2ob/OlvK/UGHlEIlJBiHVlIevG1/Ce2fxP8tgoZFkhnCKLkF+nP3xQGZpESCkmxjrWzLz47yT/0qwIMTIYF0jFhDLx6/scka/9G0N8eFimhYM5CpTnNxe+H8P5tvyrDwGRYIJ0m4Dzl1b+uP16/+3uf6KOfRzdwjz6gjBTLtphsEn7yczIsALtp6k7gJ49uYBYpQT4btXnsORkWQKv2MIr+C98z6oBCUqzHGg3cow6Qj9Uy5b5CA7NICRrotJ5GhgwLwHIfYqzPwCxSggZaDEyGBXpptKo5toFHtAEamJTORA0ZFoBlinVXnYHJsEAHW6VyNmRYAJYp1mN1Bp5RBqhgrbQjNGRYACvLFKvXWTmQYUHxWKVYt5WdwA/oApSw1dkStmRYALZOkCdoQ4YFsLJMsX7S+XeHDAvKZ1I5RzJkWAC/0KlUdNQTmD0s0MNW5RzJkGEBWJ9ls8pPTYYF5WN1o3Cp6gQeUQXoYdJYVLZkWAC/0mmMdQwZFsCvbDQeSjFP4PdoAhTRaoyhDRkWwK80GkUd8wTu0QRoYlAYQxsyLID/0ymMoVsyLAD70+xR4WfmdwmhCtYKG8OIBr5CEaAKqxRrrMbAPYoAXShMseIZ+BE9gDK2+lKseAbmKhJoo9V3MBkyLIDfUJhixTPwiB5AG5M6YUczMGscoI9OXWkZzcCscYA+NuqUbciwAH6nVVdbRjPwjBpAHfpWOaIZuEcNoA91qxyxDMwaB2hkq60JNmRYACf5YV+DgRe0AApZa2uCYxl4RAugkUnZ6RTJwKxxgE60vVvW0AIDnNgE98UbmDfKgk7OlC05RDLwjBJAJVarHHfFG7hHCaCTQVfEE8fArHGAVra6hixxDMxNBtBKqyvjMbTAAKc2wY+FG3hEB1ByEyxH4VEMzBoH6KVTVUNHMTBrHKAXo+qMimLgBRWAWqzuM4j53RFDCwzwJyZNVaahBQY4vQmWsg9taIEBHDyxlGtgbjJA+U3wY7kGvkIDoJhmUiTzGAbu0QAU3wQf7ks1MDcZQDcbRZWmoQUG+DNndkK/K9TAMwqAGppgEfsOhhYY4DMuD2q6YEMLDODWBEvogsMbmMv8UEkTLOEINrTAAI5NsIAj2NACA3zOYCn2/BvRhhYYwLUJzj8zNbTAAK5NcP4i2tACAzg3wdmLaEMLDPAFl9aCvy/LwLTAUFUTfDj8tygD0wJDXU3w4fCDxf/3Vy0GpgWGuprgn/n+6H938ajFwLTAUATdIZyDn/940GJgWmCorgn+mbffOswvYhrD0AIDfMn6NOF/eLL0fH1zUGRgWmAohOk05e/ffMO+agws5WW5AEmb4F/4+OqL3vfiJnpvGdbA9zx3KAQHZ3x885c/uPf1dYpwKKyBeR0WVNoE/8an63dvXr365/X1TaJ0N6yBR547VNoEZxrPBDUwP4oEFTfB+g3MjyJBObT1GXjhqUMxNPUZmBYYCmKozcC0wFAS29oMTAsMNMGKDTzzzKGkJniqzMA9zxxK4rIuA3OVEMrC1GVgrhJCWazrMvAVTxzKYqrJwFwlhNLoajIwQyQojbYmAy88byiMpiYDjzxvKI2hHgMzRILy2NRjYIZIUB5n9Rh45mlDeUy1GJghEpRIV4uBeR8llEhbi4EXnjUUSFOLgUeeNZTIUIeBeRkHlMmmDgMzRIIyWddh4JknDWUy1WBghkhQKtsaDMxNJCiVtgYDLzxnKJQwr7YTbmAqaCiWy/INzE0kKBdTvoH5WWAouIYu38BXPGUol6F0A7OGBSWzKd3ArGFByaxLN/DMM4aSmco2MGtYUDbbsg3MGhaUzVnZBqaCBmpoxQamgobC6Uo2MG/DgtJpSzbwwvOFwvG/0CDYwCPPF0rH+0LDXqyBucgA5WPKPYG5yAAV1NDlnsBU0EANne8EPqeCBoh+0O2lGpiLDEANrfgEvuLZAjW02hOYq8BADa34BKaCBmpoxScwFTRQQ+s1MBU01MKmRANTQQM1tGIDU0EDNbReA1NBQz2Y8gxMBQ3U0IoNTAUN1NB6DUwFDdTQ/2Pv3pGjuBYADEtyaRQowLfKEFwFs4RZAkqcQxVyADswwSxhtAQFZgd2gByQ36RZggIvQAEJBNcJgaCs6WtjXFwh9fucPv34vlwaabr/OadPP2bEAZtBYw494oBPbVPmZDWtgN1JyLwcTCtgz+JgZnPobFIBm0FjDj3egM2gMYceccBm0MxONqGAj21O5mY5nYB9owrzs5hOwJe2JvOzmUrAvtWbOTqaSsC+1Zs52ptKwGe2JXO0nkbAZtDM0+E0AnYjEvPU8nLKoQVsBs1MrYYVcLsz0y6jZK4WUwjYZZTMVjaBgI9tRubqaPwBu4yS+dobf8AXtiLztR57wE4CM2eHYw/YSWDmrM2p4EEFfGobMmfLcQfsJDDzthh3wJe2IPO2GXPAlrCYu8MxB2wJi7lrvow1oIDPbD/mbjXegC1hwWK8AV/aerAea8CWsKD5MtZgAraEBc2XsQYT8JltB83DGcjf4UZC+MveOAO+sOXgL+sxBmwJC/62GGPAnoUFn2UjDNgADJ8djS9gS1jwj2ZnkgYR8JmtBq3aGcIf4TJo+GJvbAFf2mbwxXpcATuHBP9vMa6AnUOCGzajCtgADDccjCngK9sLbmhwJil9wGe2F9x0NJ6AXcQB7Yfg5AEbgKH9EJw6YBdxwB1D8FgCvrCtoH1AiV9/a0vBHRbjCNhFHHCn9RgCdhUldBqC0wZsAIZOQ/BxyoANwNBtCE4asAEYug3BKQM2AEPHIThlwAZg6DgEJwzYAAxdh+CEARuAoesQnC5gAzB0HoLTBWwAhs5DcLKADcDQfQhOFrABGLoPwakCNgBDgCE4VcAGYAgwBO+kCdgADCGG4EQBG4ChlqM0T8RYGoAhgPIHVEYL+J4nYUH0IThawIeeBQ3Rh+DrJAGf2SoQYgiOFvCBARjCKDmV9EeKgA3A0MAiwVcDflP8mu9tEQgzBEeLac8pJAhVU9Z7wLuu4YBQCtexLqO9pAEYgo2HWe9XVGRWsCCUonWs02ivuHEKCYJZ93s34c7OygQagtnv+9s9l1awIJyjXi/EKriW8qMBGFq5cx3rKt7rHVjBgoAW/V4UddeJ4Le2ArT1rN/7cjMrWBB3En0a8eUe3nq132wDCDiJ3sZ8taVTwBDUur81rNurWCbQEHYSfRn1xZwChrAe9HcI/PXFlCbQ0Nnzni7juHUQbAINgSfRkSe1N+7p/9l7D90teptB35hDm0BDEEf9RXVoAg2hrXu7MPnLfP3M2w5h7Ge9ndZ54AwSxMmqlxsLnjkAhuBj8I/n5y/6eamnWf7xFwfAENS3/TX1rXcbAAAAAAAAAAAAAAAAAAAAAAAAAAAAAAAAAAAAAAAAAAAAAAAAAAAAAAAAAAAAAAAAAAAAAAAAAAAAAAAAAAAAAAAAAAAAYL4e/3B+/nv+2X/fnZ+fPD72rsAY7P9wnuW3fDw/eeS9gaHn+/RVXmD78sQ4DAO2W5zvJ+9eSBiG6v6veZWPEoZheprlNZw/8U7B8KbPP+Y1vTQIw9D6fZ7X9tEgDIOy/ypvYPvCOwYDGn8b9funX7xnMJh+13lTbx0Iw/iOfxUMA/MszxUMI/XvPFcwjNQiy9sW7M2D1AfA67y1n719kNbz9v3m25+8f5DSg7yLrcNgSDmBzjoFnH/wFkI6z/KOHAZDMouu/ebbR95FSGTdOWCTaEjlQR7A2XD/v/2TEs2mDrtlvyrp7ZX3y/6yYzv5hHVdwRr8SvQ63NThaKhvQflGdK3NlB3lQbwZ6v+3V/53n4b7rLtM908eOs9nAJ7oEFy+bzeqrmK17yrdP7kq/8su7OcG4LEOwatw1VV8Flyn+yc35X/Ze/u5AXisQ/AmXHXLircg2Tuwmw92bsBIBuDBLkRXfEJtG/yqh3m44+k+j/NTzg0YyQA81HPBVYNTk2FzM9aAt/Z0A3C147kHnGyt6EDAM7UJGfDF1APOBMygLEL2O8y1TgELeLrWQQO+ErCAGdDaR0PXAhYwPVomCHj3u8fHAhYwAfbtrPeAP315+H9eCFjAdHYYtt8au8k/357W48OkBSxgS1iBRuAv3374VsACZlBLWHn+R4NPjDcCFjCdHIUO+KrJC54JWMB0kfUc8M01sw8CFjAdLEL3W3Ul1leH3L8JWMC0t+w54K8/MK6PBSxgWu/YwWfQFU+nWaW5f1jAAp6kg7zfgG9/YHwQsIBpaxU+4NL99yjRIzwELOBJynoOeJPo9kMBC3iKwq9Blz9RZpHqMXgCFvAULXsOeJnqMXgCFrAZdPdnYmWpngAgYAGbQXcO+O7X62MOLWABT9BRjICbv96ZgAVMC5sI/W6bv957AQuYCHt14NuBd9M9RUvAAp6ew54DPghQj4AFzGerGAGX3M+/TLfLC1jA0xPjJFLZSaFNyzsQBSxgbtvL+w14t8uDLAUsYG6KchKpZDQ9CJKPgAXMJ+ueA14m3OcFLOCpiXISqex24JKzzm8ELGDCbu7gAWetH4QnYAHTYEYb5XbgvZS7loAFPDWbngM+CNSPgAVMtEPg4tuBlyl3egEL2CFwt4BXrZ+EJ2AB09MhcHEJWbuTTwIWMP0dAheWsNv2FggBC5jeDoEL7+ffS7pvCVjA07KI1O+25d51LGABU99hpIAL58L3yn/utYAFTH2rvgNetb2AS8ACpvFeGPx+/k3beyAELGCaLSnFuB04a/0cAAELmIbbOnjAu22n3gIWMLfEuoyjcCq8l3bnErCAJ2XTd8AHAQsSsIBnbjfWGlbhanLlaatTAQuY1GtYhQHfq/rB1wIWMDUdRgv4ou1B94WABUzqNazCvXfVdugWsIDpbQ2r8FC28hXfC1jABNqdwwdcuWp2JWABk3oNqzAEAQuY4a9hFYVQPeZfC1jApF7DyluP+VsBC5jUa1hbAQuY2KJdh1U4ET5of/QsYAHT1xqWgAVM6g0d4X7+GstmpwIWMHXcixfwlYAFTGSr/gOuse59IWABU0e8RejCCyIFLGD62pkFLGCGK+IidOE9Rav2PypgAdNkOw8u4MV5mTMBC3hWIl5IWbjzPuwS8Lr05z4IWMCzskoQ8Kb94XNlfMcCFvCcRFyEbn8/f0nAey1fU8ACnqKYi9BRAq7aL18LWMAzEnMRurCDmAFfCFjAM3KQIuBMwAImiMOYAe+0D/hKwAKmWsxF6K2ABUxcMRehrwUsYOLKBCxgRivqWaQ/BCxgovomZsBXAhYwUR0KWMCMV8xbGYrP5QpYwASxErCAGa+YZ5GKbwkUsIAJIhtqwC6lFDDd9+QotwO7mUHABLEnYAEzXlHvRSq+t17AAiaEewIWMOMV9SxScQYPOyyACVjANBgKYwS8ErCACSDqWaTtjoAFTEQdzyL9nrXcQ2pcwHkhYAFTofVZpHcvT548/tefvr9/cn6eNbwdWMACpo9tXLDlXz6+uYN/f3Jnw50Cfi1gAVOh1c2EL5/c8Zu+e/qq/v38nb7gW8ACpv5IeGuzvyiK4mlW934EAQuYEJqfBv74pPi37f9YN+AaU/djAQuYCg8b9/uo9Pf9kNW6mKpOwDsCFjAdd76G/e7s3H9VK+Dq1e+tgAVMlabHv4+q0/i1xrUYNQK+FrCA6boff+WnOr/zeY2AdwUsYDpr+EzZN/U+FdbVAVfP3a8ELGA6buKbPtTcq3dfVe+6lTdRvBewgKnQ6DqO7VntmfmrioupBCxgAliGn0B/ssjKr8WocQL6UsACpkKT6zi2DfbpnQdVO0jlR8eFgAVMhU2cAfhPz0oXkmtM3k8FLGA67nttB+C/l6Lfdwn4WMACpkK0AXhnZz/Lyxa9Kk9g7Qj4f+zdP3Ib1x0HcIAekQULTmYsF2aBA6TAEYTM2JPWnrGKMHVSWAWPABxBhZU6hVWEKXQE8AgofAAUcuNKBQvYQwCJxhpZlEDu23/Y98N+vqPOoBfc3Q+++96+BQGWmqdx5QJ+O5H18qH/elT95AIYYElSVKOA6wq6BRhgqXmE6xRwzdN+BTDAUpD0dRyrxrddMAH+BmCApSDp6zie73vbC4ABloIkr+NYN7/ts6q3gQEGWEoCfr33s2sCMMBSbxya1IdVc1T53AIYYEk69d4/R9jCtoeVr9kBBliSzuKEB/Nbqv8bgAGWpgBP2tj6uOpHBsAAS/EwtNU56EHBNPQ1wABLzQPc4hx00dYnAAMsBUldiDXbe/+vBwADLHUuYts/zvOKKzcBBljeJnEl5aqlzY8rTnsDDLAUCNrHCTiquPQaYIDlbZ50eBPp4fNrAjDAUpS0lZTrtjY/rLhJgAGWlDOveFFUSx8gNwADLLVP4rbPv1G1TQIMsKQDnuz/BJsADLAU5ajbIfD9itYDgAGWuse37SHwYHBZaekmwABLMuBli+/gvNIXcAEMsAxSl0LP9n4RvxkADLAUJmklZbsHeVrloh1ggCUV8G2rb+G8whU0wADL24y7nsPafQ29GQAMsBQnaSl0y2ffZYWvDwAYYBkkLoWetfseTitsEWCAZZC2FLrtYzycl/8KW4ABlkTA67bfxHnZKSyAAZakc7j9OawdFfzrAGCAJSFJS6GXrb+N87IFDDDAkgp41vrbuFvBvw4ABliaOLwtP0v4Pl98eEp9AzDA0hjgvRziZ39s78cBwABLUlKeZVjt440M36/meDkAGGBJy1kOk9C/a3pWxi/AAMsg7VmG5Z7ey8XVdnP1YgAwwJKalGcZrvf1ZoZ/+qqx8xJggAHe2yR08+clwAD3IU8ymYQGGGCpkISHkdYAAyyZJuFZhhXAAEtcwDcAAyx5JuVhpAXAAEtcwNcANzCZALC0kJSHkSYAa2AJCzjTA6yBAZaUh5HWAGtgiQt4BbAGlkyT8DThDcAaWOICXgKsgSXTJDxNuABYA0tcwNcAa2DJNAlPE04A1sACsAYGWJpO8ePAuR5fDQywJDwOvAZYA0tcwCuA+9jAw8d/u/p/Xj79CpKcU/w48A3A/WvgRxev3v/nq6eYRAa8BLhvDTy8uPvLXH0HSqZJeBx4AXDPGvjxq09e8gIVgDVwDMAXu36TlxNYggKeAdyrBr7Y/aqXsOSYhOf5JwD3qIGH39/3MoJjAs72LqEGbgPws/tf9yMu8RQA3K8Gvnjodc95CQh4DXB/GvjLB1/4m4msgIBXAPemgY8LfoefgcktxV/IcQNwXxp4+Kpod7iIBvjjfHl1f/4zqXFe/rLr//hSA98P+FnhyfArMZml+As5lu2+gaMHz/vXta7+izukwwZ+6IPr6oeijX3/0MdeRcBfJOy+n5CJBrjl4jivPINWDfDrTBp4+ODLNwXbPS5zyBIBD+cJu29tHgvgO7msDKga4HUmDXxS67pnXGbeMRHwswofgNJ1ir9RZ9buG5hX/fh4dFkJ8CaTBh7Vmvufl7l1nwb4OHH/qeBggNs9YEWC7m2iR6+21TLJo4Gnde6+D0t96CYBHqZ+Hv4bGoDTT66bpv3ePbm7a+B5nfVvnzV5tf77ts5T95+J6KwyLXfJuXfAq6b93j25O2vgehs+aRxw0gyWe8EAf5zTSoBr+G0P8LzRDc/q7LVlacDn6TtQBYcCvM4QcB2/mTTwUauA35QFXKKATWNllcIDd9vu9kcVANfym0kDZwb4vMwedCcpEuBVdoCP59utBi4x9VcMeFhql66xySddL4UuD/hxPb8aeAfg83K70DRWNhl2DfisLOAvavrVwJ8CHpbcpzfgxAG8zKuBa/vVwJ8CPi25C/0tFoArAq7vVwN/6rH0olTX0LnkqNz53jXgBvxq4AbiGhrgKmPgJvxq4AZiHjoO4Fk+DdyIXw3cRGbo5JGTSICn260GzqKBreWIA3iSDeDj7VYDZ9LA1kMDXHoMPNpq4FwaONu/twPwnm/5lWjgsQbOpoGz/ZOVfctpIMBTDZxPA7uRFATwOh/Acw2cTwO7kQRwyTHwcKuB82lgg+A8UjgxdNvxGwgEuFcNbBAcBPAKYA1sEAywBj6wBjYIjgG47Q9aY+CgDWwQnEXGXQPWwEEb2CA4BuA3AGtgg+C4gJcABwS8jwY2CAY4wBj468+/Tf0371cD+16dHDItdbr3sIHbGjTGb2DPBAMMcOAGbv3iTADWwC0CNosVAXDb10lnAEdtYLNYAGvgwA1sFiuDzAHWwGaxDhjwBGANbC0WwMbAh9fAZrEA1sCBG3jFT9cpPH9bn6gAOG4Dm8UCGODADeyJQoCNgQM38PaaoNwBt36zXgMHbuAlQQADHLeBTUN3nSOANbBpaICNgXvZwKahswfc+mesBg7cwKahAQY4cANbDQ0wwJEbeIFQ3wEbA0duYPeROk7hoW39RoEGjtzApqEBBjhwA/tSDoABDtzA7iP1HrAxcOQGdh8pd8BvHvrp4eOnZTPRwIfUwO4j5Q74wWnG8/IH/DXAB9XA7iNFBjxtYNAEcOgGdh+p25zWOUBHVY74c2PgQ2pgzyMFBnzSxEe2Bg7dwG4EZw54UWMCOekjG+DQDexGcGDAoyY+sgEO3cBuBAcGPG7iI9sYOHQDuxEcGPCTJgBr4NAN7EZwtzmrA3gKsAZ2I7jTjADWwG4EHzDgWduAjYFjN7AbwT0HrIFjNzDAAAMcuIFvIQIY4LgNbCWHMTDAgRvYSg4NDHDgBraSA2CAAzewlRx5A54ArIEfzDVFHWbcOWBj4OANvKCo14A1cPAGXlIEMMBxG9hKDoABDtzAvpPDGBjgwA0MsAYGOHADW4oFMMCBG9hSLIABDtzAW4qMgQGO28DWUmYNeKCBNXCNNyrt5hJgDVwz1xjl28AbgDVwmV9L8mrg9gEbA0dv4CVG3WWqgTUwwAAD3N8GthgaYIADN7C1lL0GbAycXwP/dvUKYIA1cMgG/uXFN4PJX77+b+UjKgAD3FUDb15M3v3QBcAAAxysgX/75o+f+nuqeYyMgQHOooE/9JuwTO9dMNLAAOfQwHf9Dh7N035swhHAAHffwJvnH23lPO3nZhwBDHD3DfzDx1sZzgEGuLEx8KAhR9caeGd+/nQz5+V/L9HA9wGeN+NoBvDOAfCOoewRwAA3B3jajKMJwLvyfNd2kiailxwBnAJ41Aiju28A4PsvoFOvoQE2Bk4CfNoIoxXAuw707ntBSbvH40gaOMnbsHlGAL/L6xrHGGCA0wrzzw0o+miuBuB7Z7CSr6EBBjgN8PDzb7/+4N9fi1rlzqvf/atyjXj4gH+6b0PHpQclYgyceHaclAFzTwDedVA+2D8J9+5uOdLAAHcJ+KdaB9nzhAAD3CXgzeT+LY0ABhjgvAG/HlTfyVsPBBsDA9wt4EW9HQSwBgY4V8ApK9AnIAEMcKaAxwADDHBcwCOAATYGjgs4YQX6DCQNDHCmgI8ABhjguIAT9tA1SAADnCnghGnoBUjGwADnCvgJwABr4LiAi6ehlyDlCngLcO8BnwIMMMBxAZ8AHBjwxBi474CL7yP5So4eA9bAuQMeAgwwwHEBF99HAhhggAMD9qVYxsAA5wv4CcBmoTVwXMBjgDUwwHEBF67k8LWUneUSYICLdtRp2WMqPQJsDJw94BOAs81YAwMM8AE38Azg3gMufKu+ljLfBgYY4CHAABsDAywaGOAOABcuxQIYYIAzBlxrtYAADDDAYgwMcMUdNQY4LOBrDQwwwHEBLwAGeFTrvUqLGQEMcOGOOgMYYGPguIBPAQZYA8cFfAIwwAADLAADnCPgBUm5Al4aAwN8BDDAGviAAV+TBHCmgP/1z9T8Y36ogIcaGOCogCfpO3MKsOw5hbfo3/R9DFwCsAaWfafwFv2NBtbAhR9NS5IA1sAAC8AaGGCA9wjYGDgA4CnAUQGvNDDAAAMMcGTATwDONCcAA1y8o8Y1bjbKYQM2Bj4AwDck5Qp4rYEBBhhggCMDHgEMMMCHC9gYOCTgcROAjYE1sFTOZ0Wn0aZtwBoYYKmcWn/6dQRwTwCfAnyIgE8BBhjgvAE/dAKfNAHYGBhg6QbwUAMDXLjcR7IFPLgEGGCAu8ywFuBjgPsB+ATgsIAfPI+++yRPz42BAZYggCscaw0MsOwR8DXAAAOcbQoBLwAGGOBsM+8asDEwwNIi4KUGBhhggAEODPgIYIABBlgaz3Rb6lQwBgYYYIA1MMACMMAAA9zwsQEYYNlfxl0DNgYGWFoEvNbAAAMMMMAASweANwADDHC2GXUN2BgYYGkR8FYDAwxwYMATgAEGONecAQwwwHFT/OXsM2Pg3gMeAgywBtbA0gHgBcAaGOBccwIwwAAfMuClMTDAAAOsgQGWxlP8x5FuAAYY4LiAVwCbhQYYYGNgDSyNp/hvq9xqYA0McFzAa4A1MMBxAW8A1sAAZ5t5x4CNgTWwtAm45ONIGlgDS1aAZwADDHCumQIMMMCHDHjRKmBjYIAlMGANDLDUyLjhpxkABliyAnwDMMBNniLSZEYdAzYG1sDSKuBVq4A1MMDSKuA1wAC7hM41xd9qtwEYYIABNgYGWBpP8ZdilVsMrYEBlrwAzwAGGOC4gK8BBhjgTFP8pVjl1lIaAwMseQFeamCAAc40xd+pU+7wAHyAgD8DODLgFcA9B3wCcL6ZFwK+bROwMTDA/2Pv/nXbxrIwgIv0WixYKEXsBaKCj8BHsAaI+wSwXDj9FnbhR6D6aVQ4xWwdL2AG2PQbYOVHEPYJVDhFvMCMCy0geUfiDAYzu04iief+5Tm839c70lD68dxz7qUGcQt45RIwKnALAD+AUXMp7B7FAmAARngBVjqKBcABAp6BUXM5snsUCz0wACM+k9s9yYEKDMAIM8AzAAZgAGaarB7wHIABGICZplcPeOEQMHpgAYBTAOab+if6lTaCUYEBGGEGeA3AAGxryolYDuGBYJVvMQADMOIzewTAI/TAAAzAPEN4IFjlA0IFBmDEZwjPE6oMKQAYgBFugOcAHDTgDIAZZ1IPeOEOMHpgAEZcA165A4wK3ALAt1DUYAqr+0gAHCDgERQxBzwCYAAGYJ7Jre4joQcGYIQd4BkqcMiAcwBmnIwAeAHAAAzAPNMjAF4BMAADMM8QHkdSeB4JPXCAgAdQ1GAojyPR77GowC0EfATAjEN5HIk+hgbgFgIuAJhxKI8j0cfQAAzAiNdQnmagj6HRAwcIGIjYA165AowKLADwxNaIE3GRCUXwAIABGIBZhnIYmjyGBmAARhgCnjkCjB4YgBGzUA5Dk3+UAxW4fYAjxc8U8RvKYWjyhwTAAIwwBEz9JgMwACN+k5IA36IHDhVwDMCsQzoMTZ1ioQIDMMIR8AKAQwW8Z+ergTgK6TA0da8AgNsHOAFg1iGdpaQe5UAPDMCI59AAz5wARgXWGRr6BZwCMO+QDkMTPyYAtgR4KgfwHISaDeksJbEJBuD2Ae4BMO/ktDX0yAVg9MD8AWcAzDu0o1i0JhgVuH09cN0N/gGERABeAnCYFTi3cWdH3IV2lrJaDwA4SMBHAMw7tKNYNBHogdsHuABg3omJgBcOADuswDPRgGdyAE9BSAbgNQAHCXgCwLxDPEtZVWMADhBwVAEw80yIgOf2AfcAWGNvhhfgWwhqOAV1DT2wDhgVWOdm6RWw2XMXiIfk1DX0VBLgBwC2AngPgLknowJeSgI8B2ArgBOL1whxkh4VcP1nxagHlg14wQZwCsDck5IB36ECBwc4A2DuSciAa8dYjAAvRANeyQEMQE0nrqyVYEaAfwZgK4DrRpz4P6s0nqiyVoIZ9cAr0YDXbAAXAMw+E7rgd2Iq8BqArQCeWLhRIm5TWCvBAExzUr/oGTABHFUAzD45HXBNF8wIMAUfANcCjgGYfzIFwOtXQnpgygkhxoBHTADXXmb8qmzzSRUA7z6OxakCT0UDnjIBnAIw/yQqgHcuojkBngGwBcC1qzP8KGXz2VMCXF1t/5f6jADPRQOeMQGcAzD/RGqAH7e2wQeqew4GPXBsYW3HGPCcCeACgAVEDfDWQdZp7YayxQpsYzzKGPCCB2CzpQLiKYWq4E2r6IPz+j/0CXgtGvCu28+lP8AxAEvIUaWa66+KcHR8TjnP5RMwYR+JMeC1wX+5GuCZ2QbFFHyaT6YMuHq8Pvnfnz8fnpW0v/LZAxO+Wo0BJpxeHWhPChUBr8y+GQDMIL1KJ2X5w/CHv5bl+4/kP/Fage9EA77d+qYndgHv/LXRQv99Iv6SVJ7iFfBCNOCZdgFWBbw0+K/CT2KxSCwQsFEbKQDwXLsAqwLeUYIJXwwAZpCoKcA9l4Drv1ucAW9rTf9cWQe8NJhh4Rd1WGTSxgpc3wRzBrzltaPCPuDtJTgHYBkpWgl4yRdwoauqXzkAvNRfruMHOVgkbyXgWn+sAd9pktIAvO2HVgh/CsAskjUE2KAHpqxC7yQDXukWYA3AW35oJdN8l4jvpPIqMAXwSjLgTS/enbgBvHkRHU0AWEj22gm47v+I2hxgyuHVb9cP0WXlCPDGRTTlto7n+YPaR/INeMkVcK715t9UzgBvesKsAGDsI7nrgUmT8yvBgL9ZPxxW7gBveMr7UP21kJbvI9mswKS3vPtncJkDXuo0wLqAq8eBxsC7eoCdkPaRvAOulgOWgGlj/y+64APyKkkPcLX8sgZfkP5oBjsh7SP5B1x9fvK1PB7KAvz0hxMOP1SOAVePTxuOswqABSVpBrBJD0xdNNz/rnb/tPx62ModcLV++8c7PVOYUsy1P9rrP+52+xfEv5jCDovE8iowfdV/fzMcluWGtpI94Kq6OXnZiY5P36tcZX3A1bocvj5+Pjwn3y5uYSekfaRmAG8l2RxghZMz/y0/Ku4RGABWzgh2QtpHsglYr22figOsHp+AB6AT0hjaZg+sB3gGwACMMbTcCjznAThpCWA8jMQlqTjAeu94AcAuP1Ck3WNoAAZgRPAY2mYPLBpw3BLAeJYhrDG0zQqcADAAI37H0ADsY8HjETAeRgprDG0TcAzAzQOeAQ6XJE0A7oUKuNMSwFPACWoMbbMCR6IBTwAYsRsABmDljOCGTQphgDuiARftADyAm6DG0DZ7YL0iBsAA3NKk0ipwIRlw3grAOArNKHsADMCGnyfSYCJpgHPJgLNWAP4ZbMKaYlntgQG4ccA4SRnYFMtqBc4kA05bARgnKTmlD8AArJYZ1DBKIgxwKhlw0grAU6gJa4pltQdOJAPeA2BE3hTLagUWDThuBeAR0IQ1xbIKOJYMOGoF4AHQcEoqC3AkGXCnDYBxEItXYu+Ae+ECnrQAMA5iMZtiTURVYC0DbAAXLQCMcxyhTbHsAi4kAz5qAWCc42CWDIC9Ac5bAPgBZHgl8Q3YqAfWMsAGcNYCwFOQYdYEy6rAmWTAvRYAvgWZwJpgu4BTyYDTFgAeQQyz5ADsC3DSAsADiGGW1DNgsx54TzLgWD5gnONgl1hUBY4lA47kA8bvcfDLRBLgSDLgjnzAOMcRXBNsF7DO7YYP4EI84Ad4Ca0JttsD6xgAYGwDownmUoFzyYBz8YCxixRcE2wZcCYZcCYeMHaRGCaTBDiVDDiVDhi7SByTeAVs2AMnkgEn0gHjaWCOiSRV4Fgy4Fg6YOwisUwhCHAkGXAkHTCeBmaZviDAGiM3PoDdzQs9AcYuEst0BfXAGssFRoAL4YCxixTeRpLtCpxLBpwLB4xdJJ7JBQHuSQbckw0Yu0gBbiTZBpxIBpzIBowhdIAbSbZ74Fgy4Fg2YAyhueZSTgWOJAOOZAOeQQrTpHIAq09yGQF2Ni70AxhDaK6JBQHOJQM+Eg0YQ2i2KbwBNu2B1Z+94AQ4kwwYJ6H5pi+nAieSAaeSAWMIHeIaemEbcCwZcFcy4Ac4CXANPbcNOJIMOJIMeAomAc6hZ7Z7YOV7DSfArsbQXgBjhsU4znYox7YrsPIgiBXgXC5gHKRkHUdnOVYd64BTyYB7cgFjhsU6jpZdd/YBx5IBJ3IBz4CE9RraSXe2HqiWoHrAkWTAUaOA/40ZVnuT+Vl2mVdg1SkWK8COplhEwP/CDKu9cbJFOXYBOJMMOG8S8NTg9oFzWNzjYCt42XEBOJEM2HC/7iczwJmtewTCLw62gqfqY1gC4EgyYMOFzvdGgEddq58l0vIx1mrgpAIrrhV4ATabYi1TM8AGn/EIQoIbY9113ADOBAM261SmhoD1P2Mc4whvjLUeOAKcSAacGV3RxBCw9meMYxwCcum+ANvogRWXocwAJ0ZX1AzwQH8bCy1wcCV4YwG2UoHVlqHMAJuMGgbmgPvaL40EVoLvOs4AZ4IBG1zk/2w9R0oHrHmTxi5wcDtJmwuwHcCJZMD6v34yNgWsf//ALrCMFK4LsJUeWK2T4wZY+9dPlh1DwGv9m/QYNkTE3m9jrQZ6q18a4FwwYO050tgKYK0efI0WWEisHea46rgEnEgGnOkX4G3vXwGw1k0am0ihDaKXHaeAVcoIO8Bd/QJsBnil/fLYRJKSyNIgeuwWsMoohh1gvY2kZccSYI0xFlbQoZXgT1v/fTtDLJU1NDvAeo8Ujne9qBLgLlbQbY6NErzjjt23811RqGL8AHe1C7AZ4IXuR4wVtKQSbGGO9W77P59autlnggHrjArHFgF3sYJuc964m2BZBNyVDLivf0kLC4BVSzBW0LLmWKYleP3KA2D6mROGgGPtAmwEeK65hh8DhagcultA10+fyGf2UsGAlbvQTx2rgNVeH+egpeXC2QK609mzBZi8UOAIWLEEPmlCN0+wH0iAZ3qvfwcRIS2idy6g61ePM/K77HMHPLLRAHy9pskJVy2uv7aXWncPJIBF9FXNv21tx4J6m1moqFP55ZjCAHBfd02TGQCeau01oAAHNYn+ZPi1v6W/SSKCucrLq/R7uUExV1nkrMe1gL+87UWEa0u/g6AAS1xE6x7nWA4Mv/YKXxcigpnKy6vsmGQmxVyhBN/Vz+5GpMX902sbfah07n+IkOzrtcGP9f4SexNPGoKpijqVr2tqdC/4oHdP7FLuFTnhjkKdY70CBpHROpD1xWJPq24qNVy0KjJS+d6OFV4+Nuodu3rXNKIM/vuUO8qFevlHWj7IuqL8wy/MKrgqgrXK7Fjt148vjZoBYpfyjlBdvx7dxxPCzYl0+8MIWm5euPHb6QzLbbk5sT9s+7qEHJY7cqX06vu7/ql3drqUz1uXRj/988cf78vyH39/f/ONshebLq7OIgsFWHDOFP1eNzBs+6AMQNYdcsOS5PXx89fPXz/77tnL76I/vXzp9A0soSAcwddNvMW6KlI/FW8w9V3o2u0I6U2zL484rxET5n7rqshn1i1c7fphfeX4DVwYnGpHJEyyqIJdf9X0lgmfmVeQuvWD84u6f2F0KAdhn33aduXjSXNv8Uxo/a2/Qb71sAi4rARfPoTwCZ9TRqWNVrptgm8EfAF3CfbSlGxfRcNvSzJ8X7d8ftvwR324aZnw+FbE1d26xPHVlERn8Nv2ZfTZznX0zUnz7/BcXPtb14Z6bEpON3281/AbBuF7HoXuoOT4rogtwIaLe+Pz/vPt/e/+BF/6lhE+LDfxLYds3uHBafl7P7kum17Tm94f731f1oPzp724tOuH0L5mp+WX3XB5ze0+PfwtL+Vd22j4/2u7buSu+OunW3789cXvy5shvuttzfPjg+FffjtY+7fh8BnHdzj4pV06KAEABAIg+NEAgoUEC/i4EEbStKYQEWYiLJv+bRux9nzYNZc6enM5AAAAAAAAAAAAAAAAAAAAAAAAAAAAAAAAAAAAAHDLAQ0ePmgUysoyAAAAAElFTkSuQmCC;" parent="1" vertex="1">
          <mxGeometry x="1293.26" y="390" width="70.99" height="40" as="geometry" />
        </mxCell>
        <mxCell id="JlAwPcuOS6jkdKTEwvYF-1" value="" style="shape=image;verticalLabelPosition=bottom;labelBackgroundColor=default;verticalAlign=top;aspect=fixed;imageAspect=0;image=https://icon-library.com/images/docker-container-icon/docker-container-icon-29.jpg;" parent="1" vertex="1">
          <mxGeometry x="1287.75" y="468.5" width="76.5" height="76.5" as="geometry" />
        </mxCell>
        <mxCell id="-czxyIKFuqTJFSKeoeac-30" value="" style="shape=image;imageAspect=0;aspect=fixed;verticalLabelPosition=bottom;verticalAlign=top;fillStyle=solid;strokeColor=default;image=data:image/png,iVBORw0KGgoAAAANSUhEUgAAAVMAAAHUCAYAAACH/ssUAAAABGdBTUEAALGPC/xhBQAAACBjSFJNAAB6JgAAgIQAAPoAAACA6AAAdTAAAOpgAAA6mAAAF3CculE8AAAABmJLR0QA/wD/AP+gvaeTAAAAB3RJTUUH4QgVCgItPAU1ygAAgABJREFUeNrsXXWY1Nbefk+ScdlZd19Y3J1StEKBuiu3/tXdvffWe+t26+5KC22RAgUKxV3X3cc1yfn+WAosO5LZnVlh8z5Pn7KTEzs5efPzH4EMGb0DTE5OThIhJJkRxTQQkgRKkgih8RRQA9BARAwANQjVBT8UsYPACkotAGMFpVaAmAnQTCHUiCxbqdVqa3bu3OmVp12GVBB5CmT0FBQWFhoEt7sfKFNAidgPlPQDQX8AOQCSALBdeDkUQB2AakpQRSjZR4A9gLjTS+me8vLyFvmJyZDJVEa3Y0B6ejyvVI6GKI6hIKMBjAaQ3YtuoQYguwil2ymDtZRh/iouLi6Xn6xMpjJkRBU5OTk5HKUzATKDApMOSpvHGmoArAXIX6DCmszy8nXLAV5++jKZypDRGfI0scBJOEigAPL74DS0gGAxgEUiIYtKSkrq5JUhk6kMGSGRlZUVq2CY00BxDoBZAJTyrBwCBcgmQujPAiGfl5SU7JWnRCZTGTIOoaCgwEh5/kxQnAtgpkygkt+89RDxCRTsF0VFRfXyhMhkKqNvgs3Pzj6RgFxMgTMAaOQp6bDAygPkdwr6XnFZ2Q8ABHlOZDKVcYwjNzd3OBFxKQG9EECKPCMRRzGleFnj0r27s2GnXZ4OmUxlHEPIy8uLITw9DwSXAnSyPCNdAisIPqAM87wcbiWTqYzeDSYvK28GQ8R/UeBMtGYY9WgkxJmQkBALtUoFjVoJvV4HlVIBjmXhdLsBAD4fD7fbA4fTjRazFc0tZjic7p58W15C8Ton+P69p6qqSV6WMpnK6CUoLCw08C7vfIDeCIJ+Pe36FByHwn45GDIgHwML85GemojU5ESkJCdApVR0jK18PpjNVlTXNqC8shYV1bWoqKxDeVUtikrKewrZmkHxpMDg5dLSUre8UmUyldFTSTQ7O9cH5gYCegWAmB4jHjMMhg3uj+nHjcH40UNR2C8HCo7rsvNTSlFZXYc9+0qw50Ap9u4vwZad+2A227prSsoo6P3FZWWfoTXdVYZMpjJ6AnJzc4czIn0IwGno2rz3wAuSEEwcOxQnzzwO0yaPQVxsTI+aM0opSsqqsGnbHmzathsbt+xCVU2XRzb9ygr8lfsqK6vkVSyTqYzuJdFshtL7QHFFTyFRlVKBE2dMwuUXnYF+eZm9aj4rq+vw1/pt+GvDVqxZtwV2h6srTmsBJXcVlZf8T17RMpnK6Gp1PjMzjSfsgyC4AoCiJ1xTjFGP+RecivPOPBlGva7Xz7HH68P6zTuw+I+/sPTPv7vCJPAdUXDXHjhwoEFe4TKZyog2iRYWGni39x6A3gJA2xOuSadV45Lz5uLS8089JkjUHwRBPEisa/Hb8jXRJNZqQnDWgdLStfJql8lURnTA5GflXgxCn0YPCbJXcBxOnzMdN1x5AeLjYvrMgxAEEX9v2oGvf/odf6xcDx8f8WJSHlByY1F5ydvyspfJVEYEkZeVNZMhzPMUGN4TrodjWZx92gm45rKzkJgQ16efTYvZip9/W4EvvvsNZZU1kT04xZtqg+5muUuATKYyOonc3NxCQumzhGJepxYGISgoKMCEiRMwYsQItDQ34+133kVdbW3Yxzp+4ijcceN85GWnyw/oCIiiiDXrt+Lzbxbhz7WbIYpiZPiUYqVX5M+orKxslmdZJlMZYaJ/Wv8EQeF5CCDXooPOJUIIBg0ahOnTp2LSpEmIT0hoK1G1mHH5vy6H0+mUdLyC3CzcedNlmDxuhPyAQqCiqhYffv4Tvv9lGTxeXyQOuVsgOKW0tLRUnl2ZTGVIQE5OjpoVcRMI7kMHA+7T09Jw4uyTMH36dCQnJQUcZ7Nacd55F0AQghc2MpkMuOHKC3DOvFlgOVZ+SGGgsdmMj75cgK++/y0SIVa1oOLcovLyjfLMymQqI8izy8vOvoCAPIEO9E5iWRbjx4/HvHlzMXLUSBASfCnwPI9nn3kOy5cvD3xMjsGFZ56C/7vi3F7loaeiAFARlFJQKgKiCEpb/wOlACjowf+D0tb/HZGARI5+jRgCQhiAMK3zevD/hLAgLANCOCDEfFttdrz/2U/45Otf4HJ1JoOU2gGcW1RWtkh+ZWQylXG0+pyTM5VS+hxAxoS7b1xsLE6afTLmzDkFiYmJIcc3NTZi6bI/sGjRQlRXBXaWDBqQj0fvuhYDC/N6IluCikIrQQp82/+L3VM+lBACwrAAw4JhFSAMB4blAMK0GdfQ1IK33v8a3/y0BLzQ0WulPAXmF5eVfSq/PTKZymhV6XNYiufRWskpLAwaNAinn3EaJk+eDE5CfntLixnPPfscNm/eHFSt12rVuPHK83Hh2XPAskz3ciYoIAgQBR5U5EFFH0SRB8Tek8ZOGAaEVYBhlWA4ZSvhAiitqMZjz7yFvzft6OihRVByrRw6JZNpn0ZaWppWq1TeRSnuQphV7UeNHoULL7gAQ4cNlbyPzWbHrbfehory4KU0p00ejftvvxqpyQndQ54CD1HwQhR8oIIAKh57jUAJw4DhVGA4FQjL4dsFy/D8ax/BZnd0aMoowW3FpaUvym+VTKZ9T6XPyj2bEvocwrSLTpgwDhddfAn695deSc/j8WDDhk14+eWXYG4xBxyXGB+Le2+5AifOmNjF5OmDwHtBeR+o6Dtox+xLbysDllOiyeLCv194D3+s2tDRAz1YVFbyb/ntksm0j5Bo1mBKmJcBzAhnvyFDh+Lyy+dj8ODBkvepr2/A9h07sHrVGmxY/zc8Hk/AsTOmjMNj91wHk8kQffKkFJT3QOC9EHkvQEV5YRziVRYff7eUvvzO10QQOjIv5ImispL75ZmUyfSYRU5Ojpql5EGA3okw4kWzc7Jx9dVXYcwYaT4pURSxf38RNmzYiMamJhQd2I99e/cGlPY0ahXuuPEynHf6SdGmUAg+L0TeDerztvGay2iPvzbuxr1PvC3YnK6wY9AIwaMHSksfkWdRJtNjDvlZWZMJYd6hwACp+xgNBlx62SWYM2cOGDb0+ySKIvbt24+/129AS4sZXq8XW7dsRkN94Jqchf1y8ewjtyAvJyOKKjwPweeC4HMfDEeSIRUV1Q24+eHXhbLK2o4Q6n0HSkuflGdRJtNjAoMHD1a67fb/AOQ2AJJc4gzD4JQ5c3DZ/EthNIRWuUVRxI4dO7Fx42ZYba3Vi1qam7F500a43e4ALxrBxefOxa3/dxGUimhU7KMQeR8Er7NVjZfRYVjtTtz4wCvYsbe0AyRAbz9QVvZfeRZlMu3V6JedPVAE+RTASOmmgGzccsstGDhooKTxxSWl+PPPVTCbLYd+Ky0pwe7dO0EDhA3FxcbgyYduik4qKAUE3g3B4+i2OM9jEU6XBzc99Co27zgQ9hMhoDceKCt7TZ5FmUx7p1qfk3MZKF6HxBqjCoUCF110Ic4971ywElT6+voGrFy1ClWV1W1+37VrB0qLSwLuN2RgAV584i6kJMXLJNrL4PZ4cftjb2Ltpt3hEyollx4oL/lEnkWZTHuVWu+yO18goNdJJt68PNx5913Izc0J/UK53Fi1eg127d7TzqG0Y/t2lJcFVgXPnDsT999+VYe7fQaC4PNA8NhlEu0CeH08bnv0Dfy1cVe4u/pESuaUlJcslmdRJtMej9zc3GRGpN8BmCRlPMuyOPvss3DJpZdAIcFuuf/AASxf/qffyk4H9u/Dvr17A5yHwR03zMcl586JrDAqCuDddoi8R374XSmhuj249t6XsH1PSbi72gjotANlZZvkWZTJtMeiIDMznzLMrwApkDI+NtaEe++7F8OHh67v7HA6sWL5Suw/UOR3e2NDI9b/vdZv6JNGrcLTD9+CGcePixyJUgrRYwfvc8lNibsJFqsdV975XxSXh12AupYDnbS3rKxEnkWZTHsekWZnj6IgCwEkSxk/dOgQ3HffvYiLD2233Lt3P/5YviJgsL3P58Ofy5fD7WnvtY+Pi8Grz9yHoQMLInavIu8F77bJKn0PQH2DGf+6/VnUNoRdJ3of61NO3le9r1GeRZlMewzyMvPGEEZcAon1Rs8480xcfdUVIeNGeZ7HmtVrsXnr1qDjdmzfhvKysna/pyTF452XH0FOZlrEpFHBbWuNFZXRY1BcVo35tz0Lh9Md5vPEytjE+FkbN270ybMYGnLl3igjNzd3GAu6BEBsyIfBsrj55ptwwQXngzDBw01bzGb8+MMCFJUE18Rampuxc8f2dr9nZaTg/VcfR2Z6ZPrsUYGHz2mGKMjvXU9DrMmA/vmZ+H3lhrDqGRCCbJfTHddiMS+UZ1Em0+6VSPPy+jMi/QNAyLJKOp0ODz/yCI6fOiW0pFFSgh9+XACbzR5SUty4YUM79T8vOx3vv/Z4xEKfRJ8bvNPSWkxZRo9EVloSdFpN2B5+AoyLN8VUNlssm+VZlMm0u4g0hhHEpZBQ7SkuNhbPPvcsBg0KnUW6Zcs2LFn6BwQ+tD2yvKwUlRUVbX5LT0vGB68+iqQIdAillIJ32yB4HPID7wUYOiAX9U1m7DlQEeae5KR4U8zSZoulUp7FwGDkKYjOvDKC8ImUHPuExAQ8+9/nkJOTHZK4/li+EitW/impi6XX620XBpWYEId3XnwISYmdl0gpFVrVetk+2qtwz/UXYNjAsLshqCjIt4WZETKuy2QqQyoKcnIeoiBzQ41LSU7G8889i4z04C2QeZ7Hzz8vxLZt2yVfw549u+HzHbZfGnRavP3igxGxkVLBB6+jGVS2j/Y6KDgWz9x3FeJNxnB3TeUZ9mOZM2Q1v+vU+8y8sSDih+2a+RyF+Lg4PP/f55CSmhr0eD4fj58XLkRpabnkazC3tGDXzsPtLViOwctP3YPhQwo7fX8i7wXvssiVnXoxdHoNhgzMxy9L/wq3wHZunCnG1mKx/CXPokym0ZVICwpUoMIigASNJdXr9XjqmaeQmZkZgkh9+HHBz6isqJJOdqKI9ev/hvcIp9N9t1yBU044rtP3J/hc4N1WOQi/l4EQAkahBqfSQqE2glPpkJGRAb1Wg9XrtoR7tKmmuNgFZrO5Tp5ZWc2PGkQv/zCAQcHGKJVKPProw8jLzQ1Jir/88mu7IiWhcGD/PtgPltgDgHNOOwEXnDW780TqdYJ32WQi7U0kyrDg1AYo9AlQaIxgFGqAORxafsl58zrSekbFiOInOTk5anmGZTKNjnqfl5dFCG4NNe6GG67DkKFDQxLpwkW/oay8PKxraGluRtGBw+XXCnKzcPfNl0dIIrXLD7kXSaKcSgelPg6sUgNCAufmPHbP9R1I2iBDGIon5JmWyTQ6C5gXHwMQ9Gs9+5TZOOnkk0Mea9kfK1BUVBzW+T0eDzZv2nTIBqZSKvDUIzdDrVJ2UiJ1tUqkMnqPNKqLBavSQUqCo16nwQtP3AWNWhXeeYCbc3Nzx8kzLpNpRJGfmT8EBBcHG1PQrwDXXfd/IY+1efMW7NwZXmA1z/PYuGE93G7Xod9u+b9LMKAgJwISqUykvYZIWQ4KfRwYhgtrv355mbjvtivD5g5WoK/IHCKTaYRnkb8LQZx5HMfhrjvvhFIZXEosKy/HqtXhOUq9Xi/W/rUG5paWQ78NGpCPCztpJ/2nWImM3kOkSm0sSAfLbZwxZwbOnDszrH0owbj8rNyL5dmXyTQi6J/WPwEg5wQbc+FFFyI7RFC+0+nE778vAc/zsNvtaGxoRH1tHZoaG2F32NsF6guCgMrKCqxauRJWy+F2JCzL4OE7rwHLdvzRUsF3MPypW/RUEMKCMK3/yZCmdHMaI0A6V7fovtuuDF+bIfSxgoIClfwMAE6egs5B4LyXI4itNC83F+eff17QY+zbtw/vv/8RiouKYLVaAmY4KZRKKDgFBIEPWG7v7HknYPCA/I4TqSjA6zJ3YRwpAaNQgWGVYDhFewKlIkTBB8HjgijITff8vsQqbViqPS8IaGmxwOP1gRACo1EPg04LtUqJ5/99B8674i7YHU6ph8uGz3cFgNdlMpXROSYguCbYgCuvvtJvv6a9e/Zgxco/sfrPVaitkxay5/N64fMGJhSVUoFr5p/VcSKltFUiFbuASAkDTqkBq9C2CdfxN47hVGA41cGEAatcUOXI6SEEjFITdIzb48XSleuwau1mbNm+F9V19RD4tnNo0OuQk5WG4YP7YfqUsVjw6wrp6wbkZgBvAujTD0Ym006gIDt7BAUCJjoPGToUo0ePPvR3SUkpli9fjuXLV6C2pibi13PmvFmdyrvn3VaIAh/1l59V6sCqNAi3nC7DKaHUxcPrMsuprP/MiUIDEiDZzuF048MvfsTHX/wMWwhJ02Z3YPuu/di+a39HLqN/QVbunAPlJQtkMpXRIYiUzAtmppo2dQp+++137N69G5s2bERdfX30XiqG4IqLz+i4ucLrgOiLbp8mllOBVes7ZwtlCBQ6E3hHS9SJv3eQqX+n5tYde3HXoy+hqrprEpUoobcB6NNkKlfa7wTys7PXA2RMT7mez995ukPtR0TeB5+rJXoOJ8KAUxvAKsLzU9TUNaK8sgYWix2UUphMBuTlZCAxPhZUFOBzNIebW37MqfhKQ2K731et24xb7n0Gbo+3i8mEjjpQVtZn657KkmlHVfycnAmUYnRPuqYFvy4Pn0z/sZNGiZMYTgFObZQkjXp9PqxYtQGLV6zDmvVbYDb7D83KzkjFaadMwxmzp8Co7rvyAGHad6stKqnA7Q881+VECgAUuBXApbJkKkMS+mVnD6RgHqegZ3bF/Gk0GiQnJyElJRkJiclISkrEsqVLUVravqeTyWTAHz++AwUn/Rvpc1mjVpOUVWrAqQwhZ6nFbMWHXyzAtwuWoMVslXx8vU6Day6Zh/PnTQPD9L2lzCjUUGjaltK77PoHsHHL7u66JK9H4FMrKyub+yI3yJKpREwDuIrs7LtFkIcAqozKy8Ey6F/QD/0H9Edh/0L0H1CIzIyMdrnVLMPi7bffbre/2WzDlu17MXbkYInqvSd6RKrSglPpg45xe7x4/9Mf8cHnP4Td7A0A7A4Xnn/zK2zdeQCP3TEfKqWij6n5bR1PG7bs7E4iBQCliuPOAfCWTKYy/KIwMzOtgmG/ATAx0sdWqdUYN3YMJk6ciLHjx8FoMITc57jjJvklUwBYt3GbNDKlInxua3QWlUp3MDc8MP5avw2PPfsWKqpqO32+JX9ugl6nwYM397FknKM+sgt/X9UTruoimUxl+EVBVtZgnjALAWRF8rhDhw3FaaeeivETxodMMz0aKampyMvNRbGfzqRrN+zADRLSrH1uW1TiSVmlNiiR+ngeL775KT76YkFEnUc//LoaJ00dg3EjBvSdxSm27QO2bbf/sCaGIUhJikdygglKBQevj0dTsxV1jS3weCMcYkZxXG5ubnZJSUmZTKYyDiE3N3c4FelyAKZISaGzZs7AvFNPRW5uTqeONXDQQL9kumtPEQRBDJpOKvrcUQmDYlgFOHVg1d5iseGGe57C5m17ovK8Fiz+q0+RadtYW4q6usZDf2k0Kpx4/BicMGUURg4p8Fs9TBAEHCitxpadRfhjzRZs2rEfgtDpuHvCUnohgCdlMpXRqtpnZ+fyIl0UCSJlWRanzJ6NCy+5CHGxsR0XREQRzU3NaDa3gAsQX+j1+VBZXYfszNQAggOFzxOF2qSEgUIbE3BzZXUdrr3t3yitqI7aM6uobuhTa1QURVBRBGEIfE4LBEEAyzI4d940XHH+bMTG6EOuy8L8TBTmZ+K8U6ehyWzFdwtX4ZufV6CxpeMmIEpxkUymMgAAw5KTdQ6QXwCkdopfCMGU46dg/vz5SE8Pv7Gjw+FAZWU16mrrUFNXi4aGRghCq2p3ZHGTo1FcWhmQTAW3AxAjn/WnUOsDtr3avvsArr/zCTS3WKL63GIMuj62UikEnxMQBYi8F/3zM3HtxXMxckhBh44WbzLiqgtPwWXnnIhvfl6Bdz5fBIutQ228B+fm5g4rKSnZJpNpH4dDpXkVwMDOHCMxMRG33XYrRo0eFZakUVNdi9KyMpSVlaOhsTHgWK0uMHFU1fqX0KgoQPC6Iq/ec8rWlhh+sHtvMa686eEOeevbS1IMdBo1HC63X3V0/KiBfW6tCp7DaaKvPH4DlIrOv9JKBYcLz5iJuSdMxAv/+xY/LV4T/rOidA4AmUz7Mgqycs+hhM7vzDFOOulEXHPtNdDppElKzc3N2Lf/AHbv2gOrTVoNUY7jwHIsBF5ot81i9a+itbYeiYLTKUAIVGV1Hf7vjv+ETaSxMXqMHV6I0cP7Iz8rDRlpiUiMa2tCaLHYYbbaUVpRi/0llSiuqMNpJ07q02s3EkR6JIx6LR6+7RLMnDISDz//AcwW6VKqKOLkvqbqy0H7R6v3avUegGR0ZH+NRoM777oDkydPliSF7tu/H5s3b0V9fcdsfSv+WAaHo/0Cv/Ds2bjv1rYufZH3wuc0R55IFSpwmva2UrPZhouvvU+yjZRlGUydMBxnzJ6MCSMH9ckg/J6Mmvpm3P7Ym9hbVCF1Fx9lmcTi4mJLX5kjWTI9Ur1Xa+8DaIeINCU1FY8++ghyQhSB5nke27btwOYtW2G3d84RpFAoAbQnU+fRkiBF1Krm+1PvRVHELfc/K4lICSGYPmkErrvsVORmpsiLsIciNSkO7z57O2599A2s37pX0vKEIMwE8J1Mpn1NvS8oSKQ+/pYOSbTDhuHBBx+AMcYYcAylFAeKirBq1V+wWiMTLM+w/qU3hmnrCBJ4N6goREGvaa01ejQ++OwnbNiyM+Tu8SYjHrz5YkyZMFRegL0AGo0KLz12PW579A2s3RQ604oAJ8tk2gchevlbCYE23P3GjBmDhx95KGjgfVNTMxYvWYq6usiW4AtUx/LosoBHOikiquJz7e95f3EFXn3ni5D7Thg1EE/cc0Uf9MD3bqiUCjz7wDW48s7npaj8s/vS3Mg9oAAMThysJwTXhbvf+PHj8cijDwckUkop1v29Hp99/mXEidQfaR5W/w/nqIs+N6gYnbqfzFFkKggi7vv3y/D6gmfVnDN3Kl5+7HqZSHsptBoV/vvwtTDqQ8keJCMnJ6fPZFHIZArApXOcAyAmnH3GjRuHBx96oA1xHQm3y40ffliAtWv/DtjTqbMIlK0SYzzsXec9jqjNGzmq79CC31Zg997ioPtceMZM3HP9+X5bucjoPUhJjMMDN18UmmAo7TMhFjKZAiCUXBHO+Lz8fNz/wP0BibS+vgGfffEVyisqonrdAu9f4jQdtN2KvCc6ttJ/5u0IQhRFEW998E3Q8eedOg23X322vOCOEcw8bhQmjwleVIcAE2Qy7SMozM7OBaR/PQ1GIx559GGo1f6rxldVVeHb736AzRb9nvO84J8oEw7GZApRlEpbs50O2xlWrdsStALUlHFDcfvV58gMdIzhlqvOalci8ihM7Ctz0efJVCDkdIQRb3vtNVcjOSnJ77bSsjL88OPP8Hq7psq5N0C75+yMVIiCt0t7JC1c/GfAbVlpSXjiniuCFl+R0TuRl5WK8SODmUXJoLy8vJi+MBd9fnVTilOljh0ydChmzprpd1tdXT1++eVX8HzXEJgoigHPlZWZBsHjivLEiW0k5JVrNvkdxrEsHr/rX9BqVJBxbOLsOccH5xgeY2UyPdZV/MJCA0CPkzr+X/Mv9avSWCwW/PDTgi4jUgBwe/ynaMbHxUCnUUEUPFG/hn/qkW7csgtWm/8EhCsuOAVDCnNkxjmGcfz4oUhOCFwNjRDaJ1T9Pk2mgsczCSCSYm2HDBmMIUPbB5fzPI+Fi36D2+Xu0mv3BDhfTlYaBK8zep1G2winrR+PTVv91yfNTEvEZeecILPNMQ6WZTFzSuCCPgTiOJlMj3kVnxwvdewpc+f4/f3Plas7nFvfGTic/p1L2RnpEHxdQ+wi32obLir1H7Vwz/UX9Lm+TH0Vwbz6IsjgvjAHfdxmKs2Lr9FoMHlS++IlVZXV2L5zZ7dcudPhn0xzM5Pb2DOjSqY+FygomprN7bbNmjIKE/pgSby+ilFD+wWMcCFAzuDEwXqZTI9tDJcyaNy4ce0WCs/zWLJ0WUT7GIVHpv5TRAf2y+iya6CiCMFth0LRNgCfY1nccuVZMsP0ISgVHMYN7x9Q03epXcd8JlSfJdPc3NxsAJJ6iIwZO6bdb9u27YDZ0n3VxZx+1HyGYTAgJ61Lr0PwupCRktjmtzknTERqUpzMMH0MwwbmBdxGCB0kk+kxCiIQyaWKRo0c2eZvj8eD9Rs2duv1+6tjmpuVBo1G2eXXMnvamENRDizH4PJzT5SZpQ+isCAzCNPQY95u2nfVfEaU1CgnLjYWCYkJbaXS7Tvgdru77dK9Xi98foqJdFcI0rCBObj9uovAsgzmzJiEjNREmVn6IAYUBO6GTjvZBqg3oM+W4CNArpRx/Qa0tQNRSrF9+85uvfZAzqeBwSSDKOPiM0/AtCnjwQlOyOibiIsxIDHBhIZGc/v3jUKWTI9VUIlkmpHe1qFTUlLaJXn3wWB3+A+QH9Q/u9uuSfC5kB6vRWKcscc+85KKWpnxJKCqphG3PPp6h/bNzwrY0Dd72jEuvPVdmymlkto4JyW2zcPfvWdvt1+7w0+7E5VSgf55Gd13UZQeijvtqXjhf9/IhCoBHp8Pf67dLqma/tFITQ7oeGTL8/LSjuV568OhUUSSuzkp+bD9j+d5lJaWdfuV2/2kbg4oyIKCk2uEBkNxeQ3e/XyRPBGhvotia7jfB1/9Fva+6ckJgY/ro9nH8rz15ThTSWFRiYmHybSivLJL8+/DkUyHDMiVWSAEzDYHfl+5AdV1TfJkBBMzDnaGXb91L3btKw+PTIM4HwkjZslkemzetyTj3pFkWlZR3u0XTin1m0oqFxMJQg4gIKwCBK3dCb5csEKelAAzxXBKJCUf1sY/+PrX8NT8IPHFDCBLpscasrKyYgBI0omNBsOhf9dGoY9T2FKpw+4362qoLJm2pQVWAU6lg1IXC6UhEUpd7KEOBD/8ugoul0eepCNJVKGGUh8HhdaEuIQEKLhWX9Efa7agvEr6ujcZ9UEEAZJ5LM9inyRTtUQVn2EZMAdbc4iiiOam7lcP/aWRxsUY5IwjAIQQsEotFPp4KHWxYFU6EFZxqPR3emqrM9HucGHh8r971LV3V1oyYVgodbFQaIwgDHtoHpMS4w6ue4qPv1ss+XgxRl0wzpbV/GMNAmUkFatVKA5nE7W0mOHzdb+91OVqX/S5X156XxeswCo0UOrjwan1YBj/SsfwwYdjhr/4cXmPuPTvF63G8WfdijOufBjVtY1dem5WoYFCFwfCto9YKuyXc+jfPy9ei8Yms6Rj6rWaIB0VqEymxxLys7NnUIJ3pYxVqQ6TaUNDQ4+4fpfL6YdMM9FXQRgWSm0sOI3hYF+qwBgx7HASTnFZNbbsLOr269+0Yx8cTjcqqhvw7Jtfdd2Lr1CD0xgC9m8a2O9wnr3Xx+Pzn/6QdlyGQK8L1AKaJMhkeoygICv3EoAsIgSSGrYrlYfJ1GK19oh78FeEul9OGvoiCKuAUhfbqspLwMgh/duQx9c/d78j6siW16vW70CLxR79c3IqKNTB/a/DhxS2+fubX/6EwykthTpGH4hMEY8w+q3JZNpTiTQn515K6IcAJFcCYY548ZxOV4+4D5fb5UfaTkVfQ6tEGhNSGm3zkscYMOwIVX/pqk2S1ddo4cjyhaJI8feWPVF+4wk4jTEkpY0ZORCaI/p22R0ufPPLSmnzHNhuqigoKDDIZNp7weZl575GKZ4I96t4ZDERp7Nn5Jy7jroOlmWQl9X3JFNObQiLSP/BKSccbvnl4wV89uMf3XofcTFtuWXd5uiSKavUAyT0a6BUKDBuVNt0+s9/WAavBL9BjCGw4sfz/DHrKT2myTQnJ0edn5PzOQG9riP7H+lwcvUAyZSKIjzetiE9mamJUKn6VmsQwirAcB0rNXjyjMlgucPL/tuFf8Lu6L5nm5zQlls2b98fvXkjBKxCLf3DM6ttr8mGZgt+Wrwm5H5GgzYwmYtivEymvQx5eXkxLMVSUJzT0WN4vd4jpBhft9+T1+s9lOr3D9JTjmmbvv8Xkut42+j4uBhMHjuijfrakbTJSCEluW2UXnl1PXbsLY0OmXLKgA4nf5g1dRIMRzmT3v5sETweX4clU8KyMpn2MonUBEH8DcCkzhzH5/N1W/xfKLPDP0hNOmbXZpAXsnPFhy4855Q2f3/2wzLUNjR3y70UZLUPa3vni4XRedmZ8OZNpVLghKmj2/zW2GTG97+tDrqfXqcJuE2kdIJMpr0EA9LT41mKZQQY32m1mtI20ml3gxfa26uSk0x9jkxBOucQnjxuBPJzD4eTebw+PP36l91yK0mJJiTEtvWs/7l2O3bvj3xBHcKEXwjn9JPbN/B9/4tFcHsCvxcadWDNgVDcm5uZO0Um0x6O/Pz8JB+nWAZgZKSOae/m2qVtyNQntPstLsaIPgdR6CQXE1x8TtvW3SvXbsPPS9Z2y+0U5rePE37/q9+7/SNEKcXQgXnIzUxpK522WPFNkLAyrSaoGUbNMPTXvKy8WTKZ9lDk5uYmg+eXAhgWyeNaD5a74xTd7+Shflo4G/SaPselQgTqpp46exqSEtuaSJ5540vsK6ns8vsZN6Kw3W9/rNkc8WuhoihxnADebYfP3giR9+K0k9q3OX//69/gDFDfIJhk+g/fEiL+XJCVO08m0x6GnJycFEakywAyJNLHttmsBxeIutvv85/SaG3JVNv3BFOfG1ToXGqvSqnA1Zee2eY3h9ONmx54tctL9E0a237ZiiLF0699EVGbveh1AghwPAqIvAe8ywKvvQmC13no3PNmTYRS0dbearY48PG3SzoimR56BJTQbwpyck6TybSHoKCgIJGj+ANAVFrJWiytZKruAWTqD/9U9+lr8LmtoLRz6v5Zp85C2lFtqhuaLfi/e19CVU3X5cnnZaUiLbm9I3HLziL8vjJyXXBFUYDPaYbo80AUeYi8F4LXBd5lg8feAJ/TAsHXXto0xegwfdKIdr9/+M1vqKlv9kOmkt8VJaX4Kj87e7ZMpt2MvLy8GOrjf6PAgHD3HaWSFl5js7baTHW67pcAGab94/L2gOIr3WLyEHj47GaIfMdL6bGguPriue1+r6xpwBV3PNelKv+JR3nN/8EL73wb0XKBIu+Dz2WBz94Mn9MM3m2D4HMBISTgM2Yf1+43j8eHV9773o+aH1YMsJKCfF2QnT1RJtNuQkZGhga8+BM64Gy62KjHHRIbv/2j5huNgce73S6YW1pQV1eLivJyVFSUo7a6BvX1dXA6nBFT1ZQKpR8y9aGvglIBPmcrMQgeJ0QxxIeFihB5L3i3HV57E3zOFsydMdZvYe2GZguuvvO/YVea7yjmzPQfMdTQaMZ7X/7WrfMsCCLMFrvfalC/r9zYrldUGJIpAIAAOgqyqCA7e2RvXo+9UkccPXq0wtzY9A2A48Pd9zKjHjeajPABYAkghOC5fwqcxBzhNfd6vaiprkJTcxNamlvgcbtDSpRGoxEJiUlITEyEKTY2rODpQ2TqR5p2ub3o6xBFHqLHDnhaX02GYUFJ678JIQAVQUXB70eNEII7/+88zL/1mXbbbQ4Xbnn4NXz26r1IiDdFXdUf1D/LL3l/8t1inDxtDPK7oKCNIIhotthQU9eEiqoGbN61H2s37varzrd+0Cj+88pn+PqNB6A+6HjSqjuUVBFDQX7Nzc09vqSkZG9vXIe9kUwZc2PTRwBOCXfH+UY9bjC1kqICQCbHoTSEmvxPaFRcbBwaGupRXlqG+vq6sKRNURRhNpthNptxYP8+aDVaZGXnIDMrEwqldJVIoVCAMKRNFlRVF9fA7AXyahsJVcpTGlKYg7mzJmDB4r/abWsyW/HICx/j1X/fGPUrP3/eDDz0/Ad+TTkPPPs+Pn75HnBsx5smen08tu0qwoGyGpRX1cFsscNic8Bqd8BsccBqd3Yotba6thHvf/Ub/u/SU1vVfG2HM9SSGIEuzsvLO664uLi8t6283kamJD8n5w1QnB/ujtfEGHDVUUUl8hSKkGRqsVqxd88e/O/td7Fj+/aI3ITT5cSePbuw/8A+5OXlIy8/v00ptoA3Twi0Gi0cDscRZNoAGZ3HDf86HctWb/ZbZu6vjbuwZWcRRgzOj+o1nDR9DF758Ac0NJrbbdtXXIkPvvodV17QMV/N1z+vwCvv/yC5jF5YLyUhmDDqsP9Xo1R24mDIJIK4OD8/f0pRUVF9b1pDvcpmmpeV8xAorg53v+tM7YkUAJLY0Le/edNm3HzzrREj0jYqFc9j/769WLF8Geol9pcyHGW7raiWJdNIICHWiMvPC0xUS1dtir5kw7I4b+7UgNvf+ewX7C+p6tCx6xstUSFSALjkrFkYOaTgsDlK2WkZrT944fucnBx1b1pDvYZM83NyzicED4ctcZiMuNzov4SiSoLd0uPxRD0/3+1yY8P6ddize1fIcxkMbcl074HyHlU/oKvQYrHj+f99g0+/W4Jfl6/H3qKKTkU2FJdV4+clfwXcvisK6Z1+Vf1TpyM2xn9TOh8v4JH/fgReCD8kLC42OmVE550wETf+64w2v7Es2ylzxEFM4ih5B72omHSvUPPzMvPGgIrvhjux840GzA/SLdEsiD3qPouLimC1WjB6zLiAan+MKabN3zaHC2VV9cjJSO5TZPrB17/js++XHvUSM8hISUBBbgbyslKQn52GvKxUZGcm+325eUHA9t0lWLD4L/y8dC2EIOuB54UuuS+NRoVLzz4RL737nd/tew6U442PfmpHYKEwYdTAyEphDMFVF87FVRfO9utMVSo58K7OzRkFvSg/O3dvUVnJ4zKZRgC5ubnZRBR/BhBWoOdZeh1uMBmCPChgi6fnecIbGxqxft06jB03HizXngDi4+LBMAzEI1IDd+4t7VNkKggCvlu40s/vIsqq6lFWVY+lR6nPCXExMOq10Os18Hp8aLbY0NRihccrLbSsKzPNzps3DV/+tDxgJauPvlmMMcMKMXG09DyV3MwUDCnMiUh5v4zURDxy26VtVPt2Wp9S4TfdlECaU/CIN/XRvOzs4uKysk9lNb8TKCwsNDAi/QlAWEwxQ6vBXbHB40hXutwo43tmwHtzcxM2b9roV31nOQ5xcW2zZTbv3I++hP0lVQHzwv1KlYKA2oZm7CupxKbt+7FjXymq65okEykADB+U32X3p1IpcPOVZwbcLooUDz37ARqaLWEd9+FbL4FK2fEaEzFGPW676ix89eaDQYm0lUz9O6EKlYpwSYcQkHd6Q1B/T5ZMWcHt/gwgYRUumaBR4d/xJrBB7KFWUcRTYS7E4KqZGgU5GcjNyYBRr4VKpYLXx8PhdKG6ph6795fAYgmv+lR9fR0O7N+Pfv37t9uWlJSMxsbDXvwNW/f1KTL1dZHKffhtJpg0ZnCXnvOEKaPw1YICbN5xwP8H12LDw899gFf/fRMYRpr1Ky87Da/++0bc++Q7aGyR3iCyIDcN58ydirkzxh+KJQ0ppQVw7iazBFNjdHjL4ghnOtQU+KkgM3PCgYqKop66LnssmeZl5zxLgbnh7DNSrcTzCXFQBiFSCuA/zRY0CJ17IdNSEjH3pKmYftwYDB6Q7zfV87AkIWLrjn34+qfF+GXxSgi8NFvtgf37kJCQgNi4tq0tEpOTgF2H/66obkBtQzNSEo/Z9jptkJWeBJVSEZZk2RmcfcoUDO6f3eUEfv9NF+GiG54IeJ/rNu/BB1//GjQK4WiMGtoPX735IL7/dQ0W/rEOpRW17WzFMUY9hg3IxfDB+Zg+aUTHTEgBnKIsCGZr1bAIFF/Yw+mrRhIow36XlpY2sbq62tkT12WP9JQV5OScRim+D+f60jkOHyYnwBQi3OlLmwPPtnRcKi3sl4vrLz8XUyeP8ZteFwpFJRV44D+vYvvuA9JUK1MMJk2e0s7Iv/yPZXAeEW/62O3zMWfWePQVPP/W1/jsh2VRP8/0SSPw5L1XQsGx3XKfH379O172k/9+SAJkCF567HpMGt0xydnt9qCuyQKn0wWVSonEeBMMus6XdZw3/wG/1bdma9W4Jqa1rcnrFjt+d4Zdd+DzorLSC3ukKt3jJNKMvH4gdBEAyTFmMQyDN5PjkRJiwTcJIm5vaEZH5BmDXocHbrsSD915NfJyMiSrVkcjLjYGp50yHdW1Ddh3IHS4jcftgU6na1cbwOFwwGI2H3F9WkybOLzPkOm4kQOwr7gSZZV1UTvHvBMm4vE754Pjuu81GTogF39t2IX6AC2pKQXWrN+JE6aM6pCTjOM4mIw6JMabEBtj6JRN9Uh89v1Sv9lUQ5QcRqha7amj1Ers8fKoCy+qZmhcTGxNi8W8saetyR5FphkZGRqWJb8SQLJOxQF4PjEOgyVkXXxrd2KVO/zA5VHDB+Cdlx7BuFFDOpRT327SGQYzpoxFRVUd9hWFJlS3y42s7LZTQkURNdXVh/62u1y44LQZfYZMGYbBSVPHwKjXYuf+cngiGJmhVqtw340X4tqL5wY133TNfRKMGFKAH39bEzB0y+P1YeP2/Zg7a0K3En8bMv1hmV8yHa5WYOhBwmYAjFErsM7tgy2cWGmCE2ONcb+2WFuqZTINgERT3DuE4ORw9rk7zoQTtNLUkidbzGgOM7Z0zglT8OITd8FkjGzQMyEEx08ejT/+/BtNIcwOHo8byckpUB1RU5XjWJQUFx/622Z34vSTJ0Ov7TuV9wkhGDogF+fMnYrkBBPsThcami0dTmJQcCxOO2kSnrznCowdXthj7jM2Rg8QYP3WwPU/mlqsaGyy9hjt5NPvl8Hupz36aJUSA4+QflWEYLRKgZVuDzzSHxtHCD05Wa/7uNFmc/WU59RjHFB5OTnXguKycPaZb9TjLImqzX4fjwPe8EKhzpw3C4/efW1EpFF/UCoUePLBm3D+lffAFyJMq7qmCsaYmCOkJw1UKhU8nsM2p43b9uOUGePQ16DVqHDO3Kk4Z+5U2B0ubNlVhP3FlSiprEVjkwV2h+vgf27wogi9Tg2jXge9Vo3E+BgMLMjCgIIsFOZnQqftmRmM8885CWs37cam7YHD4H5avAYD+2Xi3HnTuv16+QDrWe3nXUrhWNwTa8RDTRaE8YZm+TjlhwBOBdAjsm96BJnmZeaNIVR8MZx9pmnUuM4kvZncald46v0J0yfi4TuviRqR/oPCfrm46tKz8Pp7wbtjtjS3tJekFMq2ZLp9X58k0yOh12lw3NghOG7skGPqvliWwVP3XYkLr/tP0LCm5976GumpiZjcxaFcR8MVwOyiCuBrGKTkcE2MHq9Z7GGchc4pyMm5+0Bp6ZM9wvTU3ReQlpamJYz4KQDJdbuyOBaPxMeGdfF/u6V7DQtys/Cf+26Q5K33+nzYuGUnFiz6Ax989j1+/GUZNm7ZGVZRiUvPnwejQR90jMVsbpP1BADMUUS/aVvfCt7va4g3GfHvuy8Pui4FQcQDT7+HsqruLbjk8fh38warh3GCVoUTwyzfRyl9rF9OTo8IY+l2yVTDKZ8H0F+yakwInkyIgz4Mb7qHUsmpowqOw3OP3wptCHXPYrbijfe+xHcL//CbjaNSKjB57FCcPnsqph8/HoTlECjSS6/T4OJz5gSVTkVRhNvlglanO/S309k23K6ipgEOp7vHqqoyOo+xwwsx/5yT8O4XiwKOsdqduO2R1/H+C3fB2A0NF3lBCFiMRRPitb3SqEORT0CR5KI1hBMpPh2cOHjEzoad9u58Nt0qmRbk5p4IgmvC2efeuBgUhhm+UeTj4ZXolLjy0jNQkJsVdMzmrTtx2sU345Nvfw2Y1ujx+rBs9Sbc9MALuPS6B7B5wybwHjvEAD3fLz73FKhVwSMSfEcssNKSEvBHdeiklKKorFpmnGMc11w8F6OHBZc/SivrcO+T70AQhC6/PneQ7g+GENERSkJwd6wh5LijkO/SOp/udlNMd524f1r/BJERfgMg2U1+ll6LK2LC96qvcbmxUkIud2JCHJ5//I6g4SXbduzBlbf+G9Ywsjdq65vx0+LV0Kk4DMpLgXiw7zthuEM2WZVKib1FZSgqqQh4nLi4OPi8XhTt34/iIv9B/0P652JgvyyZcY5hMAzB8eOHYsnqzbAFWYeVNY2oqmnE9Ekjom77b6O12Z345Dv/baDP1GlhCKFV6hiCTI7DqjBMcwQYE2uK2dBisXSbravbJFNB6X0NQKpk8lUocFtsTIfOtV+iynDVJWcGlQ6tdgdue+B5uN3hd4sUBBHPvfU1HnvhYwg+L3i3DV57I3iPHThoC517QvCWVlu3bMa6tX+hoiJwR4ey6nqZbfoAYox6PPfgNSFz5Rf+8Tfe/uyXLr22YP4Co0Tz3Fi1AmfowwrzIwTkvfz8/KQ+RaYFWbmXgOJcqeONDIPnEmMlFXP2h3IJHTwNeh3OmDM96Ji3PvgmYFk0qfjx9zV45vUv/tHLIXic8NqbwLttOG7CcMQY9Z06fnMEC7jI6Nnon5uBf985P2Q23luf/IKvf17RZddltfkvYsIQQBuGr+NivQaDwzPpJVGef63PkGl+fn4mJfSVcPa5Jy4GaVzHfGVOKqJWQqD+vJOPhyZIi1qr3YGvvj/cclfBsTDqtR1KK/36l5VtChtTUAheF6jbgnGjBnVqfpvDrE4lo3dj+qQRuOrC0L0ln33zK6xYu7VLrsls9U+mRsKEVQyEIQS3mfRhOZsJyNkFWbmX9A3J1Ce8AkCyvj5bp8WJHczqcYkCWngfGiUY4U+YFrxc4qIlq+Bye6DgWNww/zQs/fI5/PH181j00RNITDCFfW2vvP8DSo/KK6eUYsLw/p2a3uYWmUz7Gq66cA5OPH500DGCIOK+p97D9j0lUb8em82/HdfQAcEjnmVwtVEX1j6U0BcKCgoSj2kyzcvOPgsEp0kdn8iyuCPW2KFzuUURzQIPCsAewpFv0GkxauiAoGP+/GsTlAoOz9x/Nf513smHwo9arA6/3SRDwevj8e+XPmmX+jhhdMfbSxBCcPFZs2R26WMghOCR2y7DwH7BS1q4PV7c+sjrKI9yDKrFZo8YmQLA8RoVpqjDij+Np17+mWOWTAsKCowEeFG6uA48FG9CTAcKTfgoRbPoAwXgpRRiiLCoIYMK/LYIORIHiivw2pO34PgJbWtVf//rqg7PyeYdB7B6w842v6UkxiE1Kfy6pGqVEvffeBHmzBwvs0sfhEqlwLMPXI24ENEuLRY7bnzw1aiagywBbKYmpuPBQ9fG6JAYTslLgsvysrJmHpNkKvqEJwCSIXX8BQY9Job3NWpVZyjQKHghHuRPj4T40kGFwVtSOJ1uvPTknRjlp2/6yrXb2i9spQI3/usM/PjeY1j8xTN46t4rkZwQ6/fY3/zcvpfRsIF50l8ipQKnnjAJn792P86YPVlmlT6M1KQ4PPPA1SFrr1bWNOCOx96CO0o90JrM1gAqe8fDs3QMwQ0x+nBsroSAeaMr20V3CZnmZeaNJaDXSh2fo+BwvSn8eFIRQIPghXAEf0oJWU5LDW5e0WrV6JeT3u73xhYraurbevcZhuD5h67F/HNPREZqIuJiDDjh+NH48IW7/FbCX71hB6prG9v8NnRAbmAJVK3CwH7ZOO3ESfjP3Zdj0cdP4OHbLkFWepLMJjIwckgB7rn+gpDjtu4qwk0PvQaXyxPxa6hvMAcg086FtQ9XKTBHFwY3EvTjgHu6au6jnk46DeAqGfFtKjFBgCUEj8aFHwZFATTzPvBHSaIKCd+yxLjY0EQttP+K7/BjzJ89Y5zfrpGJCSY8evuluPbel9rYSUWRYtX6HW0q/cw9YSJGHCUFq9UqxMXoOx06JePYx+knT0ZtQzPe/mxh0HEbt+3D9Q+8ghcfvS6iaae1jS0Rl0z/waUGLTZ6vKiR2PqHUtyTk5PzRWlp6Z5eL5lWZOfeSgHJRRbPNWgxWBV+tW+LwMNN208wJ+H5KSWcj/opKVZa0b7K+/nzAhdoHjO8ELOnj233+/bdbUnZoNNgYL/sNv/lZqbIRCpDMq69ZJ6kUnxbdxXh0pufiqhTqq7BP5kmRqDQtpIQXBvee6BiKd5EF7RoiiqZtmYj0Puljk9gWVxjDN977xQF2APkvCsIichNUtEX0jaUEGvEoP7BUzmvvmhuu6o/W/cUy2+/jIjjjmvOxpQJQ0MLPNUNuOL257CvuLLT53S5PH4r7ANAHBuZ7PXhKgWmapTh7DK1ICv3rN4tmfqExxBGTOm9cTFhBegCgJeKaBH4oDcY6pi8L7hllQo+v9XbW8xtPaL98zJDXm9mWiJmT29bc7SqprHLOm3K6DtgWRZP3XNlUBv8P2i22HDN3S9gx97SqKj4DFpjRiOFK4x6yampACAS+kxBQYEqmvMdNTLtl509EIReIXX8dI0aUzXhOd4EUDQJrSFQwRAqvKqx2Rz8QQj+ie7oL3BhQaak6778/NntpFOz1S6//TIiDrVKieceulZSG3Cr3YlbH34d5vB62reBv46kAGBimYhWVTIyBJcapNt5CZBLfcKNvZJMRUpeAIgkB5eWENwZawr7HC0838ZzHwimUGTaFIpM+QBffqad1CkF2elJOGFK24wVb5gtVWT0DrRWa+rejuoJsUY8+8A1koqdN1ts+PPvbR0+VyDba0IUGhPO1KoxLKzcfXp//7T+Cb2KTAtyck4CwUlSx19vMiKJC+9SrILg1+HkD0khFlF5VU1INd8fFIq234rYMAzjl593cpu8foYQmXmOMSg0RigNiVAZEsCp9EA3PuNB/bNwicTsuJr6lg6fpyJA1bJ0ReSrfRIAV8fooJA+rSZB4Xm4N5EpS4FnpQ7OUXA4O8ywDDelsIrSJbm0EEHMe4P0r6eUgor+SVupbEumMWHkEOfnpOHkaWM7tK+Mng9OrQOjUP8jnoJVaaHUxYNhu6+5xVUXnCKpCwPDdJz0A0mmqWx0SidncCzmhNdZ4tqCrKyoNMiKOJnmZ+VeAYqhUsffHhsDNowvtgiKFiE8Z01qCDItKa0M2GaBCjwQwCqbepQdyhDmR+GOa89FYlwMNBoV9DqNzEDHjG7PgFXq/PzMgNPGAEz3lBFWq1WYddyokOMS42M6fI7yAJJpKIGmMzhHrw3DGUU4EPJUjyfTgoICFYj4oNTxE9WqsFNGzYIAIcy+6NkhHqTX58P2nf4LdNMgEnDGUZlTbJhf3xiDDv99+DqMHtJPJqBjCKwy8IeREBacsvu0kMkSurYOClEwJRB8vIDaev/1ftPY6H1AdAzB+WEIMhRkbl5W3nE9mkypV7haav49SwhuNoX3BXSIApxi+D1tUjkWmhDS79+bdgS4KVEymXIdkDgG9c/Cfx++FjKOITJVBFc7GYW6S9uIHIn4EFXYTDE65GendejYJRU1EALUDk7lotsh6WStCllh1DwmEB/osWSak5OjBqF3Sx1/uk6LAqX0m+cphVngO3yTuSEM4H+t9+/BpEHIdGC/LCiPcEIxHfz6siwLGceIhs8qQEJURyKEgDDdYzv1hug6MXXCiA7bTPcXV/n9PY5lQgoznSYyQnBJGKFSIDgp0tJpxMiUFXE1gHQpY7WE4OowG+OZRR60E9c3IEQIxebtu9Hkr+WHGJhM1Solhg3KP0KIFWU26eNguNCZOZTSTq3lzqC0ojbo9hOmjOrwsfcGyKBK6yJhYaxagRFhhUpJN0l2GZm2SqWQLJX+K0YfVjaEQxTg7iRRDQkhBQuCiCUr17afbhrcrDDpiKImvCCTqUymwcmUCj74HM0Bw+2ijXWbA9f7iDcZMW5EYYePfaDEP5lmcF2neV0Wo5NMaoTgxPzs7Ek9ikwPSqWSDC0mlsF5BunxmAIoLBHo/T1QqUAo7WXh7+EXep534kSoDhZKEWTJtI/r+AAJEvokeBzwOlpARaFbLs9sceCvjbsCS6XHj+qUySlQbn+OouvINJdjMTGMvH1KScTiTjtNpgel0rukjr/EoIc2DPtJC89DjIBSpCEEAxTBpdNN23bjQEl5WMeNizFg7owJrS8LL5NpX4XH48OB0hoQf9lOIoXPaQbvcXTrNX65YHnQGhAnTh3T4WM3NpnRYvGfEp3Dda1P4Hy9NizpNDczd0qPIFOO0isg0VYayzA4L4wQBicVJWc5SbKpqFQhvlIUX3z321GTHXqK/nV+a08oXpBTQvsq3v/qV/zvk/b96UXeC4+jCSLv7dbrazJb8en3SwJu12pUGFKY0+Hjbw9QIIUBkMMpuvReM8OUThmG3tsTyJRQEMnFAy4x6qGWGD5EAVj4yJLTOHXoh7rg1+WwHNkfRwKZpibF4eFbL4Gs5fdNNDSa8dE3i/Hnuq1wudxHqPVO+JyWoOF10UZJRS2eeeNLnH75Q3A43QHHZaQkdkrFD9T1NIljoe6GHIVwpFMAs3Nzc4d1K5kWZObOAyDJYm1iGZyjlx6sbBF4CBH2eaZzLLJD2G8cTjc++GLBEVwqbYHNPG4UBvbLlJmlD+L3lRvg8frg9fHYuG03AAqf0wLeYwe6yW+/cds+3PDAKzjnmsfw5U/L4QzSnoQQgoljBnXqfNt2+6/Jm8t1T9hf2NKpKN7QrWRKGXqr1LGXGvTQSIxf81EKR5SM9FMlZFx9+s0vaDlY+JkJIx6QyMVK+iiZbjxMYlt2g3dZIfKeLr8OSilWrtuOf932LK6++wX8tXGX3zq8bcguMwVvP3Mbbrr8jA6flxcE7N7v39eQw3VfLYLwpFNyaW5ubnK3kGlubu5wANOkjI1lGJwbhq3ULPBR+55P1ahC3rTT6cab73/dOsXdWJhCRs+HIIjYc6DiMJlu3g7B5+nya/htxQZccP1/cOsjrweUEo+EUsHhmovn4LPX7sfIIQWdOv/+4sqAnU670pPfSelUxYi4qjPn6zBTMJTeJnXsOQadZFupRxThiaKNKZ5lMEqlxIYQbW6/+P5XnDl3Bgr75YIwbLeFs8jo2ahvMrcpkrNzbwm8Pr5NZly04OMF/LJkLT74+jdUVDdI3m/s8ELcff35yM1Mich1bNkVmLz7KbpXGDlTp8Fql1TnH70xJyfnudLSUneXkWl+fn4SeOFcKWOVhOCscGylYvQ94qfoVCHJVBBEPP78O/jo9cfBKFQQPE6ZOWS0Q/NRrWs8Xh82bd+PCaMGRu2cZosD3y5aia8XrECDv6y9AEhKMOG2q87GCcePjuj1rN+y1+/viSyDOJbp1ueTr+AwSMlhl7Ti60kscB6AD7tOMuX5GwAiqYjgyVqN5GwnhyjAS6NvsB+hUiKNZVAdImNpy/Y9eO+zH3HFBfNkMpXhFxo/nW1//G11VMi0uKwan//0B35Zug4ej/QMKgXH4uIzZ+HKC2ZDrY5sGyRBELBx+z6/2woVPcNENk+nwS6vTerw2wF8hA54DsO+22kAVwFypdTx50ssekzRWj2/K8AAOF2vxeuW0H2XXnn7M4wfNQSF2QndlgIoo+dC56cO7ZJVm3DeziKMGJzf6eNbrHb8unwDflm6Fjv3lYW1LyEEs6aMwnWXnoqs9KSo3P+u/eUBu5EWKhU94hmNVymQwrGo5SXwC8XQ/OzsiUVlZWuiTqaVOTlzQJEqyTajVqG/QtqE2kUh4qFQwTBDq8JXNicaQwSHCryIOx5+AZ++/igMKpk8ZBylysaZoNdp2hCKKFI88Mx7eOPJWyT3BTsSdY0tWLd5N1au3Y5Vf2+Hjw9fyJg0ejCun38qBhRkRfX+/94SONe/UNkzJFOGEJyiVeM9q7QMNArmcgBhk2nYsTz5OTk/guJUKWNfSIzHFE1oBhJAUevzdnlE3m9ON96Q2Ilx6KB+eOvpW6Hi5PAnGW1x3X0v+S0gotGocOFpMzDr+FHIz0r1GxTPCwIqqhtQXFaDTdv3Yd3mPSgJUdkpGIYPyscN80/DqKGRKzje2GSG1e5Enp86p9fc8yI2bG1vM1USgk+T48LpzxRVuCjFFXUtcEoyI1I7p1an7d271xbOOcK61ezs7FQOKJfSdTSLY/FNWrKk2CuzwMPeDd5ykVLc3GhBhcQv/7TjRuPJu+ZH1VPr4wX8tXEXDpRWosXqxM1Xnw8OQrdm0cgIjs++X4rn//dN0DEsyyAu1oiE2JiDz9mHlhY7Wqw2iGLnxAiWZTBt4ghccNr0Toc5HYnahmZ88u0SLFu9BV+9+WC71joOpxuzzr8TXh/vVyp9uhPtT6KB96xO/BTAJNFeOqVXFJeVvRc1NZ+l5FIQafucqZdWCkugiFqAvhTxf75Ri8ebpX2Alq/aiFtdbjz/wFURN+R7fTw++mYxPvthGSzWw7bcEcOGYPas48C7rRB9Hpm5eiDmzByPVz/4MWgREUEQ0dBoRkOjOWLn1WnVOPWEibjwjJlIS46PqCT69meL8MNvq8ELAu76v/P89ij7a+Muv0QKAIOUPS8++2SdCgscLkkaMAH+BSB6ZMoQzJdyISwBZuukBenbKd9thXIBYLRKiUkaJdZIjEVbu3Enrr33ZTxz31VISjRF5Br2l1ThnifeRmllXbttGzbvwiknTIFCY4RXMIOKshOspyHGqMe8WRPxzcKVUT8XIQQjBufjlOnjMXv6WGg0kfuoO10efLVgBd79YuGh9NPs9CScNcd/UaUVf20NeKxhSmWPe05pLIuBksOkyHH9srMH7i8r2x1xMs3NzJ1CQQdIGTtVIy0cSgRgF7o/GP5Kow7bPD7YJapb2/cU44Ib/41HbrsMU8YN7dS5Fy77G/95+dOAGSQtVtuhbyWn1sPnbIGMnofr5p+Kpas3BSxD11k1fuSQfjh+3BDMnDIKKUd1xe0s3B4vvvhxOT765ndYbG19CLdceRY4P7ZeQRCwav2OgKTSEyVTAJipVWOXV9ozEgmZD0gvei/5jhlCL5c69lSJbYvtgtCtUuk/iGMY3BCjx9MtNsnXY7Y4cOsjb+CEKaNww/zTkZ6aENY5PV4fXn73O3zx0/Kg49KPaNrHcIrWKlay/bTnSacGHR6+7VLc/tibAZvKhUOe/fMyMXJwPkYP64/Rw/rDEIVW4Lwg4Kff/sJbn/2Cxqb25ocp44bi+An+iylt3nEAVrv/2OtCpQKqHlqn4ji1Eu8QApcURxTFpdOA+5cDkiL+JZFpQUGBivr4M6WMTWRZSe2bKaWw056TojlBrcRcnRoLHNIzySil+H3lRvyxZgvmnTgRc2dOwLCBeSELnqzZuBMv/O9bFJfXhLbzzJjc9qPGsBDl9ig9ElPGDcUjt12Gtz/9BVaHAza7KyCx6rRq6LUapCTFISUxFilJccjNTEG/3HTkZadF1ckpihTLVm/Gqx/8EDANVatR4b4bLgx4jOVBVXxFj31GKkJwnEaJxU5J/oeUsqzc6SgvWRw5yZTnTwZglDJ0nk4LVsJXyU5FiJT2qIm+zKhDiU/ADm94dkkfL+C7havw3cJVSE9NwJih/VGQm47sjORDKpLT5caOvSVYvX4n9pdUSTru7FnHYcjAo7yzDAvIyQNho77BDLvTf3hPJHHKjHE4Zca4Q387nO527WyMYRT9iTSJrli7FW98vABFpdVBx94w//SAPgFBELF41ebAZKrq2cWBZmnUUskUDBHPARA5MhUpPZtIiKIiB8k0tPQM2Hpg4RAOwH1xBjzQZEWxr2M1AqpqGlFV09jpa8nLTsfDd13bfo4ZBjLCR3ycEVff81/kZqXi7DnHY8LIgWC7IG9cp1V3+717PD78vGwtPv12Ccqq6kOOHzE4H+fMnRpw+4Zt+/yaBYDW9kD9e7Bk2mqG4JDJsVJDIs+YBlwnRdUPWR+roKBABZG+DSDkqhihUuISY+hmeU5BgKuH2v0UhGCsWom/PV7JDqlIIy0lEW+/9DAS4tpLBlTku70FRm8EwxAoFQp88t0SLPrjb/z4+xrUNrSAEIKkBJNfJ0tvR3F5DT75bgkeeu4DLF65sZ1zyR9MMTq8/sTNQW20732xCHuLKvxuG6lWYKqm56cKuinFVkkaKNFaYuL+bLG0hKxrGFoy9QongkBS9O0JWomOpx5ezi6OYfBkfAwea7Z1WELtKJKT4vHuy48gPTVALjVz7L304YAwbGtfLkIAUFBBBJVoez/tpEn4ZdlabNlZhPpGMz7/YRk+/2EZ1Colxg4vxOSxgzFqSD/kZCZ3qoVHd5szlq7ZjIXL1mLXvvCaQzIMweN3/gvJCbGBpVyvD8tWB1bxQ/VZ6yk4TqPExzanxJhT8WwASzpNppShZ0s5IwNghgSVxi2K8IH2+Mk2MQz+HW/EE822sG2oHUVSYjzef+UxZKanBCWTvghWqQOrVPu/fypCFHwQvG6IgidgvR+WZfDY7fNx3vX/huuINh5ujxd//r0df/69HQCgUinQLzsdhfmZGFCQhf4FGchMSUCMUd/j5qWxxYqtOw9g/dZ9WL9lj99YZan417knY9LowUHHrPp7O2wBsogIgDEqRa9YT0ksi1wFJ01YIvSsacANoVT9oIbQ0aNHK8yNTXUAYqWo+O8khw4PauJ9PVbF9weRUnzlcOErmwvRvGqlQoFP33oCAwvzgn/cKIXX1oC+BFalBaeSRmSC1w3BYwvarmPNxp249eE32hR1lgKtRoW0lHikJScgPTkeaSkJiDHoEGPUwWTUw2TUITbGEFU76dc/r8COvaUorahFeVV9wPCkcDFp9GC8+Oh1Ie3Itzz8+qGPztEoULB4LsHUa9bVtw4XPrZKnT86s6isbFmHJVNzY+MsgMRKOdUMCSq+QGlEWzd3BRhCcL5ei3xOgVcsNlijZEe99bqLQxIpcLDPFCEApegrYNjQ2TRU5OFz2SSVSZw0ejAeu3M+Hnz2/bBiQp0uDw6UVONASXVIdVmv1UDBcVBrlFCrlFAqFNBp1WAl9EGzO1wQKXDNxXPaJIVQSvHiu9/D7Y5sWvGg/ll45v6rQhJpXWML1mzcGXD7GFXvKqs2SaXCx5BGpgTkbAAdJ1MCMk9iHqskFd8uCuitFDBWrcBrShM+tjmxxOmJqJQaazLi/DNPljyeEA6U9qHwqBD8QwUfvE5zWB+Yk6aOgUGvwb1PvhuwHmeHtRmRHpYYzR0/ztZdxW3ItLHJEnEi7Z+bgZcfu1FSWuoPv64K+vEZq1b0qmWVyjHIk6jqU9B5AK4L+hENfgCcKOWihqqUSAlhsKcAnL28j5KBYXBdjB5PJcRENF1uyIACKMLo4kjYPmY3DaYNiBRep6VDkvqk0YPx7rN3ICstqUfe9oGytvHIdpc7oscfUJCFN5+6GbExoU0ogiDg+98Cl/iMY1uJqbdhklpqDQGS0S87e2CHyDQ/I78AgKRS4TMlSKUuUcSx0pKuv4LDE/ExeDo+BuPUSnQ2cY6GSQRMH+uYSoOYhnxuS6fSawty0/DF6w9g/rkndkncaTiob2gr1gp85PShSaMH462nbpHsVFu1fkfQildjVAr0xkq/k6R3LwUl5OQOkSlh+ZOknuQ4jRQVnz/mXvJCJYf7Yg14K8mES4xa5Hbwy9zYEp4uSJg+RqYB1g4VfEFjbl0uD8wSin+rVArc+K8z8N7zd0a0Hmhn0WJpWxpSjIBxiWEI/nXeyXjx0ev8ltULhK8WrAi6fayqd7ahSGNZpEn8iFIaXFMP+FaKhJxEJAhMaRyL7BAqKk9plzTK6y4ksSzO0mlwlk6Dal7ELq8X+3w89vp4VPCh02Yrq8KrrN7nyDSA113wtVd7V6zdijc//hlllXXweH1ISYzDD+89BgUX2jQypDAH7zx7O1au247/ffoLdu8v69b7PjrIXtvJGrpJCSY8dsd8jB1eGNZ++0oq/XYSOHRdhGC4qveuyRFqJaql1eSYmpGRoamsrHRJlkwHDx6sJBTTpBxdSlETRx/qOZ/GMZilVeO6GD1eSjBJiruzO1yob2gKg0yZ1upRfQSiX8mUQvBTLPvZN77CvuLKQ4Waaxua8cuStWGd7/jxQ/HJy/fg3efuwKwpo7pN/fcd5RjRazuW08+xLC44bTq+eevhsIkUAD7+ZnFQU9REtRJK0nvb+YyUXntVo2AUx4UlmXocjkkADFKOPkGCiu/qwyXjEiTm0u/cU4ykROnV0hmWhcj3kXmlIqgotqlLQAX/rVymTxqBz35oG8Hy3le/Yt4JE8LOahoxOB8jBufDYnNg1bod+GXZWvy9ZW/YNu6Of0QoRJGCORhOpdeHF7+q4FicMmM85p97Uoe7k9Y3mPH7io3BxTVN7+40OUzFQUEAn5TkJIKTEKDwiX/ZXMRJUqzJLAltK/FQEXwfiolsR6YSpZpd+4owfcrYMFX9vhMeRQUvCKM+gl/9azvXX3Yq1m/d26YyV1VNIz7+dinmn3tih84dY9BhzqzxmDNrPOobzFizcSfWbNyFvzfvDpgNFDHplOehOlg4hGNZqFXKgIXE/0FWWhJOnj4Op588KWhqqCSp9LvFQZMb4hgGQ5S92+ykIgQDFApsl5TpKJ4E4A7JZCoSTJcitA9VKqEPEYTsFPt27U2pZLpzd1FYx+0Ku2lDoxmJPSSjRRR4MAqEJFO1WoXXnrgJ1979Ypt6sW989BPGjOiPIf1zOnUdSYkmnH7yZJx+8mSIIkVxWQ227D6AbbuLsa+oEqUVtR1qzRwIR8d1GnSadmQaY9BhcP8cjB1RiHEjCiPW3tliteOH31YHHXOcRgWG9P6OvSNVUsmUDMnPz08qKiqqD0mmGRkZGgKMlHIBk0KI9xSAqw/ZS/0hhZOmWu7cGx6ZMmz0A6R/W7Eegwtze4SHWxTaEkiwcKl4kxGvP3kz/u+eFw+1TeYFAQ8/+wE+feXeiDVDZBiCgtw0FOSm4exTjj90nvLKOpRU1KGqthHVtY2ormtCk9kGm8MJm80ZVgqoz+cDjnjPrr5oLgQqIsagQ0KsEblZqZLiRDuCD79ZfKgXlF9aAXCCVnVMvKcj1Up8ZJP4XARhEoAfQpKpklGOBkRJFtlxIRalWxTR12vC53AsOIQuhtjUbEFxWRXystMlS6aEkKja72JjjLj/6ffwxRsPdFtB48NqPt8amC9RCkqMi8Fbz9yKa+95CcVlremfpZV1uOHBV/Hq4zdEvLvsoReKZZGXnRayCLXV7oTd3kqs/p6hWq2CkuOgP6o+8JmnHNcl893YYsWXIVrqDFMpkMmxx8x7amIYmKVp0hP9kSnT/msjTpJsZwjhBXP2cakUAJSESM4MWbt+Wxh6PkCiLJ1mZSShrrEFj7/4SY+YS97rONidlUKKTT/eZMRrj9/YJjB9844DuP3xt4K2Ze4KGPVapKUkYEBBFgb2y273X25mCtJTE7otkuCDL38NaZudq9UcM+8pATBQqu2XUr8cyfg56kQpxxusVARN7Bcpel1Rk2ihv8SHtHbDtvAWQJTJtCA7DRzLYtnqzfh+0epun0fB44TX3gKPtQGCV5rjJynRhAdvvqjtPG/ajRseeAUNzRZ5cfpBXWMLvlu0Kvi8sixGq46teOdCyR0CyJjBgwcrQ5MpMEHK4YaF8OK7qQgqr0sAwACJD2n9ph0QwnBeSKmm1BloNCoMG9Rayeq5/319yP7YIxCGeWP6pBHt1ONN2/fjguv+jdUbdsoL9Ci89fHPISX3ubpjw/HU5j1VSDZZqL0Ox8igZFqQmZkPIEXK0YaHCEaXpdLDGKVSSGq2ZXM4sWXnXulkyilAopwRPWn0oNbn6fbgvqfehdfXO9OCb7/6HORmtl3aLRY7bnn4NTz5yudobLHKCxXArn3lWLDkrxBSKYOTe0Bvq0gjX6GQnHxAgUnBJVPCSbKXEgBDVMogJ6J93ot/JLSEYJhKmhS5ZMXf4an6XHRVrYkHyRQA9hVX4uX3vu+Vz0CtUuKJe65o10JZFCm+WbgSp1/xEP736UI4nO4+u04ppXjura8ghqjZe7FB26szngJBQYBcidIpRXtzaBsypUQcJ+VAmRyL2CCZPR5KZRX/aFKSWOpr6Yq1YXnoGS66EsKAgizk5xz2TH/x4x/4Y82WXvkM+udl4MbLz/C7zeXy4K1PFuCEC+7CQ899gD0HyvvcGl30x3ps3RU8RK+/gsMUjeqYnYMBCol2U7G9ObQNDcfFxt4LIDvUcaZoNJgWRMy3i/wxXdikI0hkWfzodIX8yNjsTsw4biwSpWauEALR64r69a9av+PQv9du2o2Tpo0N2sGyp2JIYQ527y9HeYCWx4IgYn9JFb5btArL12xFfaMZarUSiXGm1i4HxyhcLg9ue/xNOINI5gTAXbEGyYkovXIeqIjVbgndfwlidAb9K1ar1eWfTGNMzwMI+YacadBiUJCwqBaRlyXTo6AiBKU+AZUSHExxsTEYP3qoRC5lIPpcUW1jkpeZiq9+XnHIXurx+rBtdzHmnTARDNO7XixCCMaPGohFy/4OGpAOAE1mKzbvOIAffluNr39Zjs07D6CiugFerw8GnRZqtfKYWZ8vv/c91m3aHXTMNI0Kc3XqY/o91REGP0qrIAUG7C9mq7n8yI9Nq/iekZEusFyllIO8m5yA4QFsgF4qop7vQy01wsA2jw8PNYd2dGRlpOCXL16VLAkJbhv4KEunL77zLT7+tm2324vOnIXbrjqrdz6L3cW45u4XOuVQM+g0yExPRGZqElKT4xBvMsJkMiDeZIRRr4FSoYBapQTLMdBq1GAICVpD1OPxweM7/O543F54fTxESmF3tGbnuD0+eH080lPikZGaGLG5uOKO54LaSjWE4LUkE+KYY79a2SV1LbBJCN6nBNcVl5a+8c/fh6zxAscNlSJOEiBoELpLlL34gTBMpUAWx6GcD/4Cl1fWYvuu/Rg2uL80aYtTA1Em08vPn42fFq+FxWo/9Ntn3y/FqCEFmDZxeO97FgPz8MBNF+Ph/37Y4Swym8OFXfvKw+5PD0BSwZJg+Oile5CR2vl58Pp4PP7iJyGdTufqtX2CSAEgk2OwyyuBxygZ0lZSPbxBkl6ZzLIwBHU+yWQaDCdKzGX++feVko/JcBxIlOubGvVaXHXB7LZriVI8+t+PUF3X1CufxZxZ43FTAIdUtNEZIj1+wjAM7p8dkev436e/tCkI4w+pHHPMq/dHIoeTnAkVgEwhSiLT/CAB6CIofLLjKShmalUwSmj3u3DJqjD6uhMwiuh7WM+ZNxXZR9XFtNqduPfJd3pt/OmlZ5+Aay+Z12uuN8aox/03XBCRY+05UI6Pvvk95LjLDDooSN95R7MkhkcRgqEByLStyBoI/YKo+B5RDokKBQ0hOF9C0RCz2YY/12ySLp12AZlyLIv7b7roULHif7Bjbyn+8/KnvfaZXHXhKXjgpovB9fCurwqOxWN3XIaEeFNE1PuH//th0NbNQGso1PhjyNEmBdnSi7fE9s/ISD+aTFkAAyVJpkHisOSsJ2k4WatCvoTiJ9/8tFg6mbJKECb6ZDB6WH+cd+r09maJJWvx2fdLe+0zOWP2ZLz2nxuRmhTXI69PqeDw7P3X4LixQyJyvLc/XYgDJdUhx51v0IL0sfczW8FJvmeB44a2IdPC7OwsAJKMIgVB1HzZXiqR+AjB9TG6kLnNq9ZtRnVtg+TjsoqusWvdOP/0dqmZAPDiu99hbYjwmp6MMcML8fWbD+HC02f0KCl15JACfPTSPZgyYWhEjrdzXxk+/Oa3kOMyOBYjVYo+935qCUG8VGebSPrhCIkUsbGxIwDMD0kCAG6LNYL1QwICKKyCnEIqWT9gGThEEXuD2BoppdBq1dJjTllWcjWlTqn7HIshhXn4ZelaCEdEb1BKsXr9DsyYPBIxBl2vfC4KBYdJYwbjtBMmgWUZVNU0wun2dOk1EEIwsF82zj91Gu667nxcdvaJiI81RuTYHq8PNz34KprNtpBjz9ZrMUDJ9cn3c4vXhxpBSngU2d1iMf8OHIwzzcvJ+ReheC/Ujsksi1/Sk/1uc4gCWgQeMqTDRSluaDCjKchDS4yPxeLv35IsKfmc5qC95COJ7xauwn9eaW8rzctKxYcv3g3tMZB2KAgiNu3YjzUbdmLTtv3YXVQe0s4YLhITTOiXnY6hA3MwuDAXQwpzovYxeund7/DRN9LMR28mmiR3ijjW8JbFgUUS6jQQkG8PlJWcDRyMM2WAbCmOo9QgE+uW40vDhoYQXGHU4pkWe8AxDU0tWLp8HU6aKakGDRiFpsvI9MxTjsO2PcVYsLhtlaHi8hrc/8x7eP7Ba9s5q3obWJbB2OGFh1ok+3gBxWXVKC6vQXOLFfXNVrSYrWhqscISoO2FRq2EyaiH0aCFyahDvMmI1OR4ZKYmISMtAWpV1zh4Nu84gE++WyJpbDzL9FkiBYBEiSmzFMg5pLEBABWRI8XiGoxMvZDJtCOYpFZhlMqDTZ7AWWMffP6jZDJlFUoIXq61zUcX4N7rL0BRWVW7wPWVa7fh2Te/wt3XnXdMPS8Fx6IwPxOF+Zm96rqdLg8e/u+HIYPzj/zQ92UkSf6Q0ENkyhyUVSVFAKcFOIFAKQQ5JqrDON8QPFRq++4D2LR1j8SjEbCKritAolIp8MIj1yMtOb7dtq8WLMf7X/4qP+AegP++/TWqaholj68WBDQLfVdASpJezCW+sLDQcJhMjxBVg0qmrH9jtOzF7xz6K7iQxbY/+OJH6aqpUg2Qrkv9S4g14qXHrvfbdO+1D39qZwaQ0bVYuW572G1nRArp3Tr7NpnC5/DlAAAzDeAAmiFlp5QAThCvHKrfaUwN4axZvmoDyipqJEunnLJry+PlZaXiuQevaVd8mVKKx1/6BEv+3CQ/5G5ATX0zHvnvRx3ad7nLI8kJcywihmGgkmjqYJhWVZ8pz8tLA4ik+IfUAGlWXtn51GmMUykRzFcjiiLe/ujbMKRTTZfX3xw9rD8evPWSducVBBH3P/0eVqzdKj/oLoTXx+Pu//yvTXGacPGOxYHt3r5XBY4gDCfUQTMpQ3g+UerB/UmmFJDz8SMAPUOQGiL8acHvK1BeKbGpHWHAKLu+1/0p08fhusva57rzgoC7//M2/vx7u/ywuwCUUjz2wsfYua+sU8cRADzZbMNeb98Le5Sq6hNCE1vJlGESpOygY4hfsdcrdyGNGLQhwogEXsT/PvwmDOlUC3RDaNLl583GGbMnt/vdxwu48/G3ZJW/C/Dahz9h0R9/R+RYTkrxaLMV+3x9i1CNErOgREriAYARKY2XZkMIoOLLUmnE0CTBexqOdEoIAafUd8u93Hv9hZh53Ei/hHrf0+/ip8Vr5AceJbz35aKIR1E4KcUjTVbs6kMSqlGiIELQyqEMoYwkMjWx/g8sq/iRwT4fLykUReBFvPy/z8KQTjVdUgCl3XlZBv+5+4o23U0P3YMg4rEXPsEn3y6WH3yE8ebHC/DaBz9F5dhOSvFIsxV/e7x9Yi71jFQ1HwfJlJEmmRoDhNr45LCoTsMminjJLN1J8NuyNdi6Y6/k8Zyqe6RTBcfiuQeuxvBB+e22UUrxwjvf4clXPocg13ToNDweHx567gO8/dnCqJ7HSymearFhSR/w8hskSqaUHiRTKlHNN/l1PsnFoDuLcp+Au5osqOKlEwqlFE+//IHkdhuMQgWG656alGq1Ci89dj365/mPvvtm4Urc/PDrfbpffWdRWdOAy+94Dr8sXRfWfoTrWEUokQKvWhz41OY6pv0lRumx2q1kChCJNlPiRyqVF3JHIVKKHx0u3NlkQQ0fvnS/bec+/LpUeiA2pzZ0W6tig06D1564qV2V/n/w18ZdmH/rMyipqJUXRhgQBBGffLsY5/3fv7HnQHh9qFiVGjmzzkNsv5EdPv/Xdieeb7Eds34Tg2TnbatAysbGmK4mBPmhhk/WqDFa3Taw3C2KckHoDqDYx+M/LXYsc3nQGQV36879OHPeTKiUoSUMQhiAkC4rgnI0NGoVpk0agZXrtsHqJ7OmxWLHgiVrkZoUh3656fIiCYEDJdW47dHX8dPitWG0tzkskaZPmgOVKRG65EywKg2cdRVAB+TMcl7ANq8P49QqqI+xfH4npfjNKaX8IlHGJyY8xcaaTDcQIGQG1EytBoOPqm7joKKs5ocBD6X41O7EKxZHRPKeHU4XbFYHpk4eI03dZzmIvA/opg+gXqvBzMkjsXLddlhsjnbbeV7AstVb0GK2YezwAeD6cNWiQPD6eLzz+S948NkPUNfYEvb+hFMgY/JcaBLSDpti4pKhNiXCXlMKdCABp0kQscbtxUiVQnI4Ua+Q/Anwk0Oa+UkEfZWNN5luAJASkkx1GhQeJQHZRAGCHGUaWgkAsMLlwZMtNmzy+CI6Y7v2FWPcqMFIS0mS8iqBcAqI3u6zT+q0asw6biRW/b0DZqvD/z3tL8Oy1ZsxqH8OkhJM8gI6iL+37MHtB+N0xQ4IMQpdDDKmnAp1XPuaxEqDCbrkTDhqSls/uOF+2CnFCrcH/RQcko+Rj6BAKb6XSKZgmFfYWJPpJgAhs6BO0GratSwxy8WgQ5Odl8ezZhsWOtxwRUmK37RtN047ZQaUEtV9QphuU/cBQKtV48SpY7Bh2140NFn8jjFb7Viw+C94vDxGDC4AyzJ9dg0dKKnGw89/iDc/XoAWi61jc56Ugcwpp0KhC1yxn9PoYEjPh62mFKIv/O4CPgqsdHmQwLHIU/T+Cv2UEnzjkNa5gvDM62ycyXQrgJBdxE7SadtMEE8p7KIc0hII9YKA16wOfGh1SgrG7wwsVjtKy6tx0oxJkpxMDKsARAFU7L6PoUatxOxp47BzXymqahsDLGaKLTsPYNmqzchKT0ZGamLfWkMNZjz31td48rXPUF5d3+HjmPqNQOqYmZK894xSBUN6Puw1pRC94RMqBfC32wsBBENVil7djI8Q4Cu7RDIlwltsXIzpDhDEhBp8ilaD7CPI1AsKp1zgpB2clOJzuwsvmO0o83Xdx6a4rBKEAGNHSuteSRTKbrWfAq39lk6cOhY1DU3YX1wVcJzZasfCZetwoLQaQwfkwqDTHNNryOF04+1PF+KBZ9/Dzn2l6KhCQzgFUsfOQly/Ea3MIBGMQgljej4ctWUQOmgS2nWwh9IYlRJsL2VUBsCXkskU77JxJtPdAEJGdc/Va5HJHSZTFxXlOqZHQKQUi11ePNlixRaPr1v6DqzfvBNajQYjhhaGfvggYDglRF/3xneyDIPpk0ZAq1Fj/da9QWNnSypq8e2iP+Fye1GYn9ll7T66CmaLAx98/Rvuf/o9rN28O2wvfRuVXatH5pTToU3K6BiRKJTQZ+TDWVcOwdOxJo1lvIBdXh4T1Eooe6mn/1uHS9K7zBDyPhtnMt0PCW2eT9NpkXYkmYqCnJd/6CvM4ymzHb873fBEaEoIIWCU6rDbj/y1YRtEUcDYkUNCqvyEMCAsB9HX/emBwwflYVD/HKzZsBOeICXfBEHElp0H8M0vK+HjeRTmZ0qyFfdkVNY04H+fLcSDz32AvzfvCXr/kj5QOiN0+cNBOA5Krb41LK4jhMopYEjvB2ddBQRPxwpFNwgiNnh8GKtRQtsLCfUHuxtSngZhyMdsnMn0EICQq/EMva5Ng61WT37fRpMg4k2rA+9bHWiJkMmDUShhyhuClLGzkDBoHASPEx5zQ1jH2LBlF4rLKnHc+FHtijW3XwRctzuk/kFWWhJmTxuHPUUVqKlrCjrW5+Oxcdt+fL9oFVxuD3KyUntVN1RKKdZu2o3n3/oaz775FbbvLgHPd/6N4rRG6POHQXTZ4W6sgb26GLzTDlahBKsK3zzCcBwM6QWdklAtoohVbi+Gq5Qw9bLQqR8dLkkCkigyn5H87GyflOLQHyYnYvARrTVqfJ4+S6ZeSvGTw42v7S54IiSdK/UmmAqGwZg9AMxRjoLGnevQvGdD2MdMT0vGE/ffiNEjBoYcK7ht4L2uHjG/okjxwde/4u1PF8IrseybgmNx4rQxuPC0GRhQkNVj105VTSN+WbYWPy9dF1ZPJonqDBTGOPhsZsCPc1gdm4TEYZPbxJhKheB1o3LlD/BYmjp8eVpCcE+cAcN6kSZxeX2LpJhwCjqH5GfnCDjcCyogPk5JwEBlq41KpEA170FfxN8eL961OFEXkeIcBLrkTJj6DYcuORMI4vts3LEGzXs3hy9ZMAxOmz0NN119ARITggdt8G4bhB5CqABQVlWPZ17/Ams37Q5rvxGD8zF35kTMOn5Uj3BW1TeY8cdfW7D4z43YsrNIck2FaIAQgvhB4xA3YEzY+0aCUDkAN5n0OL6XaBFX1begQQKZEpGcRvKzc9wAQt7ZBykJGHKQTH2gqPP1jTJch+xavIB3LA5siUALB0IYGDL7IW7AaCgNsVIVQ9RuWApr2d4OnVOrVePc00/EZefNC0KqFD6XrducUm63B15egE6jAntEYZ2lqzbhzY9/RnF5TVjHUykVmDphGObMmoDxIwdC0UXB5IIgYNf+cqzfugfL12zFrv3l3Uqg/hA/cBziB43tIKF+D4+luRMiBHCpQYcz9Ooe/97Pr2uBWYIJjxCcTPKzc6wADKEGv52cgJEHvacuKqKJ7xt9YZyU4nObCwsdrk6bNQgh0Gf0Q/zAMWGQ6JFcJ6JqzUI4ajveikKpUOCkmZNw5tyZGDNikF8nFe+yQfBFT0K1OVxYtnozdu4pxb6SSpRXN8Bmd7Tp6c6xLExGHVKT45GWHI+s9CTUN5qxbvMe1DaE/yJrNSqMHT4Ak8YOwvgRA5GZFrmYVYvNgd37y7H7QDm27SrChm374HT1fM0tdeJsGNLywidUjxtVqxfA3VLfqfPP0alxhVGHnmxFvbiuGXZRyoeQziD52TmNOFhCKhheTYzHhIOiuU0UYDnGs59EAMucbnxic0n6MoUk0fSCVhI1xnXqWJT3oeLPH+Furuv0PaanJmHm1AmYdfx4DB/Sv02WEe+xd9iDGwjF5TV4/8tfsXT1Zng83fsx1us06Jebjv55GchOT0ZCnBHxsTGINRmg16mhODJyxe2B1eaE3eGC2WpHVU0DKmubUFXTiNLKWlTXNfXKNc5wSuSceAE4Tfj1bkWfF1VrfoarsaZT1zBJrcItJl2PDZ06r7ZZol+ETib52TlVAEJapF9MjMNxmlax3Czwx3T20z4fj7etDuzvZIuGVhLNR/zAsZ0m0aMlg4oV38Fra4nYMXVaNYYPKcTIoQMxavgADBvUDwqWQnDbInL8z3/8Ay++/W2nYidlRB6a1BykjJoOhTr85ouiwKN6zUI46ys6dQ2DlQo8FGeQ3Fq5K3FmbROkCKZUZMaS/OycEgA5oQY/mxiH6QfJtFHwwX0MZj81iyI+tjmx3OnpdDESTWI6koZNhsoUnRRI3mFF2R/fdDhcJRRYjkG/nCxkZ6UgOzUe2RnJyDn4n1odnvPgsx+W4fm3vpaZq0eKpyyMgyfCkJgGbWxi2OmfVBRQs+532KuLO3UZQ5UKPBhn6FESqgjgzBppWofIkOEcAEmepCNL7QnHWLC+SCl+dnrwuc3Z6WIkCn0MEodOgr4DtqhwwOmMSJ90CipW/gAaBWlP4EXsOVCKPQdK220zxeiQEBeDlIQ4xMcakZxoQpzJiDiTASajHjEGPUxGLYxGPapqG/HSO9/JpNVjF78AT305GE4Bn9sJY1I6GFZ6kRLCsEgbfxLqNi+HpXR3hy9ju9eHJ5pteDDeiJ5Sc4oPjws8HEC9kPA94o847rFUdm+fj8ebFgeKO9nGllWoEDdwNEz5w0G6KDBZHZeClDEzUbNuMdCFz8RsccBsceBASXXoeWEZCIKcdhzy4wigMyswjeMwRKlAjoKDkhDYRRFFPh/WujwhM3h8TbVQp+bB63KgubIYxsQ0KLVh2FEZBsmjZ0BlSkT91lUdrvewxevDOxYHronR9QwyDWOsUhS9HMB4pLyI/xhhKSDJhtDTYRcpPrE58bvT3bk8eobAlDsE8QPHgVV1faiHIaMfvDYLmnaF1//nuClTcM555+K/zz2HstKyqF2fTKTtSTNfr8XA9ET0y81Edl46OIUCr37wA3ZY7GEdK55lcIZeixM0WuQr/UuTTYKI1y02/Gh3BBZOeS8Eews4QxxEgYe5tgLamDjo45OAMBR/U/5QqGISULP2V/AddF4ucrqRq+Bworb741DDactEBcHLUUodUswUtoM20t6u4lMAK11evG91dNpLr0lIQ/LIqRF1LnUE8QNHw+cwhxWDev2NN2LsuLE46eST8euiRfh10SKsWL4CLqcTMiKHOI7DkKRYDO+fg2FjBmHwpBFQaQ5/dH9691s8991SOMKQUNI4FlfHGHCSThsyDzyeZfBgXAx4KuKXILU5vc114Axxh94Sp6UJPo8LxqR0sGE03tMkpCJr5jmoXvtrhyNO3rE6MELFIYntXoXfEYaE7eU4B0cIJAXtWY8BMq0WBLxhdmB7ZwtJKNVIGDoJMTkDwvpyRw8EyaOmw2uzwN0srSndP8VBOI7D3HnzMHfePLjdbuzetQu7du7Ezp07UV5WjqqqKtTW1MDni3woE0sIpmrUmKFRI0PBwkeBWp7HHi+PHV4vdnt9XVJMJ1HBwSmIcHTy48oQghyNCkMzUjB0SB7GHj8WGYU5fse6HS48dsdz+K20WvLxjQyDfxkNOM+gDdtRc6spBitc7oAxkz5re0eLz+1ES1UxjInpYan9nEaPzKlnoH7zig7ZUb2U4n2rE3fHGrr1rbJK1qooX1paZuEoSBORoOb/I8X1RnspBfCLw42Pbc5O5tITGLP7I3HYcWCVPSN7g1IKr9MGh7kRqox+8DptEN2OkPt99823GD5iRJvf1Go1Ro4ahZGjRrU7h7nFjBZzC1qam4/4dwsaGxvR1NSIpsYm1NbWoqK8HG536AyqOIbB0wlxGKk+qoyeSonZB01mPgA7PF6sdbuxzuXFbp8v4h9zBSH4771XIG9YIZZ+/TvWbtiB7VX1qPJ4g5qzDCyDTL0WOQkm5KYno9/AfIyaOgY6CQRQtb8Ut933Cg7YpWkBLCE4T6/FFTEGxHTQHm9iGVxq1ON1sy0AHfgguBxgNW3tlaIgHFL7dXFJkjvcEoZttaPGJqFh65+gYX6o/nJ7sdfLo1DZfRX7bZIvmTQDoCQ/J+dpUNwVavh0jRrPJsbBLggwi70nYL9eEPGK2d5paVSpNyFp5NQO14eMOImKItx2MxzmRoj84ech+jyw79sUss8TwzB4+tlnMO+0U8FxkS08UVtTi3vuugur/vzT/1wSgv8lJ2BImAUvmgQRf7hc+N3hwlZv5IhVyxDcfvoMnH7V2YelMq8X1fvLYGmywGq2Qq/XQ2fSIybWCENcDDQxHZOa1vz0Bx743zewSJR6+isUeCDehEERKA7SJIg4pbou4LxpMvpDlRi4Myyn0iAmOR0sF14dWVdDFarW/BJ2b6kTtSpcF6PvtndsmcuDl82S7Ni7i8pKB7FxRtMoEJwQanQsy+BUvRYuiL2mjukSpxtPtthQ1YnQIcIwiB8wBqnjToTSYOr2exJ4L5wtjbA2VMHjsLX74hOWgyI2CbzDAhqkjw+lFH8sWwaNWo201NZ+igqFQrLkEQx6gx5LFi/GgQMH/G7/V4wep+i0HSK9QUol5um1OFOvQzrHwkUp6oTO6Us+CqzcXYL9KzZg+LB+0JuMYFkWpqR4JGenIaswFym56YhPTYQu1giFumPOkfeffg+Pf7sYbgn2URUh+D+TEY/EmyLWoE7LEGz1eFEZoNQfYRkoTYEbM4oCD7fNAk6pAqeQPgcKnRHa5EzYq4rCCuNz09aU0+7CVi+PLZIy9ejeFovlfTbeFDMAIKeGGq5hGJxr0MEl9vz2zi2iiP+abfjBIa2wa8AFbUpE+uR5MGT267Jwp4AvvMcFR0s9bA218HmcCNbLgrAclHGpIAwL3m5BoGgNURSxetVqNNTVIy8vB067A16vB4QhnSbWV15+Gc1N7e1wWkLwdEJ8p4OztQzBYFUrsZ6h10LPsCgXfGE5co5GqdWB7xf9CVTUYtDoQeAi1BTO43LjoZuewudb9kgi/SFKJV5Njsc0jRpMJ+ZJPGiW4yltjVghrSGOK13uQF9YqBIzQtmV4LFbIQo8lBq95DXCaXTQxKfAVrEPUvuwCBQ4S999Vb/Wu73YLSlkkmxqsZi/ZONiY7MAnB/SbgPgEqMeLlGArwfbTVe5vfh3sw0lnem/RBjEDxqL1LGzwKm7L+aNAvA67bDVV8HR0gA+jAZnhBBw+hgoTIkQXdag1fT37d+P3379DTqdFhkZ6XDa7bBYzOB9PjAMA47jwiLW5uZmPPPkU363naTT4sQIl8XTMgxGqZU4X6/DAJUSVlFEVQcLLfsosL6sGt9/uwTu4koUDMqDWtvx663aX4rrb3gS6+pD+3mVB6XRB+NiECvRk03RmlDjpCKcogibKMAqCLCIPGyiALsowCGKcBz8N0coFgRqXywKUCdnSeoXxXvc8DrtUGp0YCReq0JrAKfWwlFTKo1MCcF53Uimq90eFEngEQqyusVi/omNMcQmEYJ/hV5kFFfEGOCkYriZAV2CRlHEy2Y7vrK7OmWGUMUkIOO4uTBk9AurCVnE7aG2FljrKuGytkDsRFEZhlNCEZcKhlNCcFgCBlS73W6sXbsOa/9ai+SUZKSkpMDr8cBmtcJiboHH7QGlIjiWAxNCSl++7A8s/OUXv9uuNhmQE6U2wAwhyFFwOEWnxclaLThCUOTzdUg7cYkUGytq8dkPy7Dp99Xw1DZBZ9AgJkF6ta8V3y3GjU+9j2pP6CTDQUoFXkqMxwytNGnULYqwCDxaBB4OUYCHtmqMAmhQUUfHMFjm8sAR4B1RmJLBKKTZREWBh9tuBscpwEl0yKpjE+GsrwTvkhZTe65eExHTU0fwh8uLCgkfZQK6tMViWcyxRGiiEopg8QfVZ7GHESkP4GeHG5931lNPGMQPGI34gWMA0j0qvcD74LK2wG1tgRjBQjKEEKgS06EwJcJddQDelsDxf0XFxbj/vgeQnZON0087HTNnzYBKpYLDboPD3uoJViiVUKs1UGs0UKvVUCiVbRb8mtWrAyw6YKSya5rgZSlY3BprxOUxenxms+MLqyMggYQSItbVt2DdT38AP/2BGJZBXoweCQYdUhNM0Gs10B4luXo8XpRXN2DBvtKQCSFqQvB/JgPO1+vASiANCqCpk7UxBio51Lv8E7zocbbz6If68Fvqq6B22WFISJNAfAQJQyeiYnnoFGMdQzpl5ugsmiS+g5SSJgDgRI6rIhI9izU+AQk9JHFWALDU6cE3difqO5llozTGIXXsrKgVJZFiD3VZm+G2W6KaFcoolNDmDIIqMQ3OyiIITmvAsWWlZXjppZfw3vvv45TZJ2PGzJnIycluvV6vFz6vFzar5bAZiOOg4BRgOQ4rV67we8xEjkEM27UfqhiGwf/FGHGRQY/PbQ58YXMcSkDpCCyCiM3NVqDZCpR1vPwcATBVo8atsUakc9Il9eYIFBnKV3BYEYhMO1gY3G2zgPe4YUzKAKcM7pzSxKeA1egguBwhn113op6XNs8MSDUAcMXFxZb87BwzAFNIMhUExHXzDfIAljrd+Nbu6jSJAgSm/CFIGDoprOIOkbSHOi1N8LkcXXpuVmeCoXA0fC0NcNUUQQxSecpmteLLL7/Cl19+hZycbEybNg3Tpk1FalraUVI1D4HnYbXZUFVZ5fdY6RLmmOJwYoh41JeFIeTQx4Y5yEgERFLahJFhcE2MARcadPjQ6sCnVhu6q6LqBLUKN5qMKAwz3ImnFK4IVGsLZmahneigwXs9aKkqgT4hGZqgxc8JtInpsJXvC3q8BLb7uMZLqeQMSYGiFGhNFQYFSgkwIiSZ8gIGKrrnBn0U+M3pxvcOF5oikO/NqbRIHjMDupTsriVRKsJts8BpaYLQza1fFLGJUJgS4Gmshru2BDREHGBpaRk++OBDfPDBh8jKzMTwkSMxcuRwDBs+HAZ9azxgXW3gDKyMIBKYk4pwCDy8lIYlnBO0BrVzIFASBkpCoGKYgARrYBjcYDJgrk6Dp1ssWO/u+or4g5TKsIkUQMTKXuYEeQ5iJzPdKBVha6iBz+2EIT41YBSMlKSXbK77AvYbBFHyOmSUzGEyJUAppJCpwIOi629wrduLD2xO1PKRsSPqUnOQMnpGh1rfdhSiwMNlbYHT0gzakwprH7SnKuNT4Kkrh6e+QtL1lVdUoLyiAgt++gmEECQnJSEtIx3qIMVe0gLES/7jROmohM9TCh4U7oPONSK0ZjapCAMNw0Dpxwaeo+DwRlI8FjmceLHFiqYurM/7o92Bq0wGhEunfIRsQEaGwMAwfs0dNEItv902C3xuN2KS0sH5WRNS4k1zue6zKYah9fqKioqqD5EpCMqkPKcavmsznxoEEa9a7NgaoRYXDMshYegkmPKHoKty6nmvG05LE9w2K9CDQ8oIw0KdmgtVQhrctWXwNFVLjgeklKK2rg61dcELW8T6UdvcVOwwkQY1oVAKLxVgEwWwINAyDHQMC+4oh8ZsnRbHadR4zWzDD3ZHh8vgaRiCOIaFj4ohpZomUcRyhwsnhBkiFsnVk8oGINMIZjcKPg+aq0tgiE+G5qhiQKEy9ACgXzemktZLTy4oR6sL55BkWiblQVXzXSdRbff68HSLTWIzq9BQxcS3ZjF1QYUnCoB3OeC0NMPjtKE3gShU0GT2hyolG+66cviaqsPOqw4Ef4H6XdH+RgA9FHNpYjnoGLad6n9PXAwuNerxld2BRXanJEmVA3CaXouZWg1GqlVQAKjjvagRBCxxuvG1LXATxiUud9hkykTw+5/CsdjnLyCdRlhCpxS2xlp4XQ4YEtPAHJx7r90cdDcTwyC9V0impPTI9QBKaakUSa2mi8h0m8eHx1usYdUTDIaYnIFIHHF81J1MlFJ47BY4zY3ge3krbEahgjajH2hyFtz15fA2dp5U1X7I1NOF6jUFYBF5aBnGr9sqjWNxi8mIG2MM2OvjscXjRbmPx3avF3uPqu0wQ6vBjTFGZCravvAEQALD4Hy9FiOUCjzUbPMb97zdG76tlougNhUbwJZJo1Ss2OOwgfcUt3r7VWr47Jag4wepuG6tx9YgkUxpq4n0MJkyhJRImUMnpWgWxah69BtFEU+bbREhUsIpkDxiKozZhVGd+H/soS5rM8RjrGEcUaigSe8HVVI2PIdItWP3eLRkKtCuN3yItLXQuTpI/CJLCAYpFYeKi3xnd+KJ5raS1INxMTD4eQ+O5M0BSgWuNmrxqqV9tEYDL+INixVVvIAqXgBPATUDqEGQr1RgoFKBYSolUo/ILmIjSC8xAcRcGsU4coH3wVxTCo1WFzIRZUQXxSMH1sKlmTsIUNaGTH1AqVSBupwXEKeMHpm+b3V0Kr/60ItrjEPa+JOiqtbzHjdctha4bRZQemxXlGcUSmjSC6BObiVVT0NV2KR69BoT0T1zxlMalsnc7YdgFH7ImALtUq1naNX4zu5C9VGSDgXwboDK+n8djDAgAKZp1Lg8Ro+BSmVEJTVTgLAjEuXPG6UUlurS4GsNwFi1otvWugigQmKMKaEoaUOmpaWl5vzsnGpIaPlc7uMxQhmdG60XRPzl7ryzyZhdiOQRU0G46Fynz+OEs6UJHqcdwLHVXFCKtK9Oy4cqORuehkp4GipDhlT9Ay9tTz7dAakSHgWwyuXBd35afnD+TBZ+PqgMgGlaNT6zOYOSxyClEkPVCgxSKJDKcUhkGSSwbJv2x3wEZ8wUyABLom+nFJzBU0kLFFxAM0RXoJYXpWdTEnFnGzI9uHLevBW+AABewklEQVS2g4Qm0zJf9NTYdW5vp9JVGZZD4ojjEZMzMCpfVI+9NT6U93rQ10FYDuqUHKiTMuFpqoanvgJiiHk52nZIusEqxoJAHeRF9VKK7V4v1rm8+N3pQmUAdc8sCEg4qsCHPYCdrTBIkPxcnRbXmgxIkVAsxBVB7SdQdhHpgkB5wRXcKTte070qfpn0qCXBLQh72pMpodsBclIETxQ2DnSiQ6jSEIvU8SdBFRMfWZFfFOC2tsBpbW5ThFnGoS8YVImZUCVkwNtcC3ddWcCMKk87Mu16GNi2cqlbFLHd68NmjxdbPF5s9XglSSUVvrZk6hZFuKl/QSNQCq2WEDwYFyMpJ98jihEL2gcAXYBzdkWpSd4R3Pk0XtW9ZFouXWA8UFlZ6fJDpmSHFC2inG8tdhKNAgQtHVwsxqxCJI+MrFov+LyHnEqU9i1VvmOiKoEyPhWKuBR4akvhri3tkZKplmHgFkUsdLqxxOnCJrenQ7GlJTyPkWh96XlK0dKByl4ZHCeJSN1UQHOEu1vQQHPPRDfiRfS6g5qF0lgWGVz3FgApk/gsKej2Nqafw4Ip3U4lLG4vpagVKNK4yL8I4VZ9IiyLpOHHIyZ3UMSuoS/bQyPDqQSKmAS/ZOo5ajqZbphfuyjAQwlyFRxO12sxRa1GucBjt8eLfT5ecvnG7R4vztRrwVOKJsEXtDdaVQBJ5+hXqDXZoLWUHk8pBErhBe3SJpZSy+91WEgJEXc9oZtV/LAkU0p2+CVTnpBdLIWA9k5Xv6p+Ghf5m9aHUfpOqTchdcJJUMUkdP4rfbB6eKs91A0ZnXwh1drWWrBHkUA7yZS0yqZdSalWQYCOYTFC1d477gOw1+vFcqcbfzjdQU1aWz0euClFC+9FqFcvUP+xIztWuEQRZoHvsoaVgc5CFNHtVx+sUhkATFB3L5n6aGsXY2mSA93RVjg4iNLSUjcB9ks5RnGUnFCxEo3frb25z+00kVJRhMvajKaK/bA2VMlEGinplGHB+Clk4YU/b3fXq/oOUUAd7z2Uy/8PFGhtGXKDyYhv05LwWWoiztBr23jU/0EFL6DE6w5JpDZRxB8uTwAt76DqSymaQ0i3kUYgZxariG7PJd4RmEzjWQb9FFy3rt0SnofUyEzKMP7JFABEtGXaQNjjjU7xsixOGpn6XA4QtuN2FcHnha2xFo3l+2BrrJUdS1EA66fdi9OPutpdATA8pWjkfWgUfH5DmoDWzqD3x5nwc3oyJqnV7SS7/SGECgrgVYsjoPnqn/nwQuxyg0egdFkSzRbmVAQfRM0fr1Z2a9ZTmNzmKikpORB4LROyUcpR9vO+qFTcz5X4VeIdVtirSzp8Hrfd3OpYEo/tQPvuBKcztn+B/QRCs0z3vj5uUUQD70Mt70WLwMMuCnBR8WBPJQFWkYdIBcT5+XYHiz5xUooXzTascwdOK/YepFCmGz4pjQGC0sOpsh+2EONyAEESPSaqu99euld6RNFWoK1iwh3FrH9RSQsQKOUF5EVYJM/lOMk2NPP+rTCk53fsRVdrISPKkqm2PZk2+HmRmB5yvTyl4GngF93tZ1EucbrhphQFCg7ZHAsCgiZRwEa3FyvdXjSHyO/+JzxJQdDltuM6P9fGKDUgUaxfEUzFNzAMBnezit8qmUolU9KuN0+bq3fz/N8qlvMdNB+FPGmkyVTPEGRzLEolFFRxNdXA3VIPdWxS2OdRqrVdv3r7GpnqjCCEtAkrq/JjTmG6XbGTBn9e/npBxHd2V4eP+U9uPwGBljBw/GNuoIh6EO4uP0WgoymVAmht6BgAo1WKbu339M/zbJJc4ET8K6hg0BqASrdGWBwOC0PDCNht2b+1Q+cghIFCqYaM6IEwLBhVWw2gnhfRfJRphe0dXAp3FKoplfp43NbYjE+sdpSL9PCHJ8pzYhNFvy2MOb0putJ/EDId1wNU/HB8QZwgrA0qmR5kmjWgGBPqYLu90SHTESoOCyS2RLJVHkDi0IngNPrwVX2NDj6P7L2PqnRqiIXgbvsw93p9mKhW9T7JNApqjIdSrHS6sdLZug7VDMEABYeBCgUGKDlkKtioVGjb5uH9+jwUUSwKRH2egAWhFQQYqVJ0+zOWKiBSoGRfZftGZ/709L8A3BRaJBaiUo5vqFIBNdNqlw19VyLMRduRMGRi+Kq+UgMXZEQTCoMJ3obKo15kb1syJT2fTJ2USu5U2Vnpd4vHhy1HdJYwMAwyOQZZHIcsjkWmgkU6y8LUiTbIC53tSY1RqsGoo6fm8zZzwG1DlApoesA62CtRMiXAWr8C2tE/iIT8xUj01O/w+HC8JrJBvkpCMEapxCq3tOLK1tI9iB80PuycYoXshIo6OH1sO7vpOrcH18QYDkuvPVwyLeUFPNNsbVdCLxQYhsHEiRMxecpkZGVmQhBF7Nq1C4t/X4LioqKwVPJdXhG7jtIEGdJajT6RZRDHMIg/9H8WWkKgZQANIdAxBBrCQEMIFARY7/Zhpx/SUES5zbnP1hJw21hV96v4DpGiWGLxewK6WhKZlpSUlOVnZ1cCJCPUQbdEgUwBYJJGJZlMeY8TjuoS6DPC8+wzHAeWU0DgfZARHRCWA6sxgD8i62Wn1wu7SKE/GBLF9ODrX+ry4C2LQ3KKKQAoFAqccOIsnHP2uUhLT22zbUBhIc44/XT8ufJPvP7662hpMXf42kQKNAtiyIiBUGpo64MiUCWkR3UueVtzICkPY3uAvXSr14cwzOJrpM9vq930XClkGg3H42iVAipCJOfqW0p3hk2m/0inQoj2CTI6B9YQ24ZMBQqscbtxolZzSMLqafBSircsDiwNkLmkVqtw/PHHY9vWbaitqwPHcRgwoBDjJ0zASSediJiYmMAfGEJw/NTjMXzEcLzy8iv4889VXXZfgSyCCmMcmCh26hXdLog+/3OZo2it3drd2OKR3GbImlFWtv2AVDIllP5OQUKSabMooowXkBPhKi8qQjBarcAal7QbdNZXwuewQKGLCU8NVWsBmUyjCoUxFp66srYSn9N1mExBelSUWrMg4okWKw4EyG5iGAZ33X0XJk+e3KnzxMTE4IEHH8CypcvwxutvwGrrvsaLVIhuBqDPEVjFH6dW9Ijnvll6B+RlywN8l/x/EnjFb5Ivwh0dNfk4lXTzAaUUlpJdYZ9DGcWvsYyDHyydqV0g+Gq3p00rENJD7KbFPh53NlkCEikAXH31lZ0m0iMxY+YM/O+dtzFt2jSQbnLC8HYLeEf0yDyQig8AY1Wqbn/ulbwgvYEeQUBu9CtSNtuarXEm07kAEiUcHNOjYDdN4hgscIQuJHH462dBbL/hrdWKJILhWDgtLZL7w8voAAiB4LJDPCJEiqdArkKBfgfb3zip2A3Z6W2xzu3Fv1tssAUxnJ162jxcetllET+3RqPGlCnHYeLkSXA5nWhoaITXK00rM7Es+sXHgckdiPjcQpjSc2BISgXhVPB5XJKlTsFlgzIuJfKETkW4Kvb5bSEdxzKYb9R2+6d0ucsrWTLlqHhzk8XiV9QOaJOmwG8ECFkodJfHB7fY2lkx0qr+RLUSy13SWoTwbifsNaXQp+WF86a3tp11OSAjelAaE+BrqW/z2wKHE7MP9o1nQdGdbsDv7C58YnMGbe+n1+tx5RVXdOj4DMNAoVRC4HnwQYrq5Ofl4e577oYoCNi7dx+sFiu279yOr7/6ps04LcNgVFY2MqbPgWLYuICRLKIoonzHFuxbuwJ1e7YGJVbBaYOzfBd0OUMiOreC0xrwvGNVyh6hk0i2l1Ls31deXhyWZAoA8bEmALg41PFFAIVKBdKjUB1bQ4hkMv1H3TdkFIR1DtHng8/tlBkvimAUKngbKtr8VsMLmKvXwsAwcB8siNzV8FCKly0O/ORwh5SLvV4vmlvMmDhxQljnMMXFISUtHTGmWJhi46DRaCEIAny+wJ8PwjBITExERmYG7DY7/vzzzzbbpwwYhOwbHwKbkhFUkiSEwJScivzRE5E/9jg01dfC0VSPQBZq0e0EqAjOELngfW9jVcDMpwsNGqR1c1V9L6V4y+qUpAFTQr5osZgXBlznASU9YAUgLa59nXRPWFgYqlIgIYz4UUdNCYQwa5Iq1LLdNOqaPqcAe1QVKRHAz/bWj1h3BO43CCLub7JgZRgf699+/RWLFi6SPD45NQ3xCYlgjljDGq0WqekZyMzOgd5gDKlWu1ztP/QKVfgx0vq4BJx87R2YfvUdfssj/gN3XTk8deURm2efpSmg5jlU2f3Op00en/QOH5T8GlRoCLShtLTUTSn+lHKOtR3soxNSogEwVRuGI0oUYa8qDpNMtb0kobF3gzO2L+S9wOECRdcH7m/x+nBbY3BHUyC8/vobKCstCzkuPiEReoMhsOlDpUJyaioys3NgMBqDkGl7sldoO55wkjloGE6790loE1IDn7O6CD5zfafnWfS626UT/4ORKgWUPSDraY1bsiDo1bg0yztEpge3SvoM20WKHVEqGB2uc8tavjc8qYlhwChUkBFdKP10ja3meWx2e7qMSkVK8ZXdhceabbB1sJat1+vFU08/E9T2qdZoYIqLa2eC+uyTTzD/kktwyYUX4v333oMgCFAolUhKSUVWTq5fUnW72yuHnFbfqXnQm+Jw2t2PQ5cYmFCdZXtAfZ1rac5bmwJu6wmB+l5KsUE6ma7a2bDT3mEyJSz7LSSGAK52RaeXfAbHon8Ypf5cjTXwOcML81Co5ApS0Qaj1oH1E4r2vcMpqUNnZ1EnCLi/2YbPbM6ghc3HpaVjzoTjgh6ruKgIH334UcDtCUnJ7X679+67cc9dd2HZ0qVYsXw5Hn7gAdx8ww2H1+ARpHqkROt0tSdTVmfo9HwolGrMve0RqEwJAbQ8Ae6Gqqio+AwhPSKFdIvX57f7g18uBP1WiiYdEEVFRRUg2CBN1Y9O9X0AmBaWdEphq9gXpqov2027RNX307NrudMNjxg955NIKX5yuHBzoxm7g2hPsRyHs+eejQF3P434C67FuLS0oMf9+ptvUFzSvtuDVqeD6qjYyX179+KzTz5pN/anH3/Epo0bjyI5JZJT05CRnQOtTudfMtXrIzI3Kq0OJ1x7Bxh/LdIJgTI2ucPHpqIQMB9/gIKFsQekvq12SZZKRVYUf+gUmbbOCvlaytlsoojtUSrLd5xGhXB8ftby8MiUk4P3uwSKmPZhyy5K8ZszOtEU27w+3NJkwXtWZ9AqZONTUjD3/mehPeH0Q78VXvcgUpSBpSdREPHaK6+2KeISCLt2BU4o2bF9u3+iU6mQmp4Bxk8fe0YfE7E5ikvNwOATz2x//oS0ThWL9lma/MaWAsAEdfeb1XwUWC9RxacUq/ZWVFR3mkwFQr+WquqHYcwNC0aGYEQYaoHX2gxvkCo1/lQeyG6oqIPVGUH8SEFLne6IOaFEAGvdXtzdZMFDTdagPdBjORZnn3IWCu99DiSuLdETgwHTLroawQxMO3bsxJIlS9v85na52hFsRkbgmkEZmZlB78ftp+YuY4yN6HOx1LflCcIpoErJ7aSK3xBAXe7+ds4AsNnjla7iE2kCZUgyLS0tLQWopEZ7f0XJqw8Ax2vCewD2KullzkAIOKXshIo2CCFQGNs7orZ5fGA6qfY5KcVvTjdubDDjqRYb9obQksampGDOfc9Ce9IZAccoR0zArJFjgx7nnbffgc1+2C8hiiLcR9k5R40ejfET2senDho0CFOOPz74fTnaS+2MIXKSqaWuBhWb2xZB0qTm+lf9pev44APYS3MVHJJ6QGGTVdIFP5ET+e8iQqatYi75RpJ6LVL8HSXpdIJa6bd/eUAyDbN7qUJW9btG1ffj8OABbPbwYbcwoQC2e3140WzHv+pa8IbFgaoQNSn1DIMzTzwVA+99Dkx86P5hiZfeiP5BQpzMZjM+eP/DNr/ZrG0bxzEMg/+9+y7OPPts6A0G6HQ6zJk3Dx9/9hkUiuCk5XQ62r2wxGCI2PNY8en/QIXDc8ZqdFDGp3ZOKrU2gwboQtoTpFInpUG7xh4lSq+WouIDgCQ3uYLQr3iQp6SMXeL0YFIUJkxFCMarlZKDrN0tDfA5bVBopS08Tq0GbJARZXCGeBCWa5diuNjhwhR1DFok5JJXCwL+dHr/v733DpOjurOGz63qPLEnJ830BI1yQiQBEsmYjLG9mDWvje11xl6HfW0v9uc19mLAa6/td21sHFnA2GAMCBCILIQISkhIQqMZSTPTYXLoHCve748Ro+npUNU93ZNU53n02ExXV1Xfe+vU+d1fwo4ohxFJfazo0sJCnPeF/wumaal6Nc0w2PjJL6P3tz9NaXU9v307rrn2arS2TKQyh4IBVFRVxQXrW61W/L9f/QqyLINSCpZV5wUIT1OmRkIAJjeNLO2H98PnPBmvSuuXAmRmyjGVF3+CTOc+UH9nhFMfqC/jcbXnVTVqx51OO4CDao49xAsYz1M/+oszMvVpRqa+pkxnydRnGOjLahL+visaQ5cgQZfE+hAo0MELeDgYwb+O+XDbqA+PhCKqiZQBcPmK1dj0w19nRKSTa2PZWmxZsSrl55Ik4cEHH5xiyVGEAsnbGjMMo5pIJ8z8eGVqYXOTfinLMvY98ZdpVkMldEUz3I+lNOV+aR3LolE39+2cX1UfxikTSfek2oN1GXDTgyA4S/HqlGJHhMPHCnNPTuuNBpQwBH6VoTShgV5Yl65XNxB6EwhhQKkMDfmFsbwmoTcUBfCNMTeusphQRAh0BBgQZfSJIroFKaNq93HXYgiuvfJDKLzqn2Z0z/Wf+Qaqv38bRlKEV+3dvRfHu7qwbPnyiS2vgB/FpaUzN0mnRTqYc5TLfuC5reD8nriXnLm+dcbnFQMe0BTdK843z72J7xQk9KhtnEfxSs9Ad39OlSkAcLL4MABVie+vRDjkg5JYTIRJqUXMMwwxprIiFIHmhJolsOYi6JIEnkdliq2hKB4KRnB/IIIXIzEc48WsibRcp8NHP/2vMyZSACBGMzbf8PG0xzzwwGl1ysVi4LiZJ7KEwvFJNxb9zAkpFg7hxK74eh3GqkYwhpkLIN47ksbEn3syfSmqvnYHYXB/JudWTab9/f0eUDyt5thRScpbeunF5syKRkeGnaqPX/TxppKEiOMYgsf2Qk6T6jcr6rTaltfzN1nMuPrbd0G37tycndOy+YM4u7om5ecHD76LI0eOTP633+ed0fVkWUY0Eh8ZUGCe+Rp9429/gsSfJnrGYISpujEHewcSeP940o/KWAZL9XNr4osA3lBp4hPAI0Ed32VMpgAgg/xZ7bGvRPKTXtqu16Eug9CK0LD6CjiLPRMq0n8CvHcEEhdByHEMujncv9KXVECXw+DzOCI1m7Hl23eDqcl9k7hln/hS2gIdD05Rp6FAAJKYfbBgJBJJiFm1zDAvf8zZi6GOePeHqbYFYGa+fcD7x4FUXvx5ULt0T4xHQOUWIQX9q8PhyKgEXUZkanfZXwWgSuq9FeXglvLliFKfSx8Z6UuZiZHwgC/iHH2Zi8aZYLIkwqA3gGHnjlDNS5Zl3KJbFZF+5+6EIPycbVE0tmFTa2on1tGjHTh44OCkZeT3+7K+VjiUWFfDVDAzMn3zkT/FPQ+6ghIYympyMjZCGhP/vHlg4j8Tiqo+liHk/kzPn+lKlgnBA6osSgDPR2J5GZSLzerfcrLIIzI+pO5B0RvAMCwWIwT/WEJ7FpmLoKS6Yc56D7GmApiXLMvZ+ZaYTNicRyKdvM4nbkNhGuvo739/bIqp78vaqRkKJ+73m4qzV/Ndb+9CcOi0pUYIgblhaU7GhIoChEDyXk9FDIPVxrkNiTrJizghqLYSDp50OA7lm0xBWfbPp7hSES9mEs+VAWp0LFZmUFg2POxQeSSBzrg4nVBiKDFURxIF6E0WFJbXzNl9GcpqYFmyTBWhE50+aeUpAChhWVxy2+1g8kykAMBYK7B5feq92EOHDuHEiZOnLAApIYhfvTJNJFNjcXZV8CVRxLvPPhpviZXXgbXkJgGA942m7KV2tkmPuZYoT0XUq1ICen9W6yLTL/T09PSB4hU1xwZlOaO2I5nggxkUjQ5nsG+qMyzOfVMxnMTcPLX4zcVWmIvL5uzeDBV1KGzfOBHjOI1UCSHQFZbAsqQdxas2JS0SwRCCq266FaSpbdbuueLmz6EyTfbSY4+dVqc+b6Ij6sjhw/jCZz+LD1x6KW770pdwvKsrcd2GE818nbU8q/vd/fhfIIQDcS8mc0b90hTI1JO6mPT5c1xub0ySsVt9ZmaEp/Rv2Vwnuw0zQv8HIFeqOfTpUAxXWEzIdTbuJpMBf2IYVUV++YBHdTaUbhHum1JJTB77N0VJFJXXQBJ48NHQ3Jj8liIUtq2HLHCQYhFAEkF0BrAmy2RxFDHohcwlKoyLl62EcdPls3q/xGjCpgsuwTOvv5z087ffehtDg4OorauDwPOIhEOwnNrvPPDOO7jpIx+ZLDB94vhxvPzii9i2fTuWr1gxhUwTlamupiHje/WPjcC+7/W4v5nr2xJacGcLWeAgRZL3eTITgg1zbOI/G45BbZVHAjzocrmyCsPIiuN6nM4XAHSqOXZQktR3/8tEzRCCSzIIAo6M9Kk6bqKC1OKCzHOpl86U/1tSXQ9WP7cqgtEboS+yTmTjFJZMEimlFNEkGW11RgOWfPabc3KvJTf8H1SlKNMnSRKeePx08ozXfToU7ac/+UlCpX6O4/DLn/98mjINJ8yWrnZJxve56+Hfx6Xv6gpz53QCAMEzktLEP9dkmNP2JFFK8Yr62FJKQH+d9drNVuyA4H/UHvxMOD+OqCsyMPUjo+oSGViDYc4cMnlTplRKQVzxioEwLEprluTcw54TM3KsH1I0sXjChdfdDMzRC5DodDjv/M0pP3/p5Zfh801sr8RiMURPVZM6cTx5a52uzs60ZFrIMkCG4Xv2w+/A6zgxdd8E5oZluZ0bb2oT/8I59uK/GuEQVl18nGw/6XR2ZnutrJ8aThQfAui4mmMPcUImnjTVaNTpsMygzlSJjPVDXVlWAnaRqVOSQjUkK7PG6o0oqWrAfKrvKkWCiA4mNkpcUVIC85Yr5/TeSj/0f1CVwhnKcRyee+50ppHPM6FOm2y2pMc3t8TvYYaC8Vsu1gwz9GQqYd/j8e1VjJUNMyr6nDA3sUjSlxwAFDAEG+Zwv1QE8Ew4msmI/WJGVlW2X+zv748CzB/UHv/3YDQvA3aFyowoiYuC86vbCllspn6qgApGl3yhGyyFMBeXzo97lyWEHR1JY4XXpKlFOnvq1IDzzkndM+q5bc9OmvSRcBhcLIZ/+9a3EqwfhmHw5a98Je5vgWlRACXmzLqS7nvqH+CmhCsxBiNMtc05/f28ZzjlZ+cZDdDP4Tv55UgMo2pj3Qne63E6X5sTMgUAnSz+BoCqDdEDHJ8XdXqh2ai6zml0TKWpv8icUKmGJ11X1vli6kf6jid1OtWZjDBd+IF5cY+lH/kkKlKkSro9Hry+a9dpder1YMvFF+PPDzyAdevXo7CwEBs3bsTfHn00oYC02x2f8luUQcB+yOdB91svxv3NXLcUJJdx1FSGkIZMLzTPrSrdGspIwP1cpemaHzI93tc3SEEfm0t1aiYEF6icNLX7pvrFFmvK6hfkS0Pwj084N5Jg7cp18+dlpTPgnDRxp09vfWqK6R6EwPP4wBVXYNv27Th24gS2btuGCy5KVLfu8fhSdgWl6svj7Xr4j5CF0xEcuqIy6K25jcEVAh7IKdpBFzIE6+bQxM9IlQKjEvD3mV5zxvKDMszP1DJ6vtTppSpN/ej4oKpsFJ3BtKg6QqVqQcHO45haKsuIpOkyW775g/Pqfis+/MmUWVHHj5+Ia6rn9XhUndM9Hq9MC6rV1RroP34U7u6jU80MWBrac/6bOXfqAvTnm4yYq0RlgQJPZCDcKMEvM83DzwuZ2u32IwREdQHVR/OgTlcb9Kr6ykgCB86nXC2JEAaM3oDFApKkoDAhDBjD/P2NgncENIXqqTbowbYsn19jXFCEc5auSPn5U1tPFyAKBvwQeOXdselmvqm+SZkYKMXbj/w5rkCKqboRTI6L+FCBgxhI/VKYSy/+y5FYJgXq3Xqj8Tc5ES25OInE4D/VqtODeVCnDIBLLerVqRosqtqmhEkI0Gb0BhDCzNtb5tPMk08Q0XffPUDAN6/uuf7Dt0KfYoP6zTffxPjY6eAXn1dZnU4nU51NOY/+nWefRMx7enuAMZphrG7K+W/l3EMpPZvFDMHaOQrUFyjwRDgjVfrfx48fD+aKh2aMTNXp/YEIcp2xf6nKXtyxNBvmi5ZMk5j67Hyu3UppynAbAOAoxWtdHdj6w69h/MFfAbHY/BjjmnpsrE+eoSRJEp7Ztm2KOg1AEFLX/A0EApNxqcBEI0ClugNhrxvHdz4X9zdzfVvunYmUpvXin28yzFku/rZwNJNqdTlTpTkj04kBlu4A1BXY7+IF7MlxF9MaHYsWFcVno251ZMrqF1kmlM64YMhUlsSEOp7JEJRkbD+4D89//8vwb/0LIItzfu8tN/xzyv327dufn6y+TymdjDtNhv6++Iy9ShVlJ3c8eB9k8fRzpS+phL6kIue/UQz5kkZYnDbx50aIBGSKx0Nzo0pzSqbdLlcHAdmq9vgHAhEIOZanarqiitEQhIjy+OkXmzKdtj86n8mUYdmMOmSOCQKe3vkidn73S+Be3jqn965btg4rU3jdg4EAdry6Q5U67ZtGptaC9HUlTu7fDa99SrEUloV5ydK8/EY+jeOphCFYY5gb19MjwQgi6qvU5VSV5laZZqhORyQJz0dy64zapHLTO+ZWrm+62NJKE8z8+ZyYQJikPaKU4IrF8Pdnn8C+738Z4v435uz2l1+cOivrqaeemlTdE+rUo0qZWiurUwsEgcM7W+M7jZprmtPGEWf9iIsCeN94GkFjBDMHz02/KOGlDOon51qV5pxMu12uDhA8ofb4x0JRVVWf1KJex6JWp/yT1Jn6BKx+8ajT6Q/WfE+ZNdXYUmcbKKArGMQjD/8eR3/8TUgnO2f93i2XXIPaFJESDocThw4dmqJO/RCTqNO+vviY6JIlqTOX3vjb/8aV12PNBTBWNuTlt/He4bSdK+YqUP+BQERdkeVTxow5XHBvzp+xXJ+QleXbAagqYhqSKR4L5VadnqUiUFj9vukiMvWnpY7O99AvXVEZLI3LsiZUCuDg2BgevfcunPzJdyB3zx6pEobBhjRB/E9tPb0VQSlN6tnvd8XX4DW1rUp6rqGTneh79+14VdqQ/bgpkmmarhUVDJNR0fZc4Qgv4J0MKtNRgjs6xjpyXmsy52R6wuXqpSCq9yK2h2MYEKWcXX+jipAMLjAOWVJ2VuiMiyfWdLqZP59jTN+HoawWha3rJsvwZQMJwO6hQfzt3rtw4p5vQ5olUi3/0MdhSeFF37t3P/qmkGXA708oydc9pbKUgRAwLYmVniRZwq6Hfx+nFA1ltXlrVCiF/ZDStE6/2GzEbAfbyZTifn84k690Njocf8zLM5aXH0jonWorSkkAfusP5yxUaqXeAIYozgA435gymS5mM3+B/DZdkRXFK86bcf1NmQJ7hofwyL13oeu//j3v5j8pLMHZTa3JlRGl+MeUWqfT906DwSAGhk9bT3Vm84RTbhrefuxBcFP2L4lOD3N9a95+E6fQS+1iy+y/oLdFYnBkIMYo6Ld2TqTuLwwydTgcPlByp9rjO3gBr+WovYmJAVp0ylFunFeZ63WLqHrUdLOeLKDGgUSnh6VpBQqXrp9xzyKZAvsGB/DIb+5Gx53fhHRod97uu+H6j6V8wHa8+ircUwg04PdNqtOuzq640LCqJNEBY047HHunVc+va52Rik9LQpIIwZe6bmmLXofGPLcO5ynFoCThCC9gR5TDQ4EI/hKMZHKKHb1O5/a8vfjzdeIlLsdv+5psXwSwUs3x/xuI4GyjAcXMzPd6Vhr06BbSv61ivhEAaxQJiBAm6+6S84uQpqmGBRipoCu0omjZ2eC9I4gN2dPGOqoxDw+Mj+HA//4Gq4ofxtorroN+y9W5vd/WFVhRakWHL7H0oyAIeGbr0/jMZz8Tp04rqqrQOSWPHwDKp6WRyrKMnQ/eCzqlR30uWzYng+AZjrvedFxizq2lI1DghCDgBC/BLoroFUQMihJm8CRKVGK+kVfBkq8T7wREIpPvqj0+KMt4IBDOybWXq9gEn5pyl5KAgDlv45E7NiVxapTQhftTDNZqFK84FwVNK8GaZl7ouCPgxyNP/BVvfu+LCL3wOGQpd3v4yzenLhP43HPPxWU5va9Op5Np4aqz4v77rX88hKh7JG5uzUva8/qC5NKEEzIE2JIDL75DlLA1FMMP3QF8YsSD/88dwIPBMHZFOfTPjEgBIASdfOHGjRvz5iHL635xd5/9GQCqC66+FuXwHi/M+LorVAQNC0Ff8iZz08Dq9VgsiCt4stBjaAkDfVk1ipafg4KWNVnFpU5HbziMJ59/Ci/d/rmJNFUVRXGUUHDZtSkr8QdDITy//bTVSSmF1+3GsaOnKz4ZCIFxzWkyHTzZCcee+Edqonp+Yd6GWgr7IaVptLjBYEBpFimrFMAJQcRDwQi+PObFN8Z8eDAYxiFeyEeL+BJCcZ9v3H20eUnz5gVHpgAgM+TLUBkqRQHc5wuBn+FAWhlGMd6UUhkxn5p908XjhJq6n0ZBF8mPItCXVKCw/WwUtK6HrrB0xqcc5QVsP7gP//jhN+D4xX9APtkxgydMhw0r16f8+B+PPY5Y7PTjMTYyguNTPPm2wsLJjgiiyGPXQ7+NM7eJPvfV8xNU6dhA2s8vydDxNCJJeDQYxZdGffjOuB9PhqIYEmdtK62dYejOlkbbHchxb568eyF8Pp+7rLTECJAtqsx9SiEDWDfDqjO9ggS7gpfPWFoOs8I+kywJ4MLBRcE7omdksphvUUMbDEWpiw3z0TCEWHRB/T7WaIahvBa6ojLIAgeZn9n9iwCcfh+O7nsT0r7XUSzy0DUtzbhwiKWpFV27XkoaVB6NxVBUWISVqyZcCwcPHsSrU1JO1za3ouSciUfn1fvvhb8vvkOrpXEZdJaivI2pLPCI9HWl/m2E4KslhWAVLB0JwFsxDr/3h/FAIIKjvIAwnbMXOiEEl5RZS5u9Pt82IDfKYlbCwohe/2MCdKk9fmsoio4Zmvtq9k05FcqUXUR1TTHVg08pFit0hSUobFuHwmUboS8pnzmhAHjP48YT2/6B57/zWQz/7ieg/b3qh72sEmfVpc5IeuyxxxA71Y740KHDcZ+Vtk2QbPeBPRg++s6031kKg7U6r2PJjw+mXSubFFo5+2QZj4Wi+PyoFz/3hnCMF+ePTURxa0tT8+8XjDIFAI/HI5VZS48C+JQaaU0BHOVFfMBiTFkfUvkcRDFXlzAMSppXKbzCGET87kVBMoJ7CDI/MSaFDW0wFpctKmWaQGJ6IwzWauiKKyDzsRkrVQCIyjJ6xkdxdPdroPt2oUjgYFjSCrDpH6XigiIcPbQv+Uud42AuMGP16tX405/uh9frnXw41996G8KRKHb87qeQp+7xE4KClrX5zWSjMiLOzrRe/H8pKUB1kt9+khfxl2AEv/GHcJgTEJ2nL28CnGUtKfV5/b69C0KZAkC3w/E6QB9WvW8lSbh/Bt79Rh2j+KbgAx7FsCeGZcEsoJjMtM/GlAVNFq8wTVSqBUUobFuHovYNOcsOkilw2D2OJ7b9A0//+2fh+uUPIB14K+Xx+vXnoTVNQ7zH//EEhoeG4LDbJ//WVlwMprAEL//uZ5CmhYEZK+tz2rI5KcmPDabs8QQAlSyDVVMsQBnA7hiP74z78W23HzujXM4rw01HQUEBDDPM5iMEP2tpaFkz43U2m4taL4rfFHT6qwCo6uz1coTDBqMeF2RRH9FACJbo2LTZEbIkQggHYFBwWrB6I2QusuBJhVJpinI/g9j0/XksKEXh0rMgBj2IDdohRgI5Oa9fkrHT0Qs47kP9Y/+LVctWo/KDN4JtsMUdt/q8i9Cz44Wk5wgGArjrrrshTyn8Y2tdjnce+TNCw/EVpIhOD1NNfp1OVJbAjTrTHrPlVPqoTCneiAl4PBRBXw5Tw1Nh49ln4xO3fhIXXnQRysrKIMsyhoaG0HnsGJ5+6im8+vIr4PmM6iXrGUb+E4BNQPYRWLMqucaDwWiZtXQMwI1qv3OUF3CZxQRTFub+CUFUdEJZKuphSGPuAoDARSDysQVPJvzYwGQ4WNEZYOantDaMZhgq6qAvtoKKYk7M/0lSFEX0jAzi6Ns7EN71AszOkzCXWkGsFTC1tMOx47mUYT9ud3zBk+VLl2P3np0Jx5kb2qErKMnrGEUHeiAGvWmP+UJxAfZzAv7bH8IrkRgCcn5f0K2trbjrJ/fg9u99F8uWLYPZbD6lLAmKi4vR0tqKa669Fjd//OMIBoPo6uxUVWT8lL1fX2Yt7fT6fFmHbsxFsCFpbWreBtBr1X7hHJMe37MWZ3yz28Ix/Flhq6B8xTkoX3lu2mMiPjdCKVoOLyQEOnZP7pnWnnclihraUh4b8owg4lsce8WKJnssCm6sD7xCls9M0GQxo711GdwjQzg4qryWLAwDPcvCP608H2spRlH7WXmNExa8owg7j6V1PBkIQRFDMmkRkjWqqqvxta9/HTd97CawGaSsHj58GF//ylfR36+uxTsBurqdjpXI0rs/Fx3VKNGznwGgmp32xwQ8Hc5cGbaqaGPCqXAusbrFEbhPRR4akjwEJjPMS9pRvGoTzHWtYPLQhcAZieLl9w6pIlIAiMhyApGCEFjymelEKbixAYSdnYrRHjyleSfS5cuX486778KrO1/DP9/y8YyIFADWrVuHp7Y9g00XXKDu5wPL22y2rHuIz0l7yu7u7jFC8MVMvvNQMIxjfGbFXmx6VlHNcgFlMmXmURaULHCIDvambIOcmkgF0LhC3GfenqmiMtHpYaxuRPGK81DYtg76kop51W3BUF4z40IviQtKghDwIjrQjcCxPYj2n0hb/Dnvv9FgwHXXX49H//EPPPvC8/j4LbdMmvPZoNRqxR/v/zMu2qwu6UkGvrKQzPxJtDXZ7qfAZ1QPDMPgFxUlKGPVvwM+N+JN20ObEAZtN34hbRUlKksYcxyfFw+U4BtD2H4UIAxMVUtgqm5SDMsBJlICgycOTv53zdmXo7hpuWbmq3h58eMD4N3DaT3beVfPOj2KVpyXtCqULPATVocsQpYpIEsT4QanFzBkKoGKIiCLoIIAiY9C5qITv2mOw5ZYHYtNmy7AdTdcjw9eeSWKi4tzfo1YLIabPvwRdHYqll6UdKBLjzud9kyvoZvLQTRGCr4Ws4Q2A6RNzfE+WcYvfCH8Z1mR6j4zDXoW45ycxrKRIYT8aZ1QhGFBGGaaspujh/t9U53KiI04wftGJwp+FKRfgFIsPhpBXgQOtVkhMb0RptoWmGqaIfjGwY0PQAx5Z/0+TDU2EJ0eUiwMKeiFEPJDigTmBRlmNa4Mg41nb8R111+Pq665BuXl5fkdP5MJv/ndfbj26msQjaSNzGFFQr4E4N8XFJl2jHWEWhsbPw1CXofKyIKjvIC/hqL4ZJFF1TXqdSwOcemzqfiQT9Gjz+r1EDluzhcha4g3eWQuiuDJgzDVNE2o1BRdPcWIP/6/uTOHTCl9X61JoLIMKokApZBP/Q2n/kYpnXBAyRLoqX+QJVAqg4oSQGVQWQJhdRPnmK05NxUALItg1/60BUcWAtauW4vrrr8e11x7HWpqa2b12o1NTfj0Zz6D+36j0AiE4rMNDQ0/7O/vzyjMQzfXg9vjcr3V1mj7GSW4Xe13ngxFsVyvxzkm5b3MehUmMB/0KS9o1gARc0+muiIrGL0x3uSkFLEhBwS/G5bGFUmDucVpv5EP+RbekyhJkGVxYv9XEiYygiTp1P8KkCUBVBQniFEUTv+vLC1oApL5KCLOrgV7/022Jnzoxhtxw4duhK3ZNqf38vkvfgGP/PWv8PnSrv9yo053M4AHFhSZAkCDy/EfrkbbBYRAVTEUCuAXviDuqSiBTaGqfoNODZkqm23zphQfIbA0LUeo50iCeSdFggge3w9TTTOMVUsmC3JIsXBCIWV+HqTIUlkGFbmJPT+BP7X3x0HmeVCJn4gBlURAnCDKxVxPQGmcFhosBRZ8+MMfwYc/+hGs37Bh3txXcXEx/vmWW/C73/5WYczxmUzJdN64Kpubm6sZmb4LoFbtd6pYBj+tKElbS9EjyfiX0fRkaSqrQeOlH017TDTgQXB8eN4sCm7UhehAT+qJ1RthqloCfVk1uJE+cKOuxDG/+lboU3iHZ+KAopIIKkwhSZGHzHMTapKPQRYFUIGbVVNZw+zAZrPhE7feio/e9E8oKiqal/fY53Lh8ksujcs2S8qnDGm22+3OBaVMAcBut4+02Wy3UEpfBoiq+xqVZPzYE8Bd5SUwpnBIWVkGZkLSFloQVJi8zDyLNTVWNULiohNVfZKtBIFDdKAb0cGelOE94UE7StvWZiqTIHMcJCEGykch8xOl7iYKiXCgIr8glZSGmWHlqlX4+je+gUsvvwwMw8zre13S2IgLLrwAb77xZlqhyVJ6C4B71J53XlXw8Ph8jnKrVQRwuervyBNNti4wGZPKbALgrRgPX5oHnEoiSlvXgkkXFEyBaMA7rxaFrrB0onCvkvmb4nM+6EVp65o4sqWSBCHsR2R8EJx7GLxvDIJ7CNxYH6JDdsQGe8CN90PwDEPwuyGGfJCi4VPKUzxjTfEzFeXl5fjxPXfjh//5I7S0ts6ruNy0TMkweOmFF5UOq/H6fb9dcGb+1HtqbbI9AeDDmXzp5iIzPl6Y3MN/tyeIfVz67J/Gy26CyVqVho9kjNnnnxMg2Lk3IewpExTVtwKEQIgEIUaCEGMRjSE0qMLll12Gb3/339G2tD0/a/tUfr3T6USfywWX04Xh4WFUVVVhyyUXY+3atbA1N0OfhT8jGAzi3LM2QhDSR/owBBtOOhyHFpSZH2ehUvmzOsKsJ4Dq0jiPBaOoY3W4OEljr2odo9g4RQgH0pIpIcy8iTWdqjhlYWYposE0+64aNCQ1Z1kWt33lNlx33bUw5NAx6/N68eqrr+Kd/e/g0Lvvoqe7e3JfkxCCSy+7FP/2rW/hnHPPmfG1ioqKcOFFF2Hna+lb1MmUfALAgiVTuFwu71Kb7SMypW8ARFWnMArgV74gCpkibDTGE2qlivAoIexXPIZhdZDk+ZPfHh2ya04cDTMiFKPRCLPFAkkUMTo6ClFUXk/f/Ldv4oorJrquCoIASmnW5n04HMZz257F9ueew+7db0OaVuWNEIJrr7sOt331q2hfllsFfOVVVyqSKUD/GcB3oKI0n26+TvRJh+NQS1PTzQR4Bir3diUA/+UN4YdlxVg5pUNptYr0UyGsXNuS0ekhCXNLprLAQfR7wHmGIYV9Z8RDX2q1osxqhbWsDNZT/1tWZkVRcTEMej0slgKYzWYYDAYUFRdDr9ehoGDK34qKoDcYUFCQuphyKBSCJEmQJAnhUGjyb1P/hUNh+P1+eDweuN3jGB8bx9jYKNzjbrjdbvXl3uYI37n9dlx19VUoLilBcXFxgqNIkiQMDw/j8//yLzhx/ETK81gs5inGEYXA8zAYM6s57PF48PBDD+GhBx5MGfO5avVq/Mcdd+Dsc87Oy3hcctllIIQozVt9m822pdvh2LlgyRQAep3O7a1NzbcD9Gdqv8NTih97ArizvHiyalRlrsiUnf3hoqIAwTsCIeiFFA6cTidd4CgoKEBdfT3q6upQU1uDmppalJVZUV5egbLy06RptVrBsvn3kxYWnjaAysrKMv6+KIoY6B9AX58LLpcLXZ2d6HM64errQ19fH+RsKiwxBHpzMfQFxdCbC0H0ejCsDow+nri8PUcgRZW7Uuj1OjQ2NaU13+vr6/F/v/VtfPHzn0953MGDh3DhhReefuYyIFOO43Dvr36N+//0J3ApMgqtZVZ85/bb8dF/+qe8RgZUVlZi5apV6JjSWjuF1XsjgIVNpgDQ47T/d2ujrRUEX1L7nQil+JEngLvLS9CgY1GlysxX7kDKzjKZ8p5hRPpOTKQ8LrA9tdq6OtTW1qK+oR61tXWoraud+O/6BtTU1uSlmMVcQqfTocnWhCbbBFkNDw5MKlxBEOB0ONFrt6O3147XduxIqsYIw8JcUQtL1RJYqhpgKqkAVJAJH/Ai4FJ2jqqt63n5FR/AmrVr8N6R95J+fuTQofjrcxygIqb0wDvv4Hu3fxc93d1JPyeE4EMfvhHf+/73s3qhZYMtF1+sSKaguBHANxY8mQJAaWX513zj420A+YDa7wRkijs8AdxTXoIqloGJAWJpxIEQCQKynHbxzqYylcJ+RFxd8zbUiBCC2tpaNNlssNlssDXbYLM1w9bSjMbGxqw8rIsJU01HvV6PtqVtaFs6Uc/H6/Fg585EoWOpakD9hddlfC1zRa0qMu3r61N9zn/53Ofwza99Pelnrr4+jI+No6Ky4pQyVU6z/vMf/4j/uucnKQPlly9fjh/86Ic497zzZnWetlx8sXKuPtDU1tS0odvpfHfBk+mBAweExsbGj+kJ2Q1gmdrvuSUZPzpl8pcyLIbTKTwqQ4iFU2YEAUgfh5pjcAotdmcLRqMRS9vb0d7ejta2NtiabZMEajKZoEGZTKejuia37ZnNFeqSBgdUKlMAuOaaa3DPXXdjdCR5MeujHUdxySWXTJr5KUWBJOGuO+/EQw88mPTzkpIS/OvXv45P3vrJjIs/5wIbztoAk9mMWDSqpB5uBLDwyRSY8PC3NrReB1Z6C0CV2u8NiBK+P+5HoQpzSYyG0pMpmz+1xej10On0AGFACIOwoK6qE8PqQHR6EJ0erN4AQhjIAg+ZypCiYdVFPliWRWNjI5atWI729mVoX9aOZcuXo7GxcVb2LBcdmabph1Rbk9tqSYaiUrBGEySFSmD9ferJlNXpcN311+P+P/0p6ecnTpycJFOB51N69L/377fjiccfT/i7tcyKWz/1adz66U+hpKRkzuZJp9Nh3bq12Ltnr8LLETcCuGNRkCkA9PT3dLc0tHyAsPLrAKxqvzcoyTCqaPYlKmzis7o8kopMYS4ug/FUXVLz+VdDiIYgCzzIqdwKwrJg9EawBiMYgxGs3gSSlugoxEgEXNCDyLATwSE7xGmOtuuuvx6f/+IX0LZ0KYxGIzTkSpnKaZRpTconNstNF5jLahEaSl/POBwOw+vxwlqm7tG5/oYbUpLp8Wne/mQe/T/87vcJRLp8+XLcdPPN+NjNH4PZYpkXc3XWWRsVyRTA2vbGxpYTLlfvoiBTAOjt732vzWa7RqZ4hQCqG4dzVA2ZBhVVYN64VBLhH+mHqagEReW1MBSXKdZYVfOQ6SwF0FkKUFC9BJXrLsTJrb+LSzwotVqxavVqjf1y/m5Mp0yrU7z6ZrAdU1alSKbAhBNKLZmuWbsGNpsNDocj4bPu7pOQJGnSauE5Lo5MnQ4n3n7rLVx2+WWoq2/AypUrcd7550866OYT1IZeyQzzIQC/XDRkCgDdDseelsaWG0HkZwHkTE6JkfTKlDCsmri0GSEW9EOIRlBcVQ+9KddvbgKd0QJhSoHhwcEBjfnyI01TflRVXQ2WZSFJUo6UKdK27Y7b9urvx5q1a1Sf9/oP3YBf/8+vEtdpNIaB/v7JUKvp+6ZNtiY88JeHFsRUrVy1EgaDIe3e78TWDa5MR6bMQl2rva7eV0DwaajITFALIaZcxTxdr6hcQRIFeAedCLlHck7c0wtHDw0MasSXFy5NPW8sy6K4OLfl6dRaMf0ZOKEA4Mqrr075mcNxujqdGo++ovXIcfD7/ejv74fdbofT4YTH41HMn58p9Ho92pep8GsTbG5razMuKmX6PnocjkdbbTYTKO5HDoq2KCnTSTKdlRROiojfDS4aQkllPXTG3HjOdaZ4Mh0c1Mg0P7OXHtZSK7xeX/zamsEK1hcUg7AsqJTe4ZhJeBQALFu2DNYyK7yexIppLpdrCplmnkzS2dmJl198CQfe2Y+TJ05idHQ05bEmkwn19fVoOhWC19zSjHXr1mHZsmUzjgKQZRlr167G0ffeUzrUQgXhAgCvLToyPUWoD7Q2NVcC9KczJtOoGmU6u4W2JJ6Dd9AOU7EVeoMJrN4AncGYtULWTds68Pv9CIfDaVMtNeTWzAeAUmspYFevZhXXJWFgKCwFp9BBwZlk/zP9eQnOPfc8vPjCC4nnmkKm6Tz607F3zx789J6f4PDhw6rvIxaLoaenBz09PQkku2r1aly0eTMuvexSrFq9OuM6AZIoYvXqtQAeUXE0c/miJVMA6HHaf9bW1BSmIPemVKhUWbuKXFhxQTAMOwfPJUXU78HUSDiGZcHqDGANBuj0RrB6A1i9ETqDIe0PZU2JpDk4MICl7e3QMLvKNJkdme3VuHAQRKfsPujtybxK2PmbNiUlU5czvgi9IPAwGNLfw32/+Q1++fNfKFW5T2uSV1RUoKa2FpWVlaiprUFVVRWqq2vg803UTci006koSli9agUYllFM+yWUXgHg+4uWTAGg2+n8bavNJoHit0i2F6xmncoUMh8DazTPKzJNequSBFmKQuCiCT+U1emhM0yEULE6PXRGI3R6EwjDJCjT9019jUxnV5mWWK05uYwQDSPkGZ1YB3plMh0aGkI0EskoLOm8889P+vf+/gHIkgTmlEdf4NOTaX9fH453Hccll16SNC+/uKQEhQWFsBRYYLEUoLCwEGVlVlRUVk6SZ0VFRc6nShR4GE0mtLS0oPtkd/ppJdjY2Nhodblc3kVLpqdM/t+3NjZTEHofsnSuibFIWjIl8z6AnUISeUgiD0TiQ71YnT5pLK22bzr7KC0tyULPnn6RcmE/IgEvpCmOH0ZFnDClFHa7HStXrVJ9r0vbl6LUaoXP652m6ESMjY1Nxs3yPJ82VrFhyRL8v1//ap698+ikg2vFipWKZAqANYC9CMC2BKG12BZpj8v+Bwr6SYBm5SWSuPSV5gmzcIdMEoWk5tXQ4JDGbnl4SNOhqLAoo+9QWQYXDiIwOoBx1wkEx4fjiBQAGL06J2VPhqY+IQTLly9P+tng0Om1I/ALr6IZf2qvFwBWrFyubm4J1i1qMz9uX8jp/NuEyU8fVtucb/Jty0UVFtbCfv8QvSGJMtViTWcbZos56dqL+NyTL2wqy5BEHgIXhchxisqVMagj02z2TZctX4Y9u3cn/H14aBjYcJqYFhyZTtluWLVihdpX5cozhkxPmfx/b21q4gH8FYBZ7fdkhR5IzALPUyc6Q0LiwaAWazrrytRsTtyzlEUBIc9I1tdkDKaJ+CqFa/f29GZOpsuSq7ahBa9MT5NpTW0tyqxWeLyKjTOT5gMzi3lB9zidWxmCSwGMacr0tMlGdIZpylQj09lGYYE5qSk/w8lNmNucKdMVKch0ePj0y0CWVbU9mU+YXi1quSp1SivPODIFgJMOx16JYAtNiOpLQaYKynShtLLNxNQfHhpKTG3UkDdVOqFMkxhLOWjWyKjw6Nvt9oxDk9qXLk1a9X5sLF6nCDnIhJq9eZLBxeIrba1YqYZMieWMJFMAcDgcXTLBBQAUJZjEpy9jRhcBmU5/4ERRxPjYGDTMHszmJH5vmgsyVVamsVgsY2vEbLGgqjqx8uX42Pg0s3nhmPrRSDThxdfa2qJqmJP9UXemLF6HwzHc1tTycwr552nJVKEmJMEiUKa6xLqsfX39qUvDacg9mVqSmfkztw4YFWb++6Z+Q0NDRueur2+YcDhNgcfjgSzLk6o1031TWZYxPjaGvr4+RCIRhIIh6A16mM0WFBYWwGAwoKKyEpWVlXkg00QrtNlmU/UIndFkCgAypBElMpR5paLMdMGPQ7IQmj6XK29dIDWoNPNzoEyJQS2Z9mLLxRdndO66ujocmC4+JAk+vx9lp5IQ1CjTkeFhPLttG3a+thPvHTmCUEg5jdtkMqFhyRIsWbIEtuZmrF6zGqvXrEFzc3PWTfciSWpxlJWXQ6/XKxVXCZ3xZEoAj6KZr1Thniz8nREmSdEUl8upMVyu1pmKrSCTyZiQvkhzsGdKVCpTR4Y5+hPKtD7p393j45Nkmo6EYrEY/vunP8Vf//JwxpWgYrEYuk+eRPfJk3F/LywsxPoNG7B5y2Zs3nIx2pepy+QTeD4uLGoqrNZSjI6m3fYKamRKiFfJNyAJ78fzEfX6fqGRaZJ4RKdDI9PZRoHZguA0VUZleUaJIWrNfHtv5h79uoZUZOrG0qVLAQCiIKSsb/H6zp3gYhyuuPKDCPgDCAYCCAQC8Pv9iMZiSc1uJYRCIbz5xht48403cM9dd6O2thY33PghfPSmm9DS0pLme6kLwRcVFimRqfeMJ1OJEC+jxKYyhSTwYFN5RRehAwoAnE6NTGfd1LeYE8h0wtTPnkyJTr2Znylqa5M37htzxzuhREGAPsl2w5VXXYUrr7oq7TV4nkc0GgUXi4HjOESjsYRaqYFAIGUobUnJRNufSDgMjuNStuIJBdN01VB6mVG4zngyZRjGq6YHvczHUpPpYtgzTRLcrZn5c0GmiRE2VJZAZtAeh6hssT08PIxoNJp87zYFUvWyd4/Hl/0TUpCpGhgMBhgMBiCPTfZ4jktp4gMqQtsITVoUljmTFm9paalXzXFSmk10sgj2TEFIQgiN1+NFMBjUGC5nQ6xm3zT3saZqO+hSSjPeNy0ttaYg02nKVBTm9dwE/P60n4eVngNCes54Mj1w4ICAFJvHces5jROKUnlRjEWyfVOXZurPKkxJTNAZry9Wp3orytFrz+jUJaXJ1aJ7mpkvifM3AYRSimAwkPYYXyD951RkOs54Mn1fhCmSaZq2JJQujkFIFh7lcro0hptNM9+cZCtphi1xCCGquzD09ma2b1pcXDzZjXQqxsbjg2SikQgCfh9CwSAi4TBi0Sg4joMgCJAkKa8NKZUQDAQgp8n2c4+PJ2RFTYNgLjEfT/aB7kxbwATwUqAxLZmmM1MWsTJ1avumswpDkhC1XATuE50eVAUp2+2ZkSnDMCguKU7oB+XzTCPTaATRqHJaNmEYsAwDhmFATv3vxD8WDDPxOUMYMCwDQhgwDAHDsCAMAUNOf4cQojrW1OdNHx3pcCr2yDra0dHBa2QKgKpQpjRNsQYqLw5pSpJURO9zaco0Z+OroiV4UjM/BzUSGFYPGVFlMs3AzI+EwwiHQjAmeQEEQ6EJp5NK59f75jaVpLQqMePf/T4pEwKGZSdJdoJwGVAqK2ZodR7rULrzt1J9cuaRKUGQUCUy5c9MZarFms4qjEkcUFSaufMmWbpwUhVmT0+mAs8jGJyIBxVPBdkbknjpKaXwen2oqqqc0/GUZRmQZUgAkGV76MOHjyiJsd0amZ428xVf2VIaZSpJ4qIYB80BNfcwmQx5MfOhsvWx3++Hz+tF6ZR+VLIsIxQMIOgPIBZLfFSMKUKevB73nJPpTOH3+3G042haLpUJ2aGR6WkoJd+nVQe5SPmbr2Q6PDwMnueTqg8NGdv5yso02Z6pmItiJ+rN7f7+fpRarRB4Hn6fD8GAP215vlRrQ0VB5XmPXW+8odSd9F2HwzGskWkGZJrOAZUT5TAfnnWGBaPTx/1WWZbhcjrRdio1UMOMLCBlZZrUASXmYG7Vk2lvTw/Ky8oQCYdUHW80piBTz8ImU0optm97Tmlkn0/7EtPINDMylRdREWWSRJ12d3dDw+wo06Rmfg62kUgGyrTr2DHVRDqxg6BPQaaeBT1dBw8eQq/CHrLM4DGNTDMl0zRmvjTPsztmaupn09JCQzIuVWHmm/JT05To1BucwyPDOfldvgWsTGVZxv33/1nJ1HjPbrcf0cg0brUSRTZMFxq1mMiUNSbmhvd0a2Q6W2SaPDRq5so0kz3T0ZGRDH9X8lAY9wJWpi88/yK6T3Yr8cZfFFX7mbfIqahYOCpFaBSV5UWzZwoAjNGsmflzSKaWgiSthKTcBO2rxbg7NyTo8bhTWHkSwtEoopEoeIFHKBCEP+BHKBhCIBhEKBhEIBhAMBBEIBBEKBREKBiCJEkIh8PgRRFcLAajyQSDTge90Qij0YiKinLU19ejrq4O9fX1WLliOcrKyzO+75HhYfzhD39QOiyqF/n7NTKdToiUiEqVn+QUylReRKp0gkyTmPm9vXFtKDRkObYqyLSwoDDJCzsHe6as+mgMz7g7Q8Mu+e86fvwErvxgfHk9lmVz1qiRi8XAAcCpkoVDg4N478h7ccc02ZqwZcsWXHP1VaqIlYvFcOeddyEaVYqWpH/tGhhQHKgzMGifispB+8lJUxC4xfXAJzHzo5EIhoaGUlZV16BWmSq/jCyFBXkx8zNRpv5TueoMmz6fv39gAPv37Udvt/oU1NnqeFtYWIj2Ze1Yu2YNztq4MS5uNt293X3PT3ByWuX+pIcS8nM193HmmfkqlKmUwgElcouMTHWGiTYs07K6erq7NTKd6TpjiCoSSHyR5yI0igFhWFVbUpIkwefzJVVyHrcbL73yCl558WX09ffPi3GtrqlBc7MNzc3NaGluRnNrCxrq6zNqwc5xHO66+27s3b1XeSyBBx0OR5dGpsntfF4pCJAKPKgoJLzhRSG2yJ54AtZoghSLJJBpps3WNEwfWjVmfhJlKkszbl0CAERvAOWiqo51ezwoKy+HLEno6+vH/v3vYO/evejo6Jg1dZkMSxobsXLFcrS2tqG1rRUtLc2wWCwzOufQ4CDu/PHd6FHnG4jKLPMjtec+E838kGKHUlFA7wsPwbp0PUpb1056R5XaQC9MU9+cQKaaE2p2yPT9qvIJHT0lAWCMM7s+q4eKzGkAwB3/cQfAMPB5vXNKnhaLBeeffx4uuOACrFm7BqWlpTk7tyiKePLJrXj44b8qldibwhX4z97eXtXVf844MmUoE6REufKTxMUwfnQPPCcOwbp0HYptKxZVWNRUMp2OHo1Mc0Cm6pRlSUkJxsbGpr3MxTRtc1TOq94AtbQ412FNzc023HTTTdhy8ZaMKk+p+m3j43h1x2t4+umnMT42rl50AYcaHY7/zqRI4Zln5jN0NJM2TjIfg7tjL7wn3oWhvB7GqoYZ9eiZd8NhSBJrqgXuz4oyBYCyMmsCmULOQeWoGZLxbEGv12P9+vWoX9Iw4wgSQRDQ3z+Anu5unDh5Ap3HOnHyZHc2xah9YJmbdwIZbWCfcWQqi8wgYTMvViILPGLDdnBjfTBWNcJU2QCw7IIfj2ThUV6PFx6PJ2UDNQ0qyIxRR6bWJGMsiyJmurJYQ17IVAZFDyX0MAHsBHDKlHUSiF4CeFlKfaLBwLKCECcvBZbVMzLdAaAuGQFu3foUtm59CiaTEc0tLWhsbEJ5uRWlJVYUFRdBPyWjSxAExGIcotEI3B4PfD4fPG4PhgYHMTo2lrZIi0pIAL2lt7f3RKZfPPPMfBPjooLMA8iqNBKVRMSGesGN9cFUbYOxsn5Bt39OZua/b+qXnXuuxoqzoEwTyXS+KFMqAthDCHlVksirlpjl3Y6xjlA2Z2prbL6dEvpQumNiMQ6dxzrReaxzrqZNAMGtPQ7n81k9S2faIu/u7uYAdMx8mQmIDpxE4Nge8J7hOe1rMzMFY0764B/v6oKG/JNpeVmS4PK5J9O3CehXiV5f1+N0bu52OH5o77O/kS2RAkC3y/4XUDw9j6csQGTyTz0Ox6PZnkB3Ri50itcpwYac2D18DBFnJ5gRF8x1zdCXVC60px5EbwTl4z2cnZ2d0JB/Mk0WYJ6LwH1Wn7HhJYHgSSoxP+3t630nH2Oil4TPCjr9GgAt82y6XpMZ8hm70z6j6uhnJJlKLHmEkek3cnlOORZGuPcodJZimOpaoCuyLpjxYIxmyNPItOuYRqYzI1N1Rl9SMz+L1iUyF4UYDUKKhCBHQ5CiwcxOQPFwj9Px6XyOSdfAgHtpU9N1MshrAKrneIp4SvAiofSXPU7na7k44RlJpna7fV9rk20rgA/n+txiJIBQ9yHoiqww17WAtRQvCDJFML6E2vHjxyFJUtLWvhpyqEyTxFJSheLkciwCKRaGFA1BikwQJ10g7XROOp2dLS0tW4gkfZ5SspYQrAFQOwuXlgEcB+grFHixMBbbeWRkJJzLC+jO1MUuM+TLjERXgyAvZeXFoBfB4wegL6mAqbYFrLlg/pKpIdEJFYvF4LDb0drWpjFjNmOq1pufjEwlEbLAQYpFJolT5iIT//j8pDQTFV17c4VTnvJvv//f7XXtFbKBXy0DzYTSZgo0EzDNgFwNkCoAmSgSP4B+AH0gcBFKj1BKD5miRYdnsuerkWl6dTrSXtd+gajjnyAEW/J1HcE/DiHght5aBXN1MxiTeR4qU1PSvx87dkwj06zJVJ2Zb7WWJX0RB46+Pav3SxnsmauxOjF4YhzAzlP/ErBx40a92+0uN8iyRWDZQkaS9FPGWSKyHBBYNlwUiYRyrTY1Ms1sEi9tbWz+HIh8F0Aq8rNSKQTPCETvKPSlVTDVNIExzR+lmqxINAB0dXbi+htu0JgxG6WnkkxNZhOMJpPqFMc8UWk/J0rPzNexPHDggABgeL7PuVa0EpB7XPY/FMRiNkrxDQCOvC1ZSsF7RxDo2o+w/SikaGh+LIIUsabHOo5pqyPPynRCnc6ps5IHIZ/v7++ParOmkWlOcGRkJNzrcvxPj9PRKlPyQQCPQkW/qKyVqm8Mwa79CPe+BzEcnNPfPtGp1JBUmWrIlkzVO+6s1tK5uk0XpfI1PQ7HC9qMaWSaF6Vqd9lf7nE6Pi5QuQ4g/wqC9/J1McE/jtCJdxA6eQi8bzShtuhcqtOxsbHEvHENuVempbOuTDtAydeiAr+i1+V6VZut3ECnDUGa17bL5QVwL4B725qaNlFKvgCCmwHk3IskhrwQQ17EDEYYyuthqKhNqhbzR6YmIOxPqk4rKyu1xZBHMi0qnpXwORmgdxFK/97tcnVoM6Qp0zlDt9O5u8fl+IxEUEcpbgcwmpcVz3OIDfUicPRtRBzHICUhuLwsBENyJ5S2b5p/Ms2y4DGv1+vtBoOhGwCv4viTPU7nDzQi1ZTpvIHD4fAB+K+6urpfm3WGz4HQbwOkIecXOuWs4r0jYM2FMJTXwFBalbfSamwKJ5S2bzozQlVTxaiwQJlMKWi4oqy8c8PZZ4W2bN5StmHD+naDwdAMAJ/+1Kf3DA0Nn69wgkPajGhkOi8xODgYAfCrVatW/S4WjHwKhN6OPOUcS9EQov3diA30QFdYCp21GoaSiowap6ky85MqU03I5JtMLZbEF5ler+8957yzXUvqm9izzlpvXbt2zXKGZc9O9v0lTU2xoaH0kUOEyV+UigaNTHOCjo4OHsAfLwH+t6+x+RaAfj9fWVWUUghBL4SgFzFCwBYUQ1dcAUNJ+YzjVpkUsaa9vb0IBAIoLi7WJjvTMWVZQEWDPIslce6qqqtG7vjBHZeouc6y9qXsvj17FdYOGddmJM/zrQ1BbrATEHtc9oeWuBwrQcmnQHEyn9ejlEIM+REb7EGgc9+pPdYOcO7BhJ5OakB0epAk4TyUUhw5fESb4Gy2TlTumybbMyUZVHRcurS9RHmCaVCbEU2ZLjhShcv+EIC/tjU230IJ/T6A9nxfVxY48N5RwDvhFyOsDqy5CKylCKylEKy5AKzBDKSJf2SMlqTVhg4fOoSLNl+kTW42ylQNmSbbM2UY1XS6cvkyxT17QqlWsUYj0wULqdtl/wuAv7U0Nd1MgO8CZPVsXZxK4mS4VdwzqjeAMZrBGMwgegMYnR5EZwBhdSBsciV1+NC72mxmo0zVkmlyZaq6fUNRSUkZy7CDkizVpXzZUqLXZkQj0wVPqr1O598APNJqs30IwPdAcc5c3Yws8JAFHhPFddTh8KHD2ixmo0xVZkGZzIkOKMIgo9YN5ZUVfaMjIynJlBBars1InudbG4JZA+1xOJ7qcTjOpZTZTECfXSg37na70d/fr81gnpSpMUnzO4LM+ootW9aePreekiptRjQyXXTodfW+2e10Xk8INgF4BOqCrucUhw8d0iYu04eLVfd4GQwzt8DPOec8pXAOmzYjGpkuWnQ7HHt6nI5bRFAbIfhPzOMyY4fe1ch0NpUpkJmZf+65G5sVDlmpzYhGposeTqdzqNvhuMNUWNBEKPkkodinKdNF8HCp3DM1GBJrMPACn5H33Wq1VrA6XV/KAwga2tratGBhjUzPDHR0dPDdLvvD3S7HeQzoSkLwI2B+ZK50HD0KQRC0ScqDMtUnMfN5XszYOVxbW9uX5mNCRHGFNisamZ5xOOl0dnY7HD/scTraAHo5BfkNgMG5uh+O43C8q0ubmEzIVKeOD1mWTSBenucy3kjdsGF92redpJn6Gpme4ZB6nM4dvU77V3ucjiUMwfkA+QGl2AVgVqWiZupnrkzVdimdbuqLopRxRZsLNm1KH/5EyUZtVjQy1TAB+aTDsbfHab+z1+W42BQpKAPoZZTguwC2AnAiQ8dFJjikkWneTP3pZEqpnHHN3NVrVi9FmsgQArpJm5H8QQvaX8A41br2tVP/AAA2m83EiMxSsFI7oaQehFZQMOWE0ApgWvCijDAl8BIQLyDfCpC0rUj3792nDXrGZKqDqKLYidEYT6aSJGVMpgaDwWixmI9FItEU5jxdu6pyVWG+Wx5rZKphUcDhcMQAvHfqn2q02Ww6SvGDdMf09/djcHAQdXV12kCrJVMdC6hodW/QT1emNKtuDs0tLeMdR1OVTSS6mCV0LoAd2sxoZr6GPIEA29Ucp1TqTUOiMlUDozF+i1SWZVM21ztr40aFZ5q5QJsVjUw15BEnHY79AEYUyXSfRqYZmX4qPfp6vX46meolSZIyvd4552xUSBulGplqZKohz5BB8bymTHOtTFXGmhoTA/ej0Wg40+u1tbY1I32L8gu0514jUw15N/WJoqnvcDgwOjKiDZZaMlWpTKfvmQJAOBzO2FHEsqzebDHb0xxS0tzcvEabGY1MNeRTmurIS1ARu7pvn+bVz7WZP33PFAAC/kAkm2vW19W50z70MjZrM6ORqYY8ore31w/gTaXjtBCpDMhUry6RKVl+fiDgj2ZzzebmFoVYLHqhNjMamWrIO+hzSkfs3avtm2aiTNVkQRmT7Jl6fT4um2uuWLFcKRLgXG1mNDLVkGdIhCiSaU93N9xutzZYKqFm39SQpNV2MBDMKl24vb29Qkm8NjQ0lGkzo5GphjzC4XB0AehJq10pxX5t31Q19CrI1GxK3DP1eL1iNtdrsjU1IH1aMTGy7HptZjQy1ZBvECiqU41MMzD1VeybJnNA+X0BOZvrGQwGEyFEockXc5Y2MxqZasg7lypnQ2nxphmQqU4NmSaa+eFwiMn+mjqvwhxrylQjUw2z8PTvBBBMd0hXVxdGR0e1sVJHbFkp00g0nHVzKLPJmHb+ZNA2bWY0MtWQZ3R3d3Og6YthUEqx+623tcHKkZlvMBmSkGnMlO01CwoLIwrKtFmbGY1MNcyOsa+4b7pr1+vaMKmAXgWZmk2JvMlHOWO21zSYTEp5/ZWXaFXjNDLVkH+wsrAdCoWm39z1BmRZ1gZLhTJVijU1JSFTjufM2V6TKBcJJ8P19SXa7GhkqiHPONHfPwDgULpj3G43Oo8d0wZLibUIUXRCFRYWJipTns/azCfTC4EngWAyWbTZ0chUw6xAORvqjTfe0IZJjalvSE+mRTkmUzWQZZnXZkYjUw2zoahUhEi98foubaBUkakhY2UqcNntmXZ2dp0YGRktVTrOErKEtZnJHbQNaA0p0e107mttahoHSMr0xIMHDiAcDqOgoEAbsHRkqk9PpgVJyDTG86rJtLe3t/fvf3/M9fZbby/heb5dxVfcWi8ojUw1zB4kELIdFLemOkAQBOzdvQeXfeBybbRmYOYbjUYYDAbwPD/VDGd4josajMYER1QwGPQfee89+wsvvOh798DBRkEQWgC0ZHBLx7VZ0chUw+xiO5CaTAFg165dGpnOUJkCQGFBATx8/Dbmr371672SJCEYDJJAMMD4vX7DmNtdJ4niEswgi4kQvKzNikamGmYRlGFeIJIsAEgprd7cpe2bKpPpRHgUpakjlgqKiuDxxmeBvvzyK5fkw+JgKX1Qm5XcQnNAaUiLUwWj06Y6ORwO9Llc2mApmvrp1Wkyj35eQHDvcafTrs2IRqYaZh1qsqE0daqEZPn3U1FePgslRgn2R3n+e9psaGSqYS5MfYk8pXTMjlde1QZKAQYFMq2oqMjzHZC39IJw9eDgYESbDY1MNcyFqd/fexIE76U7ZvfbbyMc1sIWZ6ZM80amMYD+uLSi7NKugQGtRYJGphrm1NAHnkz3Oc/z2LVTK3ySXpmmT2gqryjP9SU5AtzHSmJbj9P5HwcOHBC0WdDIVMMcQyJkq9Ixr7ysRdukA8uyaftBVVXmRJkKAHYQ0M9JBDXdTsdtp+osaMgztNAoDapgt9sPtzbZegC0pjrmtR07IIqi6l7xZ6SpbzAiIoopzPxslCkNUUoOEkL3AnjNFCl8Q8ts0shUw7wH3QqQb6X6NBAIYO+evbjwIq0te2pT34hIJJzCzK9QjEUFAAryW0LofkjsOz19PZ0AJG1kNTLVsLCwFcC30pv6L2lkqkCmKT8zGFBcXAy/P20vPLnXaf+KNpLzD9qeqQbV6HE6dwO0P90xL734kqKyOlMRCgbhGR9Pe8ySJQ1Kp9GcSBqZalgMdj4F80y6A0aGh3Gso0MbqSmIRiPodzoxMjQIUUzPhbYmm9LptNYGGplqWBx0qnn11SIWi2JoYACDfX3guJiq7zTZFMnUqD23GplqWARodPXuBGhaW/WVl85sMo1Foxjs78eAy4VIODPHepOtUfGZbWtrK9RWokamGhY4dgIiaPpc/c7OTvT3959xYxMOhzDY34eBPheikeyywWzKyhSSJFm1laiRqYbFsWoeVTrkuW3PnhFDIcsy/F4vnPZeDA8MIBqZWdp7SUkJSktL0w+/JDVoi3D+gdWGQEOmWOfzOQKlpV8EkNLcfPutt/DkE0+iu/skuBiHmtoaxdz0hQQuFoPP48bo8DDC4VBOW17v37cfIyMjKT+nDHnF6/Md1Vbi/ALRhkBDNmhtavo1QL6q9ni9Xo8NZ52F8zedj3POPRfrN2yA2WxeUL9ZliSEQkEEfD5wHJfz89vtDryz/x1se/ZZjAwPpyZTgu/2Ohw/0VahRqYaFgHampo2UZC3s/2+TqfD2nXrsPHsjVi3bj1Wr12Dhob5Z71SShEJhxEM+BEJh3MaQzsyPIyOjmM4fOgw9h84ALdCDOrpm8LvelyOL2urUCNTDYtk7bQ22U4iTa5+prCWWbF27TqsWr0ay5Yvw9Kl7WhpbZn1XH9ZlhEJhxAOhRAJh3NiwgdDIdh7e9Hd04NjHcfQ0XEMHnfW1fC29zgd12pLUCNTDYvH1L8TIN/P5zV0Oh2aW1rQtrQNTY1NaGxqwpLGJWhsakJNTQ1YNjfb/pIkIRIOIxQMIhrJXoF6vT709/djYHAAgwODcDqdsPf0YmR0NJcP7X3dTsdt2grUyFTDIkF7Y2OLRJjuuVpHOp0OlZWVqKmtRVVVFaprqlFZWYny8goUlxSjtLQUJSUlKCktRUFBAUwm06QTjFIZsWgU0UgUkUgYXCyWmmSjUYSDQQSCIQSDIYRDQfj9Pni8XoyPjcPt9mDcPY6x0TFEIvkvYi8zZJ3dbj+irUCNTDUsKnVqexXAZQvpni0WM1iWhaWgEITEPwICx4HneQiigFiMm4+3/2iP0/FxbeXNP2hVozTMCBT0zwRkQZFpJBIFAASDoYU22H0CZM28n6fQgvY1zMzkJORJAF5tJPKOYVD2GpfLpY31PIUWtK9hRvD5fGJZaUkDQM7VRiNv6CCy9MGePsdxbSg0MtWwiFFeWfkOZGkEIIUA6qHtxecKEkB+KRH8c6/LNaYNx/yGtug15BTLliypkxjmRpmQqwjFFgAl2qhkDBnAYxLBjxwOR5c2HBqZatDALrXZzqbAZZRiM0DPAUiFNiypQLspJQ/LDB50OBwObTw0MtWgISVsNptNJ5NzKEPPBsUaACsANJ1pa5ECYQLaCUo6KIM9RGRf6env6dZWiEamGjRkjbXV1QVho3E5JWQ5AdNCgSYCuQmUNIGgERPV5RcKYgDcAB0CIYOUkn4CDIPQPgDDkNh+vRwb6hoYcGszr5GpBg2zioaGhjIzy1ZTQqooUAsZVYRBAYASmZJCQmkBGBSAUitACgAUACgkQCnNbI0HAYgAfIRCpIQGAMKDIAwZETDgQGmAEOKhMhmnRPYwhLglQjwsz3oiNOIZHByMaDN2ZuL/B+yrWBxWU6FNAAAAJXRFWHRkYXRlOmNyZWF0ZQAyMDE3LTA4LTIxVDEwOjAyOjQ1KzAwOjAwI91tSgAAACV0RVh0ZGF0ZTptb2RpZnkAMjAxNy0wOC0yMVQxMDowMjo0NSswMDowMFKA1fYAAAAASUVORK5CYII=;clipPath=inset(0% 0% 32.67% 0%);" parent="1" vertex="1">
          <mxGeometry x="1303.14" y="461" width="36.21" height="33.70700460829493" as="geometry" />
        </mxCell>
      </root>
    </mxGraphModel>
  </diagram>
  <diagram id="JOhQGj4knkze6_KGtWVX" name="페이지-2">
    <mxGraphModel dx="1038" dy="571" grid="1" gridSize="10" guides="1" tooltips="1" connect="1" arrows="1" fold="1" page="1" pageScale="1" pageWidth="827" pageHeight="1169" math="0" shadow="0">
      <root>
        <mxCell id="0" />
        <mxCell id="1" parent="0" />
        <mxCell id="oKKjOStvyTvUYIH1S2u--7" value="Private subnet" style="points=[[0,0],[0.25,0],[0.5,0],[0.75,0],[1,0],[1,0.25],[1,0.5],[1,0.75],[1,1],[0.75,1],[0.5,1],[0.25,1],[0,1],[0,0.75],[0,0.5],[0,0.25]];outlineConnect=0;gradientColor=none;html=1;whiteSpace=wrap;fontSize=12;fontStyle=0;container=1;pointerEvents=0;collapsible=0;recursiveResize=0;shape=mxgraph.aws4.group;grIcon=mxgraph.aws4.group_security_group;grStroke=0;strokeColor=#147EBA;fillColor=#E6F2F8;verticalAlign=top;align=left;spacingLeft=30;fontColor=#147EBA;dashed=0;" vertex="1" parent="1">
          <mxGeometry x="70" y="160" width="120" height="70" as="geometry" />
        </mxCell>
        <mxCell id="oKKjOStvyTvUYIH1S2u--8" value="Public subnet" style="points=[[0,0],[0.25,0],[0.5,0],[0.75,0],[1,0],[1,0.25],[1,0.5],[1,0.75],[1,1],[0.75,1],[0.5,1],[0.25,1],[0,1],[0,0.75],[0,0.5],[0,0.25]];outlineConnect=0;gradientColor=none;html=1;whiteSpace=wrap;fontSize=12;fontStyle=0;container=1;pointerEvents=0;collapsible=0;recursiveResize=0;shape=mxgraph.aws4.group;grIcon=mxgraph.aws4.group_security_group;grStroke=0;strokeColor=#248814;fillColor=#E9F3E6;verticalAlign=top;align=left;spacingLeft=30;fontColor=#248814;dashed=0;" vertex="1" parent="1">
          <mxGeometry x="70" y="90" width="120" height="70" as="geometry" />
        </mxCell>
        <mxCell id="oKKjOStvyTvUYIH1S2u--6" value="Availability zone" style="sketch=0;outlineConnect=0;gradientColor=none;html=1;whiteSpace=wrap;fontSize=12;fontStyle=0;shape=mxgraph.aws4.group;grIcon=mxgraph.aws4.group_availability_zone;strokeColor=#545B64;fillColor=none;verticalAlign=top;align=left;spacingLeft=30;fontColor=#545B64;dashed=1;" vertex="1" parent="1">
          <mxGeometry x="60" y="61.54" width="140" height="178.46" as="geometry" />
        </mxCell>
        <mxCell id="8imhHPeTVchF4NcLeT7E-1" value="" style="editableCssRules=.*;shape=image;verticalLabelPosition=bottom;labelBackgroundColor=#ffffff;verticalAlign=top;aspect=fixed;imageAspect=0;image=data:image/svg+xml,PHN2ZyB4bWxucz0iaHR0cDovL3d3dy53My5vcmcvMjAwMC9zdmciIHhtbG5zOnY9Imh0dHBzOi8vdmVjdGEuaW8vbmFubyIgd2lkdGg9IjIwIiBoZWlnaHQ9IjIwIiB2aWV3Qm94PSIwIDAgMjAgMjAiPiYjeGE7CTxzdHlsZSB0eXBlPSJ0ZXh0L2NzcyI+JiN4YTsJLnN0MHtmaWxsOiM0Mjg1ZjQ7fSYjeGE7CS5zdDF7ZmlsbDojNjY5ZGY2O30mI3hhOwkuc3Qye2ZpbGw6I2FlY2JmYTt9JiN4YTsJPC9zdHlsZT4mI3hhOwk8cGF0aCBjbGFzcz0ic3QyIiBkPSJNNyA3aDZ2Nkg3eiIvPiYjeGE7CTxwYXRoIGNsYXNzPSJzdDEiIGQ9Ik05IDBoMnY0SDl6TTUgMGgydjRINXptOCAwaDJ2NGgtMnoiLz4mI3hhOwk8cGF0aCBjbGFzcz0ic3QwIiBkPSJNOSAxNmgydjRIOXptLTQgMGgydjRINXptOCAwaDJ2NGgtMnptMy01VjloNHYyem0wIDR2LTJoNHYyem0wLThWNWg0djJ6Ii8+JiN4YTsJPHBhdGggY2xhc3M9InN0MSIgZD0iTTAgMTFWOWg0djJ6bTAgNHYtMmg0djJ6bTAtOFY1aDR2MnoiLz4mI3hhOwk8cGF0aCBjbGFzcz0ic3QyIiBkPSJNMyAzdjE0aDE0VjN6bTEyIDEySDVWNWgxMHoiLz4mI3hhOwk8cGF0aCBjbGFzcz0ic3QxIiBkPSJNMTAgMTBsLTMgM2g2eiIvPiYjeGE7CTxwYXRoIGNsYXNzPSJzdDAiIGQ9Ik0xMyA3bC0zIDMgMyAzeiIvPiYjeGE7PC9zdmc+;" vertex="1" parent="1">
          <mxGeometry x="290" y="270" width="51" height="51" as="geometry" />
        </mxCell>
        <mxCell id="8imhHPeTVchF4NcLeT7E-2" value="" style="sketch=0;aspect=fixed;html=1;points=[];align=center;image;fontSize=12;image=img/lib/mscae/VM_Linux.svg;" vertex="1" parent="1">
          <mxGeometry x="156.6" y="261" width="50" height="46" as="geometry" />
        </mxCell>
        <mxCell id="8imhHPeTVchF4NcLeT7E-4" value="" style="sketch=0;aspect=fixed;html=1;points=[];align=center;image;fontSize=12;image=img/lib/mscae/VM_Linux_Non_Azure.svg;" vertex="1" parent="1">
          <mxGeometry x="156.60000000000002" y="345.9" width="50" height="46" as="geometry" />
        </mxCell>
        <mxCell id="8imhHPeTVchF4NcLeT7E-5" value="" style="editableCssRules=.*;shape=image;verticalLabelPosition=bottom;labelBackgroundColor=#ffffff;verticalAlign=top;aspect=fixed;imageAspect=0;image=data:image/svg+xml,PHN2ZyB4bWxucz0iaHR0cDovL3d3dy53My5vcmcvMjAwMC9zdmciIHhtbG5zOnY9Imh0dHBzOi8vdmVjdGEuaW8vbmFubyIgd2lkdGg9IjE0LjY1OTk5OTg0NzQxMjExIiBoZWlnaHQ9IjIwIiB2aWV3Qm94PSIwIDAgMTQuNjU5OTk5ODQ3NDEyMTEgMjAiPiYjeGE7CTxzdHlsZSB0eXBlPSJ0ZXh0L2NzcyI+JiN4YTsJLnN0MHtmaWxsOiM0Mjg1ZjQ7fSYjeGE7CS5zdDF7ZmlsbDojNjY5ZGY2O30mI3hhOwkuc3Qye2ZpbGw6I2FlY2JmYTt9JiN4YTsJPC9zdHlsZT4mI3hhOwk8c3R5bGU+JiN4YTsJCS5Ee2ZpbGwtcnVsZTpldmVub2RkfSYjeGE7CTwvc3R5bGU+JiN4YTsJPHBhdGggZD0iTTcuMzMgMTUuMzV2LTMuMDFMMCA4LjQ0djMuMDF6bTAgNC42NXYtMy4wMUwwIDEzLjA5djMuMDF6IiBjbGFzcz0ic3QyIEQiLz4mI3hhOwk8cGF0aCBkPSJNMTQuNjYgOC40NGwtNy4zMyAzLjl2My4wMWw3LjMzLTMuOXptMCA0LjY1bC03LjMzIDMuOVYyMGw3LjMzLTMuOXoiIGNsYXNzPSJzdDEgRCIvPiYjeGE7CTxwYXRoIGQ9Ik03LjMzIDB2My4wMWw3LjMzIDMuOVYzLjl6IiBjbGFzcz0ic3QwIEQiLz4mI3hhOwk8cGF0aCBkPSJNMCA2LjkxbDcuMzMtMy45VjBMMCAzLjl6IiBjbGFzcz0iRCBzdDEiLz4mI3hhOwk8cGF0aCBkPSJNNy4zMyAxMC43OVY3Ljc3TDAgMy44N3YzLjAyeiIgY2xhc3M9IkQgc3QyIi8+JiN4YTsJPHBhdGggZD0iTTE0LjY2IDMuODdsLTcuMzMgMy45djMuMDJsNy4zMy0zLjl6IiBjbGFzcz0iRCBzdDEiLz4mI3hhOzwvc3ZnPg==;" vertex="1" parent="1">
          <mxGeometry x="360" y="270" width="40" height="53.33" as="geometry" />
        </mxCell>
        <mxCell id="8imhHPeTVchF4NcLeT7E-6" value="" style="sketch=0;aspect=fixed;html=1;points=[];align=center;image;fontSize=12;image=img/lib/mscae/Azure_Database_for_MySQL_servers.svg;" vertex="1" parent="1">
          <mxGeometry x="114.8" y="190" width="30.4" height="40" as="geometry" />
        </mxCell>
        <mxCell id="8imhHPeTVchF4NcLeT7E-7" value="" style="aspect=fixed;html=1;points=[];align=center;image;fontSize=12;image=img/lib/azure2/databases/SQL_Managed_Instance.svg;" vertex="1" parent="1">
          <mxGeometry x="85.07" y="260.09" width="44.86" height="44.17" as="geometry" />
        </mxCell>
        <mxCell id="8imhHPeTVchF4NcLeT7E-8" value="" style="aspect=fixed;html=1;points=[];align=center;image;fontSize=12;image=img/lib/azure2/databases/SQL_Managed_Instance.svg;" vertex="1" parent="1">
          <mxGeometry x="82.63999999999999" y="342.91999999999996" width="44.86" height="44.17" as="geometry" />
        </mxCell>
        <mxCell id="oKKjOStvyTvUYIH1S2u--2" value="" style="shape=image;verticalLabelPosition=bottom;labelBackgroundColor=default;verticalAlign=top;aspect=fixed;imageAspect=0;image=https://cdn-images-1.medium.com/max/1200/1*r5KdIfHXaz7UQM4FmZ0D5A.png;" vertex="1" parent="1">
          <mxGeometry x="40.5" y="43" width="47" height="47" as="geometry" />
        </mxCell>
      </root>
    </mxGraphModel>
  </diagram>
</mxfile>
